G75*
G70*
%OFA0B0*%
%FSLAX24Y24*%
%IPPOS*%
%LPD*%
%AMOC8*
5,1,8,0,0,1.08239X$1,22.5*
%
%ADD10C,0.0000*%
%ADD11R,0.0010X0.0010*%
%ADD12R,0.0030X0.0010*%
%ADD13R,0.0060X0.0010*%
%ADD14R,0.0080X0.0010*%
%ADD15R,0.0090X0.0010*%
%ADD16R,0.0100X0.0010*%
%ADD17R,0.0110X0.0010*%
%ADD18R,0.0120X0.0010*%
%ADD19R,0.0130X0.0010*%
%ADD20R,0.0050X0.0010*%
%ADD21R,0.0020X0.0010*%
%ADD22R,0.0040X0.0010*%
%ADD23R,0.0070X0.0010*%
%ADD24R,0.0140X0.0010*%
%ADD25R,0.0150X0.0010*%
%ADD26R,0.0160X0.0010*%
%ADD27R,0.0170X0.0010*%
%ADD28R,0.0180X0.0010*%
%ADD29R,0.0200X0.0010*%
%ADD30R,0.0210X0.0010*%
%ADD31R,0.0220X0.0010*%
%ADD32R,0.0230X0.0010*%
%ADD33R,0.0250X0.0010*%
%ADD34R,0.0270X0.0010*%
%ADD35R,0.0290X0.0010*%
%ADD36R,0.0310X0.0010*%
%ADD37R,0.0330X0.0010*%
%ADD38R,0.0340X0.0010*%
%ADD39R,0.0360X0.0010*%
%ADD40R,0.0370X0.0010*%
%ADD41R,0.0410X0.0010*%
%ADD42R,0.0430X0.0010*%
%ADD43R,0.0420X0.0010*%
%ADD44R,0.0440X0.0010*%
%ADD45R,0.0490X0.0010*%
%ADD46R,0.0540X0.0010*%
%ADD47R,0.0560X0.0010*%
%ADD48R,0.0590X0.0010*%
%ADD49R,0.0600X0.0010*%
%ADD50R,0.0660X0.0010*%
%ADD51R,0.0680X0.0010*%
%ADD52R,0.0700X0.0010*%
%ADD53R,0.0750X0.0010*%
%ADD54R,0.0770X0.0010*%
%ADD55R,0.0800X0.0010*%
%ADD56R,0.0820X0.0010*%
%ADD57R,0.0850X0.0010*%
%ADD58R,0.0870X0.0010*%
%ADD59R,0.0890X0.0010*%
%ADD60R,0.0920X0.0010*%
%ADD61R,0.0970X0.0010*%
%ADD62R,0.0980X0.0010*%
%ADD63R,0.1000X0.0010*%
%ADD64R,0.1030X0.0010*%
%ADD65R,0.1050X0.0010*%
%ADD66R,0.1100X0.0010*%
%ADD67R,0.1130X0.0010*%
%ADD68R,0.1150X0.0010*%
%ADD69R,0.1200X0.0010*%
%ADD70R,0.1230X0.0010*%
%ADD71R,0.1260X0.0010*%
%ADD72R,0.1270X0.0010*%
%ADD73R,0.1300X0.0010*%
%ADD74R,0.1340X0.0010*%
%ADD75R,0.1350X0.0010*%
%ADD76R,0.1400X0.0010*%
%ADD77R,0.1430X0.0010*%
%ADD78R,0.1440X0.0010*%
%ADD79R,0.1460X0.0010*%
%ADD80R,0.1470X0.0010*%
%ADD81R,0.1480X0.0010*%
%ADD82R,0.1490X0.0010*%
%ADD83R,0.1530X0.0010*%
%ADD84R,0.1570X0.0010*%
%ADD85R,0.1590X0.0010*%
%ADD86R,0.1620X0.0010*%
%ADD87R,0.1630X0.0010*%
%ADD88R,0.1640X0.0010*%
%ADD89R,0.1660X0.0010*%
%ADD90R,0.1670X0.0010*%
%ADD91R,0.1690X0.0010*%
%ADD92R,0.1740X0.0010*%
%ADD93R,0.1770X0.0010*%
%ADD94R,0.1790X0.0010*%
%ADD95R,0.1810X0.0010*%
%ADD96R,0.1840X0.0010*%
%ADD97R,0.1870X0.0010*%
%ADD98R,0.1900X0.0010*%
%ADD99R,0.1930X0.0010*%
%ADD100R,0.1980X0.0010*%
%ADD101R,0.2000X0.0010*%
%ADD102R,0.2020X0.0010*%
%ADD103R,0.2050X0.0010*%
%ADD104R,0.2060X0.0010*%
%ADD105R,0.2110X0.0010*%
%ADD106R,0.2150X0.0010*%
%ADD107R,0.2160X0.0010*%
%ADD108R,0.2190X0.0010*%
%ADD109R,0.2200X0.0010*%
%ADD110R,0.2210X0.0010*%
%ADD111R,0.2230X0.0010*%
%ADD112R,0.2240X0.0010*%
%ADD113R,0.2260X0.0010*%
%ADD114R,0.2310X0.0010*%
%ADD115R,0.2340X0.0010*%
%ADD116R,0.2360X0.0010*%
%ADD117R,0.2390X0.0010*%
%ADD118R,0.2410X0.0010*%
%ADD119R,0.2430X0.0010*%
%ADD120R,0.2460X0.0010*%
%ADD121R,0.2470X0.0010*%
%ADD122R,0.2510X0.0010*%
%ADD123R,0.2580X0.0010*%
%ADD124R,0.2620X0.0010*%
%ADD125R,0.2640X0.0010*%
%ADD126R,0.2650X0.0010*%
%ADD127R,0.2680X0.0010*%
%ADD128R,0.2730X0.0010*%
%ADD129R,0.2780X0.0010*%
%ADD130R,0.2810X0.0010*%
%ADD131R,0.2840X0.0010*%
%ADD132R,0.2850X0.0010*%
%ADD133R,0.2600X0.0010*%
%ADD134R,0.2590X0.0010*%
%ADD135R,0.0190X0.0010*%
%ADD136R,0.2610X0.0010*%
%ADD137R,0.0240X0.0010*%
%ADD138R,0.2630X0.0010*%
%ADD139R,0.0260X0.0010*%
%ADD140R,0.2660X0.0010*%
%ADD141R,0.0300X0.0010*%
%ADD142R,0.2670X0.0010*%
%ADD143R,0.0320X0.0010*%
%ADD144R,0.2690X0.0010*%
%ADD145R,0.2700X0.0010*%
%ADD146R,0.2720X0.0010*%
%ADD147R,0.2750X0.0010*%
%ADD148R,0.2760X0.0010*%
%ADD149R,0.0350X0.0010*%
%ADD150R,0.2790X0.0010*%
%ADD151R,0.2820X0.0010*%
%ADD152R,0.2830X0.0010*%
%ADD153R,0.0380X0.0010*%
%ADD154R,0.2860X0.0010*%
%ADD155R,0.0390X0.0010*%
%ADD156R,0.2890X0.0010*%
%ADD157R,0.2880X0.0010*%
%ADD158R,0.2900X0.0010*%
%ADD159R,0.2920X0.0010*%
%ADD160R,0.2930X0.0010*%
%ADD161R,0.2940X0.0010*%
%ADD162R,0.0450X0.0010*%
%ADD163R,0.2950X0.0010*%
%ADD164R,0.2970X0.0010*%
%ADD165R,0.0460X0.0010*%
%ADD166R,0.2980X0.0010*%
%ADD167R,0.0470X0.0010*%
%ADD168R,0.3000X0.0010*%
%ADD169R,0.2990X0.0010*%
%ADD170R,0.0480X0.0010*%
%ADD171R,0.3020X0.0010*%
%ADD172R,0.3030X0.0010*%
%ADD173R,0.3040X0.0010*%
%ADD174R,0.3050X0.0010*%
%ADD175R,0.3060X0.0010*%
%ADD176R,0.3070X0.0010*%
%ADD177R,0.0510X0.0010*%
%ADD178R,0.3100X0.0010*%
%ADD179R,0.0500X0.0010*%
%ADD180R,0.3110X0.0010*%
%ADD181R,0.3130X0.0010*%
%ADD182R,0.0530X0.0010*%
%ADD183R,0.3140X0.0010*%
%ADD184R,0.3160X0.0010*%
%ADD185R,0.3200X0.0010*%
%ADD186R,0.0550X0.0010*%
%ADD187R,0.3210X0.0010*%
%ADD188R,0.0570X0.0010*%
%ADD189R,0.3220X0.0010*%
%ADD190R,0.0580X0.0010*%
%ADD191R,0.3230X0.0010*%
%ADD192R,0.0610X0.0010*%
%ADD193R,0.3240X0.0010*%
%ADD194R,0.3250X0.0010*%
%ADD195R,0.0630X0.0010*%
%ADD196R,0.3260X0.0010*%
%ADD197R,0.0620X0.0010*%
%ADD198R,0.3280X0.0010*%
%ADD199R,0.0650X0.0010*%
%ADD200R,0.3270X0.0010*%
%ADD201R,0.3290X0.0010*%
%ADD202R,0.0670X0.0010*%
%ADD203R,0.0690X0.0010*%
%ADD204R,0.3300X0.0010*%
%ADD205R,0.3190X0.0010*%
%ADD206R,0.0710X0.0010*%
%ADD207R,0.3150X0.0010*%
%ADD208R,0.3120X0.0010*%
%ADD209R,0.3090X0.0010*%
%ADD210R,0.3080X0.0010*%
%ADD211R,0.0720X0.0010*%
%ADD212R,0.0730X0.0010*%
%ADD213R,0.0740X0.0010*%
%ADD214R,0.0760X0.0010*%
%ADD215R,0.0780X0.0010*%
%ADD216R,0.0790X0.0010*%
%ADD217R,0.0810X0.0010*%
%ADD218R,0.0830X0.0010*%
%ADD219R,0.0840X0.0010*%
%ADD220R,0.0860X0.0010*%
%ADD221R,0.3010X0.0010*%
%ADD222R,0.0910X0.0010*%
%ADD223R,0.0900X0.0010*%
%ADD224R,0.0930X0.0010*%
%ADD225R,0.0940X0.0010*%
%ADD226R,0.0950X0.0010*%
%ADD227R,0.0960X0.0010*%
%ADD228R,0.3170X0.0010*%
%ADD229R,0.3320X0.0010*%
%ADD230R,0.3330X0.0010*%
%ADD231R,0.3340X0.0010*%
%ADD232R,0.3360X0.0010*%
%ADD233R,0.3390X0.0010*%
%ADD234R,0.3400X0.0010*%
%ADD235R,0.3410X0.0010*%
%ADD236R,0.3420X0.0010*%
%ADD237R,0.0990X0.0010*%
%ADD238R,0.1010X0.0010*%
%ADD239R,0.1020X0.0010*%
%ADD240R,0.1040X0.0010*%
%ADD241R,0.1060X0.0010*%
%ADD242R,0.1090X0.0010*%
%ADD243R,0.1110X0.0010*%
%ADD244R,0.1140X0.0010*%
%ADD245R,0.1160X0.0010*%
%ADD246R,0.2910X0.0010*%
%ADD247R,0.1180X0.0010*%
%ADD248R,0.1190X0.0010*%
%ADD249R,0.1310X0.0010*%
%ADD250R,0.1330X0.0010*%
%ADD251R,0.1360X0.0010*%
%ADD252R,0.2030X0.0010*%
%ADD253R,0.2740X0.0010*%
%ADD254R,0.2040X0.0010*%
%ADD255R,0.2710X0.0010*%
%ADD256R,0.2070X0.0010*%
%ADD257R,0.2220X0.0010*%
%ADD258R,0.2090X0.0010*%
%ADD259R,0.2250X0.0010*%
%ADD260R,0.2170X0.0010*%
%ADD261R,0.2100X0.0010*%
%ADD262R,0.2120X0.0010*%
%ADD263R,0.2140X0.0010*%
%ADD264R,0.0400X0.0010*%
%ADD265R,0.1990X0.0010*%
%ADD266R,0.2180X0.0010*%
%ADD267R,0.1960X0.0010*%
%ADD268R,0.1940X0.0010*%
%ADD269R,0.1920X0.0010*%
%ADD270R,0.1910X0.0010*%
%ADD271R,0.1880X0.0010*%
%ADD272R,0.1850X0.0010*%
%ADD273R,0.2290X0.0010*%
%ADD274R,0.2300X0.0010*%
%ADD275R,0.2350X0.0010*%
%ADD276R,0.1830X0.0010*%
%ADD277R,0.1800X0.0010*%
%ADD278R,0.1780X0.0010*%
%ADD279R,0.0520X0.0010*%
%ADD280R,0.1750X0.0010*%
%ADD281R,0.1730X0.0010*%
%ADD282R,0.0640X0.0010*%
%ADD283R,0.1720X0.0010*%
%ADD284R,0.1710X0.0010*%
%ADD285R,0.1700X0.0010*%
%ADD286R,0.1680X0.0010*%
%ADD287R,0.0880X0.0010*%
%ADD288R,0.1390X0.0010*%
%ADD289R,0.1580X0.0010*%
%ADD290R,0.4760X0.0010*%
%ADD291R,0.4770X0.0010*%
%ADD292R,0.1650X0.0010*%
%ADD293R,0.1610X0.0010*%
%ADD294R,0.4780X0.0010*%
%ADD295R,0.1510X0.0010*%
%ADD296R,0.1500X0.0010*%
%ADD297R,0.1450X0.0010*%
%ADD298R,0.3810X0.0010*%
%ADD299R,0.3770X0.0010*%
%ADD300R,0.3740X0.0010*%
%ADD301R,0.3700X0.0010*%
%ADD302R,0.3680X0.0010*%
%ADD303R,0.3670X0.0010*%
%ADD304R,0.1420X0.0010*%
%ADD305R,0.3640X0.0010*%
%ADD306R,0.3600X0.0010*%
%ADD307R,0.3590X0.0010*%
%ADD308R,0.1380X0.0010*%
%ADD309R,0.3560X0.0010*%
%ADD310R,0.1370X0.0010*%
%ADD311R,0.3470X0.0010*%
%ADD312R,0.3450X0.0010*%
%ADD313R,0.3440X0.0010*%
%ADD314R,0.3430X0.0010*%
%ADD315R,0.3380X0.0010*%
%ADD316R,0.1320X0.0010*%
%ADD317R,0.3370X0.0010*%
%ADD318R,0.0280X0.0010*%
%ADD319R,0.1290X0.0010*%
%ADD320R,0.1280X0.0010*%
%ADD321R,0.1250X0.0010*%
%ADD322R,0.1240X0.0010*%
%ADD323R,0.2870X0.0010*%
%ADD324R,0.3630X0.0010*%
%ADD325R,0.3760X0.0010*%
%ADD326R,0.3750X0.0010*%
%ADD327R,0.3730X0.0010*%
%ADD328R,0.3720X0.0010*%
%ADD329R,0.3710X0.0010*%
%ADD330R,0.1220X0.0010*%
%ADD331R,0.3690X0.0010*%
%ADD332R,0.1210X0.0010*%
%ADD333R,0.3660X0.0010*%
%ADD334R,0.3650X0.0010*%
%ADD335R,0.1170X0.0010*%
%ADD336R,0.1080X0.0010*%
%ADD337R,0.1070X0.0010*%
%ADD338R,0.3620X0.0010*%
%ADD339R,0.3580X0.0010*%
%ADD340R,0.3570X0.0010*%
%ADD341R,0.3550X0.0010*%
%ADD342R,0.3530X0.0010*%
%ADD343R,0.3520X0.0010*%
%ADD344R,0.3500X0.0010*%
%ADD345R,0.3480X0.0010*%
%ADD346R,0.3460X0.0010*%
%ADD347R,0.3310X0.0010*%
%ADD348R,0.3180X0.0010*%
%ADD349R,0.2800X0.0010*%
%ADD350R,0.2570X0.0010*%
%ADD351R,0.2540X0.0010*%
%ADD352R,0.2500X0.0010*%
%ADD353R,0.2480X0.0010*%
%ADD354R,0.2450X0.0010*%
%ADD355R,0.2400X0.0010*%
%ADD356R,0.2380X0.0010*%
%ADD357R,0.2330X0.0010*%
%ADD358R,0.2270X0.0010*%
%ADD359R,0.2130X0.0010*%
%ADD360R,0.2080X0.0010*%
%ADD361R,0.2370X0.0010*%
%ADD362R,0.2420X0.0010*%
%ADD363R,0.1120X0.0010*%
%ADD364C,0.0120*%
%ADD365C,0.0160*%
%ADD366R,2.1500X0.7480*%
%ADD367C,0.0080*%
D10*
X001725Y000150D02*
X030859Y000150D01*
X029453Y000775D02*
X029455Y000802D01*
X029461Y000829D01*
X029470Y000855D01*
X029483Y000879D01*
X029499Y000902D01*
X029518Y000921D01*
X029540Y000938D01*
X029564Y000952D01*
X029589Y000962D01*
X029616Y000969D01*
X029643Y000972D01*
X029671Y000971D01*
X029698Y000966D01*
X029724Y000958D01*
X029748Y000946D01*
X029771Y000930D01*
X029792Y000912D01*
X029809Y000891D01*
X029824Y000867D01*
X029835Y000842D01*
X029843Y000816D01*
X029847Y000789D01*
X029847Y000761D01*
X029843Y000734D01*
X029835Y000708D01*
X029824Y000683D01*
X029809Y000659D01*
X029792Y000638D01*
X029771Y000620D01*
X029749Y000604D01*
X029724Y000592D01*
X029698Y000584D01*
X029671Y000579D01*
X029643Y000578D01*
X029616Y000581D01*
X029589Y000588D01*
X029564Y000598D01*
X029540Y000612D01*
X029518Y000629D01*
X029499Y000648D01*
X029483Y000671D01*
X029470Y000695D01*
X029461Y000721D01*
X029455Y000748D01*
X029453Y000775D01*
X030859Y000150D02*
X030936Y000152D01*
X031013Y000158D01*
X031090Y000167D01*
X031166Y000180D01*
X031242Y000197D01*
X031316Y000218D01*
X031390Y000242D01*
X031462Y000270D01*
X031532Y000301D01*
X031601Y000336D01*
X031669Y000374D01*
X031734Y000415D01*
X031797Y000460D01*
X031858Y000508D01*
X031917Y000558D01*
X031973Y000611D01*
X032026Y000667D01*
X032076Y000726D01*
X032124Y000787D01*
X032169Y000850D01*
X032210Y000915D01*
X032248Y000983D01*
X032283Y001052D01*
X032314Y001122D01*
X032342Y001194D01*
X032366Y001268D01*
X032387Y001342D01*
X032404Y001418D01*
X032417Y001494D01*
X032426Y001571D01*
X032432Y001648D01*
X032434Y001725D01*
X032433Y001725D02*
X032433Y018260D01*
X032434Y018260D02*
X032432Y018337D01*
X032426Y018414D01*
X032417Y018491D01*
X032404Y018567D01*
X032387Y018643D01*
X032366Y018717D01*
X032342Y018791D01*
X032314Y018863D01*
X032283Y018933D01*
X032248Y019002D01*
X032210Y019070D01*
X032169Y019135D01*
X032124Y019198D01*
X032076Y019259D01*
X032026Y019318D01*
X031973Y019374D01*
X031917Y019427D01*
X031858Y019477D01*
X031797Y019525D01*
X031734Y019570D01*
X031669Y019611D01*
X031601Y019649D01*
X031532Y019684D01*
X031462Y019715D01*
X031390Y019743D01*
X031316Y019767D01*
X031242Y019788D01*
X031166Y019805D01*
X031090Y019818D01*
X031013Y019827D01*
X030936Y019833D01*
X030859Y019835D01*
X001725Y019835D01*
X001648Y019833D01*
X001571Y019827D01*
X001494Y019818D01*
X001418Y019805D01*
X001342Y019788D01*
X001268Y019767D01*
X001194Y019743D01*
X001122Y019715D01*
X001052Y019684D01*
X000983Y019649D01*
X000915Y019611D01*
X000850Y019570D01*
X000787Y019525D01*
X000726Y019477D01*
X000667Y019427D01*
X000611Y019374D01*
X000558Y019318D01*
X000508Y019259D01*
X000460Y019198D01*
X000415Y019135D01*
X000374Y019070D01*
X000336Y019002D01*
X000301Y018933D01*
X000270Y018863D01*
X000242Y018791D01*
X000218Y018717D01*
X000197Y018643D01*
X000180Y018567D01*
X000167Y018491D01*
X000158Y018414D01*
X000152Y018337D01*
X000150Y018260D01*
X000150Y001725D01*
X000152Y001648D01*
X000158Y001571D01*
X000167Y001494D01*
X000180Y001418D01*
X000197Y001342D01*
X000218Y001268D01*
X000242Y001194D01*
X000270Y001122D01*
X000301Y001052D01*
X000336Y000983D01*
X000374Y000915D01*
X000415Y000850D01*
X000460Y000787D01*
X000508Y000726D01*
X000558Y000667D01*
X000611Y000611D01*
X000667Y000558D01*
X000726Y000508D01*
X000787Y000460D01*
X000850Y000415D01*
X000915Y000374D01*
X000983Y000336D01*
X001052Y000301D01*
X001122Y000270D01*
X001194Y000242D01*
X001268Y000218D01*
X001342Y000197D01*
X001418Y000180D01*
X001494Y000167D01*
X001571Y000158D01*
X001648Y000152D01*
X001725Y000150D01*
X012052Y014525D02*
X012054Y014544D01*
X012059Y014563D01*
X012069Y014579D01*
X012081Y014594D01*
X012096Y014606D01*
X012112Y014616D01*
X012131Y014621D01*
X012150Y014623D01*
X012169Y014621D01*
X012188Y014616D01*
X012204Y014606D01*
X012219Y014594D01*
X012231Y014579D01*
X012241Y014563D01*
X012246Y014544D01*
X012248Y014525D01*
X012246Y014506D01*
X012241Y014487D01*
X012231Y014471D01*
X012219Y014456D01*
X012204Y014444D01*
X012188Y014434D01*
X012169Y014429D01*
X012150Y014427D01*
X012131Y014429D01*
X012112Y014434D01*
X012096Y014444D01*
X012081Y014456D01*
X012069Y014471D01*
X012059Y014487D01*
X012054Y014506D01*
X012052Y014525D01*
X013032Y014525D02*
X013034Y014546D01*
X013040Y014566D01*
X013049Y014586D01*
X013061Y014603D01*
X013076Y014617D01*
X013094Y014629D01*
X013114Y014637D01*
X013134Y014642D01*
X013155Y014643D01*
X013176Y014640D01*
X013196Y014634D01*
X013215Y014623D01*
X013232Y014610D01*
X013245Y014594D01*
X013256Y014576D01*
X013264Y014556D01*
X013268Y014536D01*
X013268Y014514D01*
X013264Y014494D01*
X013256Y014474D01*
X013245Y014456D01*
X013232Y014440D01*
X013215Y014427D01*
X013196Y014416D01*
X013176Y014410D01*
X013155Y014407D01*
X013134Y014408D01*
X013114Y014413D01*
X013094Y014421D01*
X013076Y014433D01*
X013061Y014447D01*
X013049Y014464D01*
X013040Y014484D01*
X013034Y014504D01*
X013032Y014525D01*
X014012Y014525D02*
X014014Y014548D01*
X014020Y014571D01*
X014030Y014592D01*
X014043Y014612D01*
X014059Y014629D01*
X014078Y014643D01*
X014099Y014653D01*
X014121Y014660D01*
X014144Y014663D01*
X014168Y014662D01*
X014190Y014657D01*
X014212Y014648D01*
X014232Y014636D01*
X014250Y014620D01*
X014264Y014602D01*
X014276Y014582D01*
X014284Y014560D01*
X014288Y014537D01*
X014288Y014513D01*
X014284Y014490D01*
X014276Y014468D01*
X014264Y014448D01*
X014250Y014430D01*
X014232Y014414D01*
X014212Y014402D01*
X014190Y014393D01*
X014168Y014388D01*
X014144Y014387D01*
X014121Y014390D01*
X014099Y014397D01*
X014078Y014407D01*
X014059Y014421D01*
X014043Y014438D01*
X014030Y014458D01*
X014020Y014479D01*
X014014Y014502D01*
X014012Y014525D01*
X014993Y014525D02*
X014995Y014550D01*
X015001Y014574D01*
X015010Y014596D01*
X015023Y014617D01*
X015039Y014636D01*
X015058Y014652D01*
X015079Y014665D01*
X015101Y014674D01*
X015125Y014680D01*
X015150Y014682D01*
X015175Y014680D01*
X015199Y014674D01*
X015221Y014665D01*
X015242Y014652D01*
X015261Y014636D01*
X015277Y014617D01*
X015290Y014596D01*
X015299Y014574D01*
X015305Y014550D01*
X015307Y014525D01*
X015305Y014500D01*
X015299Y014476D01*
X015290Y014454D01*
X015277Y014433D01*
X015261Y014414D01*
X015242Y014398D01*
X015221Y014385D01*
X015199Y014376D01*
X015175Y014370D01*
X015150Y014368D01*
X015125Y014370D01*
X015101Y014376D01*
X015079Y014385D01*
X015058Y014398D01*
X015039Y014414D01*
X015023Y014433D01*
X015010Y014454D01*
X015001Y014476D01*
X014995Y014500D01*
X014993Y014525D01*
X015973Y014525D02*
X015975Y014551D01*
X015981Y014577D01*
X015991Y014602D01*
X016004Y014625D01*
X016020Y014645D01*
X016040Y014663D01*
X016062Y014678D01*
X016085Y014690D01*
X016111Y014698D01*
X016137Y014702D01*
X016163Y014702D01*
X016189Y014698D01*
X016215Y014690D01*
X016239Y014678D01*
X016260Y014663D01*
X016280Y014645D01*
X016296Y014625D01*
X016309Y014602D01*
X016319Y014577D01*
X016325Y014551D01*
X016327Y014525D01*
X016325Y014499D01*
X016319Y014473D01*
X016309Y014448D01*
X016296Y014425D01*
X016280Y014405D01*
X016260Y014387D01*
X016238Y014372D01*
X016215Y014360D01*
X016189Y014352D01*
X016163Y014348D01*
X016137Y014348D01*
X016111Y014352D01*
X016085Y014360D01*
X016061Y014372D01*
X016040Y014387D01*
X016020Y014405D01*
X016004Y014425D01*
X015991Y014448D01*
X015981Y014473D01*
X015975Y014499D01*
X015973Y014525D01*
X016953Y014525D02*
X016955Y014552D01*
X016961Y014579D01*
X016970Y014605D01*
X016983Y014629D01*
X016999Y014652D01*
X017018Y014671D01*
X017040Y014688D01*
X017064Y014702D01*
X017089Y014712D01*
X017116Y014719D01*
X017143Y014722D01*
X017171Y014721D01*
X017198Y014716D01*
X017224Y014708D01*
X017248Y014696D01*
X017271Y014680D01*
X017292Y014662D01*
X017309Y014641D01*
X017324Y014617D01*
X017335Y014592D01*
X017343Y014566D01*
X017347Y014539D01*
X017347Y014511D01*
X017343Y014484D01*
X017335Y014458D01*
X017324Y014433D01*
X017309Y014409D01*
X017292Y014388D01*
X017271Y014370D01*
X017249Y014354D01*
X017224Y014342D01*
X017198Y014334D01*
X017171Y014329D01*
X017143Y014328D01*
X017116Y014331D01*
X017089Y014338D01*
X017064Y014348D01*
X017040Y014362D01*
X017018Y014379D01*
X016999Y014398D01*
X016983Y014421D01*
X016970Y014445D01*
X016961Y014471D01*
X016955Y014498D01*
X016953Y014525D01*
X017933Y014525D02*
X017935Y014554D01*
X017941Y014582D01*
X017950Y014610D01*
X017963Y014636D01*
X017980Y014659D01*
X017999Y014681D01*
X018021Y014700D01*
X018046Y014715D01*
X018072Y014728D01*
X018100Y014736D01*
X018128Y014741D01*
X018157Y014742D01*
X018186Y014739D01*
X018214Y014732D01*
X018241Y014722D01*
X018267Y014708D01*
X018290Y014691D01*
X018311Y014671D01*
X018329Y014648D01*
X018344Y014623D01*
X018355Y014596D01*
X018363Y014568D01*
X018367Y014539D01*
X018367Y014511D01*
X018363Y014482D01*
X018355Y014454D01*
X018344Y014427D01*
X018329Y014402D01*
X018311Y014379D01*
X018290Y014359D01*
X018267Y014342D01*
X018241Y014328D01*
X018214Y014318D01*
X018186Y014311D01*
X018157Y014308D01*
X018128Y014309D01*
X018100Y014314D01*
X018072Y014322D01*
X018046Y014335D01*
X018021Y014350D01*
X017999Y014369D01*
X017980Y014391D01*
X017963Y014414D01*
X017950Y014440D01*
X017941Y014468D01*
X017935Y014496D01*
X017933Y014525D01*
X018914Y014525D02*
X018916Y014555D01*
X018922Y014585D01*
X018931Y014614D01*
X018944Y014641D01*
X018961Y014666D01*
X018980Y014689D01*
X019003Y014710D01*
X019028Y014727D01*
X019054Y014741D01*
X019083Y014751D01*
X019112Y014758D01*
X019142Y014761D01*
X019173Y014760D01*
X019203Y014755D01*
X019232Y014746D01*
X019259Y014734D01*
X019285Y014719D01*
X019309Y014700D01*
X019330Y014678D01*
X019348Y014654D01*
X019363Y014627D01*
X019374Y014599D01*
X019382Y014570D01*
X019386Y014540D01*
X019386Y014510D01*
X019382Y014480D01*
X019374Y014451D01*
X019363Y014423D01*
X019348Y014396D01*
X019330Y014372D01*
X019309Y014350D01*
X019285Y014331D01*
X019259Y014316D01*
X019232Y014304D01*
X019203Y014295D01*
X019173Y014290D01*
X019142Y014289D01*
X019112Y014292D01*
X019083Y014299D01*
X019054Y014309D01*
X019028Y014323D01*
X019003Y014340D01*
X018980Y014361D01*
X018961Y014384D01*
X018944Y014409D01*
X018931Y014436D01*
X018922Y014465D01*
X018916Y014495D01*
X018914Y014525D01*
X019894Y014525D02*
X019896Y014556D01*
X019902Y014587D01*
X019911Y014617D01*
X019924Y014646D01*
X019941Y014673D01*
X019961Y014697D01*
X019983Y014719D01*
X020009Y014738D01*
X020036Y014754D01*
X020065Y014766D01*
X020095Y014775D01*
X020126Y014780D01*
X020158Y014781D01*
X020189Y014778D01*
X020220Y014771D01*
X020250Y014761D01*
X020278Y014747D01*
X020304Y014729D01*
X020328Y014709D01*
X020349Y014685D01*
X020368Y014660D01*
X020383Y014632D01*
X020394Y014603D01*
X020402Y014572D01*
X020406Y014541D01*
X020406Y014509D01*
X020402Y014478D01*
X020394Y014447D01*
X020383Y014418D01*
X020368Y014390D01*
X020349Y014365D01*
X020328Y014341D01*
X020304Y014321D01*
X020278Y014303D01*
X020250Y014289D01*
X020220Y014279D01*
X020189Y014272D01*
X020158Y014269D01*
X020126Y014270D01*
X020095Y014275D01*
X020065Y014284D01*
X020036Y014296D01*
X020009Y014312D01*
X019983Y014331D01*
X019961Y014353D01*
X019941Y014377D01*
X019924Y014404D01*
X019911Y014433D01*
X019902Y014463D01*
X019896Y014494D01*
X019894Y014525D01*
X021374Y014525D02*
X021376Y014558D01*
X021382Y014590D01*
X021391Y014621D01*
X021404Y014651D01*
X021421Y014679D01*
X021441Y014705D01*
X021464Y014729D01*
X021489Y014749D01*
X021517Y014767D01*
X021546Y014781D01*
X021577Y014791D01*
X021609Y014798D01*
X021642Y014801D01*
X021675Y014800D01*
X021707Y014795D01*
X021738Y014786D01*
X021769Y014774D01*
X021797Y014758D01*
X021824Y014739D01*
X021848Y014717D01*
X021869Y014692D01*
X021888Y014665D01*
X021903Y014636D01*
X021914Y014606D01*
X021922Y014574D01*
X021926Y014541D01*
X021926Y014509D01*
X021922Y014476D01*
X021914Y014444D01*
X021903Y014414D01*
X021888Y014385D01*
X021869Y014358D01*
X021848Y014333D01*
X021824Y014311D01*
X021797Y014292D01*
X021769Y014276D01*
X021738Y014264D01*
X021707Y014255D01*
X021675Y014250D01*
X021642Y014249D01*
X021609Y014252D01*
X021577Y014259D01*
X021546Y014269D01*
X021517Y014283D01*
X021489Y014301D01*
X021464Y014321D01*
X021441Y014345D01*
X021421Y014371D01*
X021404Y014399D01*
X021391Y014429D01*
X021382Y014460D01*
X021376Y014492D01*
X021374Y014525D01*
X022855Y014525D02*
X022857Y014559D01*
X022863Y014593D01*
X022873Y014626D01*
X022886Y014657D01*
X022904Y014687D01*
X022924Y014715D01*
X022948Y014740D01*
X022974Y014762D01*
X023002Y014780D01*
X023033Y014796D01*
X023065Y014808D01*
X023099Y014816D01*
X023133Y014820D01*
X023167Y014820D01*
X023201Y014816D01*
X023235Y014808D01*
X023267Y014796D01*
X023297Y014780D01*
X023326Y014762D01*
X023352Y014740D01*
X023376Y014715D01*
X023396Y014687D01*
X023414Y014657D01*
X023427Y014626D01*
X023437Y014593D01*
X023443Y014559D01*
X023445Y014525D01*
X023443Y014491D01*
X023437Y014457D01*
X023427Y014424D01*
X023414Y014393D01*
X023396Y014363D01*
X023376Y014335D01*
X023352Y014310D01*
X023326Y014288D01*
X023298Y014270D01*
X023267Y014254D01*
X023235Y014242D01*
X023201Y014234D01*
X023167Y014230D01*
X023133Y014230D01*
X023099Y014234D01*
X023065Y014242D01*
X023033Y014254D01*
X023002Y014270D01*
X022974Y014288D01*
X022948Y014310D01*
X022924Y014335D01*
X022904Y014363D01*
X022886Y014393D01*
X022873Y014424D01*
X022863Y014457D01*
X022857Y014491D01*
X022855Y014525D01*
X029453Y002775D02*
X029455Y002802D01*
X029461Y002829D01*
X029470Y002855D01*
X029483Y002879D01*
X029499Y002902D01*
X029518Y002921D01*
X029540Y002938D01*
X029564Y002952D01*
X029589Y002962D01*
X029616Y002969D01*
X029643Y002972D01*
X029671Y002971D01*
X029698Y002966D01*
X029724Y002958D01*
X029748Y002946D01*
X029771Y002930D01*
X029792Y002912D01*
X029809Y002891D01*
X029824Y002867D01*
X029835Y002842D01*
X029843Y002816D01*
X029847Y002789D01*
X029847Y002761D01*
X029843Y002734D01*
X029835Y002708D01*
X029824Y002683D01*
X029809Y002659D01*
X029792Y002638D01*
X029771Y002620D01*
X029749Y002604D01*
X029724Y002592D01*
X029698Y002584D01*
X029671Y002579D01*
X029643Y002578D01*
X029616Y002581D01*
X029589Y002588D01*
X029564Y002598D01*
X029540Y002612D01*
X029518Y002629D01*
X029499Y002648D01*
X029483Y002671D01*
X029470Y002695D01*
X029461Y002721D01*
X029455Y002748D01*
X029453Y002775D01*
D11*
X009044Y016043D03*
X007944Y017513D03*
X007694Y017423D03*
X007674Y017423D03*
X007454Y017503D03*
X007694Y017843D03*
X007154Y018203D03*
X006524Y017963D03*
X005434Y017183D03*
X005414Y017183D03*
X006154Y016603D03*
X005054Y015743D03*
X006574Y014123D03*
X005784Y013673D03*
X005484Y013533D03*
X005124Y013313D03*
X004354Y013393D03*
X003904Y013193D03*
X003214Y012903D03*
X003014Y012903D03*
X002954Y012903D03*
X001654Y013703D03*
X001644Y013693D03*
X001604Y013693D03*
X004874Y013893D03*
X006334Y012963D03*
X006454Y013003D03*
X006544Y013013D03*
X006784Y013013D03*
X005494Y012613D03*
X005074Y011593D03*
X004794Y011453D03*
X003994Y010333D03*
X005544Y008933D03*
X005544Y008883D03*
X005514Y008313D03*
X005554Y008293D03*
X004574Y018333D03*
X004634Y018583D03*
X004784Y018583D03*
X004464Y018573D03*
D12*
X002904Y017693D03*
X001914Y016553D03*
X002244Y016173D03*
X005424Y017193D03*
X005434Y017173D03*
X006054Y017283D03*
X006054Y017293D03*
X006074Y017143D03*
X006524Y017953D03*
X009004Y016043D03*
X009034Y016033D03*
X005314Y013893D03*
X005664Y012993D03*
X003174Y012903D03*
X005554Y008963D03*
X005554Y008943D03*
X005544Y008323D03*
X005544Y008313D03*
D13*
X005539Y008333D03*
X005539Y008863D03*
X005469Y013003D03*
X003949Y013193D03*
X006269Y014283D03*
X006109Y017113D03*
X006049Y017203D03*
X006049Y017223D03*
X006049Y017233D03*
X006049Y017243D03*
X006049Y017253D03*
X006049Y017273D03*
X006659Y017613D03*
X006659Y017623D03*
X006529Y017913D03*
X006529Y017923D03*
X006529Y017933D03*
X001339Y013863D03*
X001339Y013853D03*
X001339Y013843D03*
D14*
X001349Y013833D03*
X003109Y012903D03*
X003419Y012903D03*
X001969Y016723D03*
X004399Y017983D03*
X004399Y017993D03*
X004399Y018003D03*
X004389Y018023D03*
X004389Y018033D03*
X006109Y017103D03*
X006119Y017093D03*
X006659Y017643D03*
X006659Y017653D03*
X006549Y017883D03*
X006539Y017893D03*
X006409Y018473D03*
X005529Y008843D03*
X005529Y008343D03*
D15*
X005524Y008353D03*
X005524Y008363D03*
X005524Y008823D03*
X005524Y008833D03*
X005544Y009033D03*
X005534Y009043D03*
X005554Y012613D03*
X004774Y013333D03*
X005844Y013673D03*
X006694Y013493D03*
X001354Y013823D03*
X001974Y016733D03*
X004384Y018043D03*
X004384Y018053D03*
X004384Y018063D03*
X004384Y018073D03*
X004374Y018093D03*
X006124Y017083D03*
X006664Y017663D03*
X006664Y017673D03*
X006664Y017683D03*
D16*
X006659Y017693D03*
X006659Y017703D03*
X006559Y017863D03*
X006549Y017873D03*
X007689Y017443D03*
X008469Y016383D03*
X006129Y017073D03*
X005309Y017713D03*
X004409Y017953D03*
X004399Y017963D03*
X004399Y017973D03*
X004379Y018083D03*
X001899Y016563D03*
X005519Y008813D03*
X005519Y008373D03*
D17*
X005514Y008383D03*
X005514Y008393D03*
X005514Y008793D03*
X005514Y008803D03*
X005534Y009053D03*
X005534Y009063D03*
X001364Y013813D03*
X006174Y016613D03*
X006654Y017713D03*
X005664Y018103D03*
X005324Y017733D03*
X005324Y017723D03*
X004404Y017933D03*
X004404Y017943D03*
X008474Y016373D03*
X006264Y014273D03*
D18*
X006269Y014263D03*
X006109Y013713D03*
X006109Y013703D03*
X006699Y013503D03*
X008479Y016363D03*
X006659Y017723D03*
X006429Y018463D03*
X005339Y017743D03*
X005299Y017703D03*
X004399Y017923D03*
X004369Y018103D03*
X004369Y018113D03*
X004359Y018123D03*
X001949Y016713D03*
X005529Y009073D03*
X005509Y008783D03*
X005509Y008773D03*
X005509Y008763D03*
X005509Y008753D03*
X005509Y008743D03*
X005509Y008733D03*
X005509Y008723D03*
X005509Y008713D03*
X005509Y008703D03*
X005509Y008693D03*
X005509Y008683D03*
X005509Y008673D03*
X005509Y008663D03*
X005509Y008653D03*
X005509Y008643D03*
X005509Y008633D03*
X005509Y008623D03*
X005509Y008613D03*
X005509Y008603D03*
X005509Y008593D03*
X005509Y008583D03*
X005509Y008573D03*
X005509Y008563D03*
X005509Y008553D03*
X005509Y008543D03*
X005509Y008533D03*
X005509Y008523D03*
X005509Y008513D03*
X005509Y008503D03*
X005509Y008493D03*
X005509Y008473D03*
X005509Y008453D03*
X005509Y008433D03*
X005509Y008423D03*
X005509Y008413D03*
X005509Y008403D03*
D19*
X005504Y008443D03*
X005504Y008463D03*
X005504Y008483D03*
X005524Y009083D03*
X006104Y013693D03*
X006134Y013723D03*
X006144Y013733D03*
X001374Y013793D03*
X001374Y013803D03*
X001944Y016693D03*
X004394Y017903D03*
X004404Y017913D03*
X006654Y017733D03*
X007694Y017453D03*
X008024Y017503D03*
X008024Y017513D03*
D20*
X006654Y017573D03*
X006654Y017593D03*
X006654Y017603D03*
X006524Y017943D03*
X005654Y018113D03*
X006044Y017263D03*
X006054Y017213D03*
X006064Y017173D03*
X006074Y017153D03*
X005154Y015733D03*
X002004Y016763D03*
X005544Y009003D03*
X005544Y008993D03*
X005544Y008983D03*
X005534Y008853D03*
D21*
X005549Y008873D03*
X004649Y011423D03*
X006809Y013003D03*
X004009Y013193D03*
X001329Y013883D03*
X001739Y016603D03*
X001999Y016753D03*
X002899Y017703D03*
X004729Y018593D03*
X006459Y016713D03*
X008069Y017483D03*
X008069Y017493D03*
X009039Y016053D03*
D22*
X008999Y016053D03*
X008989Y016033D03*
X008469Y016393D03*
X007689Y017433D03*
X007399Y017513D03*
X006659Y017563D03*
X006659Y017583D03*
X006059Y017193D03*
X006059Y017183D03*
X006069Y017163D03*
X004739Y018583D03*
X001989Y016743D03*
X001329Y013873D03*
X003419Y012893D03*
X005649Y012613D03*
X005549Y008973D03*
D23*
X005544Y009013D03*
X005544Y009023D03*
X006594Y013013D03*
X006104Y017123D03*
X006094Y017133D03*
X006654Y017633D03*
X006534Y017903D03*
X004394Y018013D03*
D24*
X005279Y017673D03*
X005279Y017663D03*
X005279Y017653D03*
X005269Y017643D03*
X005289Y017683D03*
X005289Y017693D03*
X005349Y017753D03*
X006149Y017063D03*
X006659Y017743D03*
X006649Y017753D03*
X006579Y017853D03*
X001949Y016703D03*
X001889Y016573D03*
X001379Y013783D03*
X005319Y013903D03*
X005519Y009093D03*
D25*
X005524Y009103D03*
X005524Y009113D03*
X004774Y013343D03*
X006274Y014253D03*
X006694Y013513D03*
X008484Y016343D03*
X007684Y017463D03*
X006654Y017763D03*
X006584Y017843D03*
X005374Y017773D03*
X005354Y017763D03*
X005254Y017633D03*
X005254Y017623D03*
X004404Y017893D03*
X004354Y018133D03*
X004354Y018143D03*
X006184Y016623D03*
X001924Y016683D03*
X001384Y013773D03*
X001384Y013763D03*
X001384Y013753D03*
D26*
X006079Y013683D03*
X006159Y013743D03*
X006689Y013533D03*
X006689Y013523D03*
X008479Y016353D03*
X006609Y017813D03*
X006599Y017823D03*
X006589Y017833D03*
X006159Y017053D03*
X005379Y017783D03*
X004349Y018153D03*
X001879Y016583D03*
X005519Y009143D03*
X005519Y009133D03*
X005519Y009123D03*
D27*
X005514Y009153D03*
X005514Y009163D03*
X005324Y013913D03*
X006274Y014243D03*
X008484Y016323D03*
X008484Y016333D03*
X006644Y017773D03*
X006614Y017803D03*
X006444Y018453D03*
X005254Y017613D03*
X004404Y017883D03*
D28*
X004399Y017873D03*
X004399Y017863D03*
X004339Y018163D03*
X005239Y017603D03*
X008489Y016313D03*
X006689Y013543D03*
X003979Y010413D03*
X003949Y010433D03*
X003929Y010453D03*
X005509Y009183D03*
X005509Y009173D03*
X001399Y013733D03*
X001399Y013743D03*
X001879Y016593D03*
X001909Y016663D03*
D29*
X001899Y016653D03*
X004399Y017853D03*
X005229Y017583D03*
X006469Y018433D03*
X008489Y016303D03*
X006279Y014233D03*
X006689Y013563D03*
X005609Y013003D03*
X004789Y013353D03*
X005319Y013923D03*
X003909Y010473D03*
X005509Y009193D03*
D30*
X005504Y009203D03*
X003904Y010483D03*
X003894Y010493D03*
X001414Y013723D03*
X001864Y016603D03*
X001864Y016623D03*
X004324Y018173D03*
X005224Y017563D03*
X006194Y017043D03*
X008494Y016293D03*
D31*
X008489Y016283D03*
X008489Y016273D03*
X008489Y016263D03*
X007689Y017473D03*
X006489Y018413D03*
X005229Y017573D03*
X004389Y017843D03*
X004319Y018183D03*
X001859Y016613D03*
X005499Y009223D03*
X005499Y009213D03*
D32*
X005504Y009233D03*
X003864Y010503D03*
X006584Y013003D03*
X005214Y017543D03*
X005224Y017553D03*
X006494Y018423D03*
D33*
X005484Y017823D03*
X005214Y017533D03*
X006204Y017023D03*
X006214Y016633D03*
X008494Y016223D03*
X006284Y014223D03*
X006284Y014213D03*
X005314Y013933D03*
X005494Y009253D03*
X005494Y009243D03*
D34*
X005494Y009263D03*
X005494Y009273D03*
X006684Y013593D03*
X008494Y016213D03*
X007684Y017483D03*
X006224Y016973D03*
X006224Y016963D03*
X006214Y016643D03*
X005194Y017503D03*
X005204Y017523D03*
X005494Y017833D03*
X005504Y017853D03*
X005574Y017903D03*
X005614Y017943D03*
X006544Y018393D03*
X004384Y017823D03*
X004384Y017813D03*
X001444Y013703D03*
D35*
X005584Y013013D03*
X006674Y013613D03*
X006284Y014193D03*
X008504Y016203D03*
X006234Y016933D03*
X006234Y016953D03*
X005604Y017923D03*
X005604Y017933D03*
X003804Y010573D03*
X005494Y009293D03*
X005494Y009283D03*
D36*
X005494Y009303D03*
X005494Y009313D03*
X003764Y010603D03*
X003764Y010613D03*
X003744Y010633D03*
X003734Y010643D03*
X005574Y013023D03*
X006674Y013623D03*
X006674Y013633D03*
X006294Y014163D03*
X008514Y016163D03*
X006224Y016653D03*
X006244Y016923D03*
X005184Y017473D03*
D37*
X005674Y017963D03*
X005764Y018083D03*
X005764Y018093D03*
X006574Y018383D03*
X006254Y016893D03*
X008524Y016143D03*
X006664Y013653D03*
X003724Y010653D03*
X003704Y010663D03*
X003694Y010673D03*
X005494Y009323D03*
X003724Y018093D03*
X003784Y018133D03*
D38*
X003789Y018143D03*
X003759Y018123D03*
X003759Y018113D03*
X003729Y018083D03*
X003719Y018073D03*
X005179Y017463D03*
X006259Y016883D03*
X006229Y016663D03*
X006599Y018373D03*
X006299Y014153D03*
X003629Y010733D03*
X003639Y010723D03*
X005489Y009333D03*
D39*
X005489Y009343D03*
X003669Y010693D03*
X003659Y010703D03*
X003619Y010743D03*
X005569Y013043D03*
X005569Y013053D03*
X006649Y013663D03*
X006309Y014143D03*
X008539Y016123D03*
X006239Y016673D03*
X006269Y016853D03*
X006269Y016863D03*
X005749Y018053D03*
X005749Y018063D03*
X003819Y018163D03*
X003799Y018153D03*
X003709Y018053D03*
D40*
X003694Y018033D03*
X003684Y018023D03*
X003684Y018013D03*
X003824Y018173D03*
X004664Y018573D03*
X006234Y016683D03*
X005954Y013663D03*
X006644Y013673D03*
X003594Y010753D03*
X005484Y009353D03*
D41*
X005484Y009363D03*
X005484Y009373D03*
X005484Y009383D03*
X003484Y010853D03*
X005554Y013093D03*
X005554Y013113D03*
X006634Y013713D03*
X008564Y016073D03*
X007674Y017503D03*
X006734Y018293D03*
X006664Y018333D03*
X005144Y017403D03*
X006284Y016823D03*
X006294Y016813D03*
X003664Y017973D03*
D42*
X003654Y017963D03*
X005134Y017393D03*
X006294Y016793D03*
X007124Y018073D03*
X005544Y013143D03*
X005544Y013133D03*
X003414Y010923D03*
X003464Y010873D03*
X003474Y010863D03*
X005484Y009393D03*
D43*
X005479Y009403D03*
X003489Y010843D03*
X005559Y013103D03*
X005549Y013123D03*
X005919Y013653D03*
X006319Y014133D03*
X006289Y016803D03*
D44*
X006289Y016783D03*
X008579Y016063D03*
X006619Y013723D03*
X005909Y013643D03*
X005909Y013633D03*
X005899Y013623D03*
X003459Y010883D03*
X003399Y010933D03*
X005489Y009413D03*
X003649Y017953D03*
X004649Y018563D03*
D45*
X003624Y017913D03*
X005104Y017363D03*
X006854Y018213D03*
X007414Y017873D03*
X007434Y017853D03*
X007464Y017833D03*
X007484Y017823D03*
X008604Y016053D03*
X008604Y016043D03*
X006604Y013743D03*
X005524Y013183D03*
X003264Y011063D03*
X003264Y011053D03*
X003284Y011033D03*
X005484Y009423D03*
D46*
X005479Y009433D03*
X003169Y011133D03*
X003149Y011143D03*
X003139Y011163D03*
X005839Y013563D03*
X008629Y016033D03*
X007549Y017773D03*
X007219Y018003D03*
X006979Y018143D03*
X006939Y018163D03*
X006919Y018183D03*
X005089Y017343D03*
D47*
X005079Y017333D03*
X003619Y017873D03*
X007249Y017963D03*
X007619Y017693D03*
X003089Y011193D03*
X003099Y011183D03*
X003149Y011153D03*
X005479Y009443D03*
D48*
X005474Y009453D03*
X005474Y009463D03*
X005504Y013253D03*
X005064Y017313D03*
X003614Y017853D03*
X004244Y018313D03*
X007284Y017933D03*
X007644Y017633D03*
D49*
X007309Y017893D03*
X007309Y017903D03*
X007299Y017913D03*
X007289Y017923D03*
X007279Y017943D03*
X004339Y018373D03*
X004309Y018363D03*
X004289Y018353D03*
X004259Y018333D03*
X004249Y018323D03*
X003619Y017843D03*
X006409Y014103D03*
X003039Y011253D03*
X003009Y011273D03*
X005469Y009473D03*
D50*
X005459Y009483D03*
X002949Y011333D03*
X002929Y011343D03*
X007669Y017593D03*
X004189Y018293D03*
D51*
X007679Y017583D03*
X005769Y013513D03*
X002889Y011383D03*
X002909Y011363D03*
X002909Y011353D03*
X002859Y011413D03*
X005459Y009493D03*
D52*
X005469Y009503D03*
X002849Y011433D03*
X002829Y011443D03*
X002819Y011463D03*
X002809Y011473D03*
X006429Y014053D03*
X008709Y016023D03*
X007689Y017553D03*
X004109Y018243D03*
D53*
X004054Y018193D03*
X008734Y015933D03*
X008734Y015923D03*
X008734Y015913D03*
X006424Y014043D03*
X006484Y013843D03*
X006484Y013833D03*
X006484Y013813D03*
X006474Y013803D03*
X006474Y013783D03*
X006474Y013773D03*
X006474Y013763D03*
X006474Y013753D03*
X005734Y013503D03*
X002584Y011733D03*
X002584Y011723D03*
X002594Y011703D03*
X002604Y011693D03*
X005464Y009513D03*
D54*
X005474Y009523D03*
X002574Y011743D03*
X006474Y013893D03*
X006424Y014023D03*
D55*
X005709Y013493D03*
X002549Y011783D03*
X002539Y011793D03*
X005459Y009533D03*
X008739Y015823D03*
X008749Y015833D03*
X008739Y015843D03*
D56*
X008749Y015803D03*
X008749Y015793D03*
X008749Y015783D03*
X008749Y015773D03*
X008749Y015763D03*
X008749Y015753D03*
X008749Y015743D03*
X008749Y015733D03*
X008759Y015723D03*
X008759Y015713D03*
X008759Y015703D03*
X008759Y015693D03*
X008759Y015683D03*
X008759Y015673D03*
X008769Y015643D03*
X006429Y013983D03*
X006429Y013973D03*
X002519Y011843D03*
X005459Y009553D03*
X005459Y009543D03*
D57*
X005454Y009563D03*
X002484Y011913D03*
X008784Y015593D03*
X008784Y015603D03*
D58*
X008794Y015573D03*
X008794Y015563D03*
X008794Y015553D03*
X008904Y015023D03*
X002464Y011963D03*
X002464Y011953D03*
X002464Y011943D03*
X002454Y011973D03*
X005464Y009573D03*
D59*
X005474Y009583D03*
X002444Y011983D03*
X002444Y011993D03*
X002434Y012003D03*
X008814Y015323D03*
X008824Y015313D03*
X008824Y015303D03*
X008834Y015293D03*
X008834Y015263D03*
X008844Y015243D03*
X008844Y015233D03*
X008854Y015223D03*
X008864Y015203D03*
X008874Y015163D03*
X008874Y015153D03*
X008884Y015123D03*
X008884Y015103D03*
X008894Y015063D03*
X008894Y015043D03*
X008894Y015033D03*
X008904Y014913D03*
X008904Y014873D03*
X008904Y014863D03*
X008904Y014853D03*
X008904Y014843D03*
X008904Y014823D03*
X008904Y014813D03*
X008904Y014803D03*
X008904Y014793D03*
X008904Y014783D03*
X008904Y014743D03*
X008904Y014723D03*
X008904Y014713D03*
X008904Y014703D03*
X008904Y014693D03*
X008904Y014683D03*
X008904Y014663D03*
X008814Y015343D03*
X008804Y015473D03*
X008804Y015483D03*
X008804Y015493D03*
X008804Y015503D03*
X008804Y015513D03*
X008804Y015523D03*
X008804Y015533D03*
D60*
X008889Y014603D03*
X008889Y014593D03*
X008889Y014583D03*
X008889Y014573D03*
X002409Y012073D03*
X002409Y012063D03*
X002399Y012083D03*
X005469Y009593D03*
D61*
X005454Y009603D03*
X002294Y012253D03*
X002274Y012283D03*
X002274Y012293D03*
X002214Y012373D03*
X002214Y012383D03*
X002204Y012393D03*
X002184Y012423D03*
X002134Y012523D03*
X002124Y012573D03*
X008864Y014493D03*
D62*
X008859Y014483D03*
X002289Y012273D03*
X002289Y012263D03*
X002219Y012363D03*
X002199Y012403D03*
X002129Y012533D03*
X002129Y012543D03*
X002129Y012553D03*
X002129Y012563D03*
X002119Y012583D03*
X005459Y009613D03*
D63*
X005459Y009623D03*
X002119Y012623D03*
X002119Y012633D03*
X008849Y014423D03*
X008849Y014433D03*
X008849Y014443D03*
X008849Y014453D03*
D64*
X005454Y009633D03*
D65*
X005464Y009643D03*
X005464Y009653D03*
X002104Y012693D03*
X002104Y012703D03*
X002104Y012713D03*
X008824Y014363D03*
D66*
X008799Y014303D03*
X005459Y009663D03*
D67*
X005454Y009673D03*
X008784Y014283D03*
X003934Y017663D03*
X003934Y017673D03*
D68*
X003944Y017683D03*
X003944Y017703D03*
X003944Y017713D03*
X003944Y017723D03*
X003944Y017733D03*
X005444Y009683D03*
D69*
X005449Y009693D03*
X005449Y009703D03*
X008749Y014143D03*
X008749Y014153D03*
X003839Y017453D03*
D70*
X003844Y017413D03*
X008734Y014113D03*
X008724Y014093D03*
X008724Y014083D03*
X008674Y013883D03*
X008664Y013873D03*
X008644Y013823D03*
X002134Y012823D03*
X005454Y009713D03*
D71*
X005449Y009723D03*
X008629Y013743D03*
X008629Y013753D03*
X008629Y013763D03*
X008689Y013943D03*
X008689Y013953D03*
X008689Y013963D03*
X008689Y013973D03*
X008689Y013983D03*
D72*
X003834Y017363D03*
X003834Y017373D03*
X002144Y012843D03*
X002144Y012833D03*
X005444Y009733D03*
D73*
X005439Y009743D03*
X008609Y013703D03*
X003849Y017333D03*
D74*
X003849Y017313D03*
X008579Y013643D03*
X008579Y013633D03*
X005439Y009753D03*
D75*
X005434Y009763D03*
D76*
X005439Y009773D03*
X002189Y012893D03*
X008549Y013573D03*
D77*
X008534Y013553D03*
X008534Y013543D03*
X008524Y013533D03*
X008524Y013523D03*
X005444Y009783D03*
D78*
X005439Y009793D03*
X008519Y013513D03*
D79*
X005439Y009803D03*
X002209Y012903D03*
D80*
X005434Y009813D03*
X008494Y013483D03*
D81*
X005439Y009823D03*
D82*
X005434Y009833D03*
D83*
X005434Y009843D03*
X008454Y013453D03*
D84*
X005424Y009853D03*
D85*
X005434Y009863D03*
D86*
X005429Y009873D03*
X008389Y013433D03*
D87*
X005424Y009883D03*
D88*
X005429Y009893D03*
D89*
X005429Y009903D03*
X008349Y013403D03*
D90*
X005434Y009913D03*
D91*
X005424Y009923D03*
X008324Y013343D03*
D92*
X008289Y013263D03*
X005419Y009933D03*
D93*
X005424Y009943D03*
X008274Y013243D03*
D94*
X005424Y009953D03*
D95*
X005424Y009963D03*
X005424Y009973D03*
D96*
X005429Y009983D03*
X008199Y013173D03*
X008209Y013183D03*
D97*
X005414Y009993D03*
D98*
X005409Y010003D03*
D99*
X005404Y010013D03*
D100*
X005409Y010023D03*
X008089Y013103D03*
D101*
X005399Y010033D03*
D102*
X005399Y010043D03*
X002479Y012913D03*
D103*
X002484Y012953D03*
X002484Y012963D03*
X002484Y012973D03*
X002484Y012983D03*
X005394Y010063D03*
X005394Y010053D03*
X008054Y013083D03*
X003624Y016643D03*
D104*
X003629Y016633D03*
X003629Y016623D03*
X003629Y016603D03*
X005399Y010073D03*
D105*
X005384Y010083D03*
X002484Y013043D03*
X002484Y013053D03*
X003614Y016543D03*
D106*
X003614Y016513D03*
X003644Y016783D03*
X007994Y013033D03*
X005374Y010093D03*
D107*
X005379Y010103D03*
X003619Y016483D03*
X003619Y016493D03*
X003619Y016503D03*
X003639Y016793D03*
D108*
X003624Y016473D03*
X002514Y013113D03*
X005374Y010113D03*
D109*
X005379Y010123D03*
X002519Y013123D03*
X004269Y017293D03*
D110*
X003624Y016463D03*
X002524Y013143D03*
X002514Y013133D03*
X005384Y010133D03*
D111*
X005384Y010143D03*
X003624Y016453D03*
X003654Y016823D03*
D112*
X003659Y016833D03*
X005389Y010153D03*
D113*
X005379Y010163D03*
X003629Y016433D03*
X003629Y016443D03*
D114*
X005374Y010173D03*
D115*
X005379Y010183D03*
X003679Y016873D03*
D116*
X002579Y013193D03*
X005379Y010193D03*
D117*
X005384Y010203D03*
X003664Y016373D03*
X003724Y016913D03*
X003764Y016953D03*
X003814Y016963D03*
X003834Y016983D03*
X003854Y016993D03*
X003884Y017023D03*
X004244Y017203D03*
D118*
X004044Y017183D03*
X003964Y017123D03*
X003954Y017113D03*
X003944Y017103D03*
X003924Y017073D03*
X003914Y017063D03*
X003914Y017053D03*
X005384Y010213D03*
D119*
X005374Y010223D03*
X004024Y017173D03*
X004064Y017193D03*
D120*
X003689Y016343D03*
X005369Y010233D03*
D121*
X005364Y010243D03*
D122*
X005364Y010253D03*
D123*
X005359Y010263D03*
X005549Y010433D03*
X005569Y010453D03*
X005569Y010463D03*
X003559Y016173D03*
X003579Y016183D03*
X003589Y016193D03*
X003649Y016223D03*
D124*
X003699Y016253D03*
X003499Y016083D03*
X003509Y016063D03*
X003509Y016043D03*
X003509Y016033D03*
X003509Y016023D03*
X003509Y016003D03*
X003509Y015993D03*
X003519Y015983D03*
X003519Y015973D03*
X002709Y013203D03*
X005639Y010553D03*
X005649Y010563D03*
X005629Y010523D03*
X005349Y010283D03*
X005349Y010273D03*
D125*
X005349Y010293D03*
X003529Y015913D03*
X003529Y015923D03*
X003529Y015933D03*
X003529Y015943D03*
X003529Y015953D03*
X003509Y016123D03*
X003519Y016143D03*
X003529Y016153D03*
D126*
X003514Y016133D03*
X003534Y015903D03*
X005664Y010573D03*
X005354Y010313D03*
X005354Y010303D03*
D127*
X005349Y010323D03*
X005349Y010333D03*
X007689Y012963D03*
X007699Y012973D03*
D128*
X005714Y010653D03*
X005344Y010343D03*
X003574Y015823D03*
X003574Y015833D03*
D129*
X002769Y013263D03*
X002759Y013253D03*
X005749Y010703D03*
X005749Y010693D03*
X005349Y010353D03*
D130*
X005354Y010363D03*
X005354Y010373D03*
X005754Y010723D03*
X005764Y010733D03*
X002774Y013273D03*
X002774Y013283D03*
D131*
X002779Y013313D03*
X003629Y015753D03*
X005779Y010763D03*
X005349Y010393D03*
X005349Y010383D03*
D132*
X005344Y010403D03*
X007564Y012863D03*
X007574Y012873D03*
D133*
X005619Y010513D03*
X005579Y010473D03*
X005519Y010413D03*
X003509Y016013D03*
X003629Y016213D03*
X003719Y016273D03*
X003719Y016283D03*
D134*
X003654Y016233D03*
X003594Y016203D03*
X005594Y010483D03*
X005564Y010443D03*
X005534Y010423D03*
D135*
X003964Y010423D03*
X003944Y010443D03*
X003924Y010463D03*
X006684Y013553D03*
X006044Y013673D03*
X001914Y016673D03*
X001884Y016643D03*
X001884Y016633D03*
X005234Y017593D03*
X005414Y017793D03*
X006454Y018443D03*
X006634Y017793D03*
X006634Y017783D03*
D136*
X003724Y016293D03*
X003694Y016243D03*
X003504Y016073D03*
X003504Y016053D03*
X005644Y010543D03*
X005614Y010503D03*
X005604Y010493D03*
D137*
X003859Y010513D03*
X003849Y010523D03*
X001429Y013713D03*
X006679Y013573D03*
X008489Y016243D03*
X008489Y016253D03*
X006199Y017033D03*
X005469Y017803D03*
X005479Y017813D03*
X005539Y017873D03*
X005569Y017893D03*
X004399Y017833D03*
D138*
X003704Y016263D03*
X003534Y016163D03*
X003504Y016113D03*
X003504Y016103D03*
X003494Y016093D03*
X003524Y015963D03*
X007734Y012993D03*
X005634Y010533D03*
D139*
X003839Y010533D03*
X003829Y010543D03*
X003829Y010553D03*
X003819Y010563D03*
X006679Y013583D03*
X006289Y014203D03*
X008489Y016233D03*
X006219Y016983D03*
X006219Y016993D03*
X006219Y017003D03*
X006219Y017013D03*
X005559Y017883D03*
X005529Y017863D03*
X005499Y017843D03*
X006509Y018403D03*
D140*
X005669Y010583D03*
D141*
X003799Y010583D03*
X006679Y013603D03*
X006289Y014173D03*
X006289Y014183D03*
X005319Y013953D03*
X008509Y016173D03*
X008509Y016183D03*
X008509Y016193D03*
X006239Y016943D03*
X005199Y017493D03*
X004369Y017803D03*
X005639Y017953D03*
D142*
X003544Y015893D03*
X003544Y015883D03*
X002724Y013213D03*
X005674Y010593D03*
X007704Y012983D03*
D143*
X006669Y013643D03*
X008519Y016153D03*
X007679Y017493D03*
X006249Y016913D03*
X006249Y016903D03*
X005189Y017483D03*
X003749Y010623D03*
X003779Y010593D03*
D144*
X005684Y010603D03*
X005684Y010613D03*
D145*
X005689Y010623D03*
X005699Y010633D03*
X003559Y015873D03*
D146*
X003569Y015843D03*
X007669Y012943D03*
X005709Y010643D03*
D147*
X005724Y010663D03*
X005724Y010673D03*
X007634Y012913D03*
X002754Y013243D03*
D148*
X003589Y015793D03*
X003589Y015803D03*
X007639Y012923D03*
X005729Y010683D03*
D149*
X003684Y010683D03*
X003654Y010713D03*
X005564Y013033D03*
X004814Y013363D03*
X008534Y016133D03*
X006264Y016873D03*
X005174Y017453D03*
X005684Y017973D03*
X005754Y018073D03*
X003744Y018103D03*
X003704Y018063D03*
X003704Y018043D03*
D150*
X005754Y010713D03*
D151*
X005769Y010743D03*
X007589Y012893D03*
X007599Y012903D03*
X002779Y013293D03*
X003619Y015763D03*
D152*
X003624Y015743D03*
X002784Y013303D03*
X005774Y010753D03*
X007584Y012883D03*
D153*
X005559Y013063D03*
X003549Y010803D03*
X003559Y010793D03*
X003579Y010763D03*
X008549Y016103D03*
X008549Y016113D03*
X006249Y016703D03*
X006269Y016843D03*
X005159Y017433D03*
X005159Y017443D03*
X005709Y017983D03*
X005739Y018043D03*
D154*
X002789Y013323D03*
X005789Y010773D03*
X007559Y012853D03*
D155*
X005554Y013073D03*
X003514Y010833D03*
X003514Y010823D03*
X003534Y010813D03*
X003564Y010783D03*
X003574Y010773D03*
X008554Y016093D03*
X006244Y016693D03*
X006244Y016713D03*
X005714Y017993D03*
X005724Y018003D03*
X005734Y018033D03*
X006634Y018363D03*
X006674Y018323D03*
D156*
X003234Y013793D03*
X003224Y013763D03*
X007544Y012823D03*
X005814Y010823D03*
X005814Y010813D03*
X005804Y010793D03*
X005804Y010783D03*
D157*
X005809Y010803D03*
X007549Y012833D03*
X007549Y012843D03*
X003259Y013843D03*
X003259Y013853D03*
X003249Y013823D03*
X003239Y013813D03*
X003229Y013803D03*
X003229Y013783D03*
X003229Y013773D03*
D158*
X003219Y013753D03*
X003279Y013863D03*
X002799Y013333D03*
X003649Y015733D03*
X005819Y010833D03*
D159*
X005839Y010843D03*
X005849Y010863D03*
D160*
X005844Y010853D03*
X005874Y010893D03*
X007494Y012793D03*
X003304Y013883D03*
X003204Y013733D03*
X002814Y013353D03*
D161*
X002809Y013373D03*
X003199Y013723D03*
X007479Y012753D03*
X007489Y012763D03*
X007489Y012773D03*
X007489Y012783D03*
X005889Y010913D03*
X005879Y010903D03*
X005869Y010883D03*
X005869Y010873D03*
D162*
X003454Y010893D03*
X003434Y010903D03*
X003424Y010913D03*
X005884Y013593D03*
X005894Y013603D03*
X006334Y014123D03*
X006274Y016723D03*
X006284Y016743D03*
X006284Y016753D03*
X006294Y016773D03*
X005124Y017383D03*
X006754Y018283D03*
X006784Y018273D03*
X006784Y018263D03*
X006804Y018253D03*
X006814Y018243D03*
X007074Y018113D03*
X007114Y018093D03*
X007114Y018083D03*
X007144Y018063D03*
D163*
X002814Y013363D03*
X005894Y010923D03*
D164*
X005914Y010933D03*
X005914Y010943D03*
X002824Y013383D03*
D165*
X005539Y013153D03*
X003299Y011013D03*
X003389Y010943D03*
X006279Y016733D03*
X006289Y016763D03*
X007449Y017843D03*
X004639Y018553D03*
X003639Y017943D03*
D166*
X003179Y013713D03*
X006839Y011823D03*
X006899Y011903D03*
X006909Y011913D03*
X007439Y012733D03*
X007449Y012743D03*
X005919Y010953D03*
D167*
X003384Y010953D03*
X003374Y010963D03*
X003344Y010993D03*
X003324Y011003D03*
X005534Y013163D03*
X005874Y013583D03*
X005894Y013613D03*
X006614Y013733D03*
X003634Y017923D03*
X003644Y017933D03*
X006824Y018233D03*
X007044Y018123D03*
X007084Y018103D03*
D168*
X002839Y013393D03*
X005929Y010983D03*
X005929Y010963D03*
X006769Y011753D03*
X006799Y011773D03*
X006809Y011783D03*
X006819Y011793D03*
X006829Y011803D03*
X006919Y011923D03*
X006919Y011933D03*
X006929Y011963D03*
X006929Y011973D03*
X007419Y012703D03*
X007429Y012723D03*
D169*
X006924Y011943D03*
X006894Y011893D03*
X006884Y011883D03*
X006884Y011873D03*
X006884Y011863D03*
X006864Y011853D03*
X006864Y011843D03*
X006854Y011833D03*
X006844Y011813D03*
X006784Y011763D03*
X006764Y011743D03*
X005934Y010993D03*
X005934Y010973D03*
D170*
X003369Y010973D03*
X003359Y010983D03*
X003289Y011023D03*
X003279Y011043D03*
X005529Y013173D03*
X005869Y013573D03*
X005109Y017373D03*
X006829Y018223D03*
X007159Y018053D03*
X007169Y018043D03*
X007429Y017863D03*
X007669Y017513D03*
D171*
X003709Y015723D03*
X007409Y012693D03*
X006939Y011983D03*
X006739Y011733D03*
X005949Y011003D03*
D172*
X005954Y011013D03*
X006664Y011663D03*
X006694Y011673D03*
X006704Y011683D03*
X006724Y011713D03*
X006734Y011723D03*
X006954Y012003D03*
D173*
X006969Y012013D03*
X006969Y012023D03*
X006719Y011703D03*
X006619Y011603D03*
X005969Y011023D03*
X007389Y012673D03*
X007399Y012683D03*
X003719Y015663D03*
X003719Y015673D03*
X003719Y015683D03*
X003719Y015693D03*
X003719Y015703D03*
X003719Y015713D03*
D174*
X003724Y015653D03*
X003724Y015643D03*
X006974Y012033D03*
X006714Y011693D03*
X006654Y011653D03*
X006644Y011643D03*
X006644Y011633D03*
X006614Y011593D03*
X006564Y011583D03*
X006554Y011573D03*
X005974Y011033D03*
D175*
X005969Y011043D03*
X005979Y011053D03*
X006529Y011543D03*
X006539Y011553D03*
X006559Y011563D03*
X006619Y011613D03*
X006639Y011623D03*
X006979Y012043D03*
X006979Y012053D03*
X006979Y012063D03*
X006989Y012073D03*
X007009Y012083D03*
X007039Y012123D03*
X007369Y012663D03*
X003729Y015593D03*
X003729Y015613D03*
X003729Y015623D03*
X003729Y015633D03*
D176*
X003734Y015603D03*
X003734Y015583D03*
X003734Y015573D03*
X003734Y015563D03*
X003734Y015553D03*
X003734Y015543D03*
X003744Y015513D03*
X003404Y013903D03*
X007014Y012093D03*
X007034Y012103D03*
X007034Y012113D03*
X007044Y012133D03*
X007044Y012143D03*
X006524Y011533D03*
X006494Y011513D03*
X005984Y011073D03*
X005984Y011063D03*
D177*
X003244Y011073D03*
X003204Y011093D03*
X003194Y011103D03*
X005524Y013203D03*
X005524Y013213D03*
X005524Y013223D03*
X007504Y017803D03*
X007494Y017813D03*
X007204Y018013D03*
X007194Y018023D03*
X007004Y018133D03*
D178*
X003429Y013923D03*
X007079Y012213D03*
X005999Y011083D03*
D179*
X003209Y011083D03*
X005529Y013193D03*
X007389Y017883D03*
X007189Y018033D03*
X003629Y017903D03*
X003629Y017893D03*
D180*
X003764Y015483D03*
X007084Y012233D03*
X007084Y012223D03*
X007074Y012203D03*
X006434Y011473D03*
X006004Y011093D03*
D181*
X006014Y011103D03*
X006014Y011113D03*
X007094Y012253D03*
X007094Y012263D03*
X007094Y012273D03*
X003444Y013933D03*
X003774Y015463D03*
D182*
X003624Y017883D03*
X006934Y018173D03*
X007534Y017783D03*
X007564Y017763D03*
X007574Y017743D03*
X007584Y017733D03*
X007584Y017723D03*
X007594Y017713D03*
X003174Y011123D03*
X003174Y011113D03*
D183*
X006019Y011123D03*
X006019Y011133D03*
X007099Y012283D03*
X007309Y012623D03*
D184*
X006389Y011453D03*
X006039Y011163D03*
X006029Y011153D03*
X006029Y011143D03*
X003459Y013953D03*
X003789Y015423D03*
D185*
X007119Y012343D03*
X006079Y011223D03*
X006059Y011173D03*
D186*
X003104Y011173D03*
X007614Y017703D03*
X007244Y017973D03*
X007224Y017983D03*
X007224Y017993D03*
X006894Y018193D03*
X004584Y018533D03*
X003614Y017863D03*
D187*
X003814Y015393D03*
X003814Y015383D03*
X003814Y015373D03*
X006094Y011233D03*
X006074Y011203D03*
X006064Y011193D03*
X006064Y011183D03*
D188*
X003084Y011203D03*
X003074Y011223D03*
X005504Y013243D03*
X005824Y013553D03*
X006394Y014113D03*
X005074Y017323D03*
X007264Y017953D03*
X007624Y017683D03*
X007624Y017673D03*
X007634Y017653D03*
D189*
X007119Y012353D03*
X006079Y011213D03*
D190*
X003079Y011213D03*
X003069Y011233D03*
X003059Y011243D03*
X005819Y013543D03*
X007639Y017643D03*
X007629Y017663D03*
X004569Y018523D03*
D191*
X003824Y015363D03*
X003824Y015353D03*
X003824Y015343D03*
X003824Y015333D03*
X003824Y015323D03*
X003824Y015313D03*
X007124Y012363D03*
X006134Y011263D03*
X006114Y011253D03*
X006104Y011243D03*
D192*
X003014Y011263D03*
X003004Y011283D03*
X002994Y011293D03*
X005504Y013263D03*
X005804Y013533D03*
X003644Y017813D03*
X003644Y017823D03*
X003624Y017833D03*
X004214Y018303D03*
X004284Y018343D03*
D193*
X003829Y015303D03*
X003829Y015293D03*
X003829Y015283D03*
X003829Y015273D03*
X003829Y015263D03*
X003829Y015253D03*
X003829Y015243D03*
X003829Y015233D03*
X003829Y015223D03*
X003829Y015213D03*
X003829Y015203D03*
X003829Y015193D03*
X007129Y012393D03*
X007129Y012383D03*
X007129Y012373D03*
X006139Y011283D03*
X006139Y011273D03*
D194*
X006144Y011293D03*
X006144Y011303D03*
X006314Y011433D03*
X003834Y015163D03*
X003834Y015173D03*
X003834Y015183D03*
D195*
X006424Y014093D03*
X002974Y011303D03*
X003654Y017803D03*
X004354Y018383D03*
X004374Y018393D03*
X004384Y018403D03*
X004384Y018413D03*
X004414Y018443D03*
X004534Y018513D03*
D196*
X003839Y015143D03*
X007129Y012403D03*
X006299Y011423D03*
X006149Y011313D03*
D197*
X002979Y011313D03*
X005499Y013273D03*
X007659Y017623D03*
X004519Y018503D03*
X004389Y018423D03*
D198*
X003849Y015123D03*
X003849Y015113D03*
X007119Y012413D03*
X006209Y011353D03*
X006169Y011323D03*
D199*
X002954Y011323D03*
X006424Y014083D03*
X007674Y017603D03*
X007674Y017613D03*
X004484Y018483D03*
X004454Y018463D03*
X004434Y018453D03*
D200*
X003844Y015153D03*
X003844Y015133D03*
X006214Y011373D03*
X006214Y011363D03*
X006184Y011333D03*
D201*
X006194Y011343D03*
X006234Y011383D03*
X006234Y011393D03*
X006254Y011403D03*
X003854Y015083D03*
X003854Y015093D03*
X003854Y015103D03*
D202*
X005774Y013523D03*
X006434Y014073D03*
X002904Y011373D03*
X002874Y011403D03*
X004174Y018283D03*
D203*
X004144Y018273D03*
X004134Y018263D03*
X004124Y018253D03*
X007684Y017573D03*
X007684Y017563D03*
X006424Y014063D03*
X005494Y013303D03*
X002714Y011573D03*
X002704Y011583D03*
X002764Y011513D03*
X002794Y011493D03*
X002854Y011423D03*
X002884Y011393D03*
D204*
X006269Y011413D03*
X007129Y012423D03*
X003859Y015043D03*
X003859Y015053D03*
X003859Y015063D03*
X003859Y015073D03*
D205*
X007274Y012613D03*
X007114Y012333D03*
X006364Y011443D03*
D206*
X005494Y013313D03*
X002724Y011563D03*
X002744Y011543D03*
X002754Y011523D03*
X002774Y011503D03*
X002804Y011483D03*
X002824Y011453D03*
X002684Y011593D03*
X002674Y011603D03*
X002674Y011613D03*
X008714Y016003D03*
X008714Y016013D03*
X007704Y017533D03*
X004094Y018233D03*
D207*
X003784Y015453D03*
X003784Y015443D03*
X003784Y015433D03*
X003454Y013943D03*
X007104Y012303D03*
X007104Y012293D03*
X006404Y011463D03*
D208*
X006439Y011483D03*
X007089Y012243D03*
X007319Y012633D03*
X003769Y015473D03*
D209*
X003754Y015493D03*
X003744Y015503D03*
X003424Y013913D03*
X007074Y012193D03*
X007344Y012643D03*
X007354Y012653D03*
X006454Y011493D03*
D210*
X006489Y011503D03*
X006509Y011523D03*
X007049Y012153D03*
X007059Y012163D03*
X007059Y012173D03*
X007059Y012183D03*
X003739Y015523D03*
X003739Y015533D03*
D211*
X007699Y017543D03*
X007719Y017523D03*
X008719Y015993D03*
X008719Y015983D03*
X008719Y015973D03*
X008719Y015963D03*
X004089Y018223D03*
X002649Y011653D03*
X002659Y011643D03*
X002659Y011623D03*
X002739Y011553D03*
X002749Y011533D03*
D212*
X002664Y011633D03*
X005484Y013323D03*
D213*
X006479Y013793D03*
X006479Y013823D03*
X008729Y015943D03*
X008729Y015953D03*
X004069Y018213D03*
X002609Y011683D03*
X002619Y011673D03*
X002639Y011663D03*
D214*
X002589Y011713D03*
X006479Y013853D03*
X006479Y013863D03*
X006479Y013873D03*
X006479Y013883D03*
X006429Y014033D03*
X008739Y015893D03*
X008739Y015903D03*
X004059Y018203D03*
D215*
X006469Y013903D03*
X002569Y011753D03*
D216*
X002554Y011763D03*
X002544Y011773D03*
X005474Y013333D03*
X006454Y013913D03*
X006454Y013923D03*
X006424Y014003D03*
X006424Y014013D03*
X008744Y015853D03*
X008744Y015863D03*
X008744Y015873D03*
X008744Y015883D03*
D217*
X008744Y015813D03*
X008764Y015663D03*
X008764Y015653D03*
X006424Y013993D03*
X006444Y013943D03*
X006444Y013933D03*
X002524Y011833D03*
X002524Y011823D03*
X002534Y011813D03*
X002534Y011803D03*
D218*
X002514Y011853D03*
X002504Y011863D03*
X002504Y011873D03*
X006434Y013953D03*
X006434Y013963D03*
X008774Y015633D03*
D219*
X008779Y015623D03*
X008779Y015613D03*
X005479Y013343D03*
X002499Y011883D03*
X002489Y011893D03*
X002479Y011903D03*
D220*
X002469Y011923D03*
X002469Y011933D03*
X008789Y015583D03*
D221*
X007424Y012713D03*
X006944Y011993D03*
X006924Y011953D03*
X003354Y013893D03*
X003174Y013703D03*
X003164Y013693D03*
D222*
X002414Y012053D03*
X002414Y012043D03*
X002424Y012023D03*
X002424Y012013D03*
X008894Y014613D03*
D223*
X008899Y014623D03*
X008899Y014633D03*
X008899Y014643D03*
X008899Y014653D03*
X008899Y014673D03*
X008869Y015173D03*
X008869Y015183D03*
X008869Y015193D03*
X008839Y015253D03*
X008839Y015273D03*
X008819Y015333D03*
X008809Y015353D03*
X008809Y015363D03*
X008809Y015373D03*
X008809Y015383D03*
X008809Y015393D03*
X008809Y015403D03*
X008809Y015413D03*
X008809Y015423D03*
X008809Y015433D03*
X008809Y015443D03*
X008809Y015453D03*
X008809Y015463D03*
X002419Y012033D03*
D224*
X002394Y012093D03*
X002164Y012473D03*
X008884Y014553D03*
X008884Y014563D03*
D225*
X008879Y014543D03*
X008879Y014533D03*
X002379Y012123D03*
X002379Y012113D03*
X002379Y012103D03*
X002349Y012163D03*
X002339Y012173D03*
X002339Y012183D03*
X002249Y012323D03*
X002169Y012453D03*
X002169Y012463D03*
D226*
X002174Y012443D03*
X002174Y012433D03*
X002154Y012483D03*
X002144Y012513D03*
X002314Y012243D03*
X002324Y012223D03*
X002334Y012193D03*
X002354Y012153D03*
X002364Y012143D03*
X002364Y012133D03*
X005474Y013363D03*
X008874Y014503D03*
X008874Y014523D03*
D227*
X008869Y014513D03*
X002329Y012213D03*
X002329Y012203D03*
X002319Y012233D03*
X002269Y012303D03*
X002259Y012313D03*
X002239Y012333D03*
X002229Y012343D03*
X002219Y012353D03*
X002189Y012413D03*
X002149Y012493D03*
X002149Y012503D03*
D228*
X003794Y015413D03*
X007104Y012323D03*
X007104Y012313D03*
D229*
X007119Y012433D03*
X003869Y014983D03*
D230*
X003874Y014973D03*
X003874Y014963D03*
X003874Y014953D03*
X003874Y014943D03*
X003874Y014933D03*
X003874Y014923D03*
X007114Y012443D03*
D231*
X007119Y012453D03*
X003879Y014903D03*
X003879Y014913D03*
D232*
X003879Y014893D03*
X007129Y012483D03*
X007129Y012473D03*
X007129Y012463D03*
D233*
X007134Y012493D03*
X003894Y014843D03*
X003894Y014853D03*
X003004Y013653D03*
X003014Y013643D03*
D234*
X003899Y014833D03*
X007129Y012513D03*
X007139Y012503D03*
D235*
X007134Y012523D03*
X007134Y012533D03*
X007134Y012553D03*
X007134Y012563D03*
X007144Y012573D03*
X007154Y012583D03*
X007154Y012593D03*
X003894Y014823D03*
D236*
X003899Y014813D03*
X007159Y012603D03*
X007129Y012543D03*
D237*
X008854Y014463D03*
X008854Y014473D03*
X002114Y012613D03*
X002114Y012603D03*
X002114Y012593D03*
D238*
X002114Y012643D03*
X002114Y012653D03*
X002114Y012663D03*
X008844Y014403D03*
X008844Y014413D03*
D239*
X008839Y014393D03*
X008839Y014383D03*
X002109Y012673D03*
D240*
X002109Y012683D03*
X008829Y014373D03*
D241*
X008819Y014353D03*
X002109Y012723D03*
D242*
X002104Y012733D03*
X008804Y014313D03*
D243*
X008794Y014293D03*
X002104Y012753D03*
X002104Y012743D03*
D244*
X002119Y012763D03*
X002119Y012773D03*
X008779Y014263D03*
X008779Y014273D03*
X003889Y017593D03*
X003889Y017603D03*
X003919Y017643D03*
X003929Y017653D03*
X003939Y017693D03*
D245*
X003949Y017753D03*
X003879Y017583D03*
X003879Y017573D03*
X008769Y014253D03*
X002119Y012793D03*
X002119Y012783D03*
D246*
X002794Y013343D03*
X003214Y013743D03*
X003294Y013873D03*
X007504Y012803D03*
X007514Y012813D03*
D247*
X008759Y014203D03*
X008759Y014213D03*
X003849Y017493D03*
X003859Y017513D03*
X003859Y017523D03*
X003869Y017533D03*
X003869Y017543D03*
X003939Y017773D03*
X003939Y017783D03*
X002129Y012803D03*
D248*
X002124Y012813D03*
X008754Y014163D03*
X008754Y014173D03*
X008754Y014183D03*
X008754Y014193D03*
X003854Y017473D03*
X003854Y017483D03*
X003854Y017503D03*
D249*
X002164Y012863D03*
X002154Y012853D03*
D250*
X002154Y012873D03*
X005284Y013373D03*
X008584Y013653D03*
X008594Y013663D03*
D251*
X008569Y013623D03*
X002169Y012883D03*
D252*
X002484Y012923D03*
D253*
X003579Y015813D03*
X007649Y012933D03*
D254*
X002479Y012933D03*
X002479Y012943D03*
D255*
X002744Y013223D03*
X002744Y013233D03*
X003564Y015853D03*
X003564Y015863D03*
X007674Y012953D03*
D256*
X008044Y013073D03*
X002484Y012993D03*
X003624Y016593D03*
X003624Y016613D03*
X003634Y016653D03*
X003634Y016663D03*
X003634Y016673D03*
X003634Y016683D03*
X003634Y016693D03*
X003634Y016703D03*
X003634Y016713D03*
D257*
X003649Y016813D03*
X004259Y017283D03*
X007939Y013003D03*
D258*
X008024Y013063D03*
X002484Y013023D03*
X002484Y013013D03*
X002484Y013003D03*
X003624Y016573D03*
X003624Y016583D03*
X003644Y016733D03*
X003644Y016743D03*
D259*
X004264Y017263D03*
X004264Y017273D03*
X002534Y013153D03*
X007934Y013013D03*
D260*
X007974Y013023D03*
X002504Y013083D03*
D261*
X002479Y013033D03*
X003619Y016553D03*
X003619Y016563D03*
D262*
X003639Y016753D03*
X003639Y016763D03*
X002489Y013063D03*
X008009Y013053D03*
X008009Y013043D03*
D263*
X002499Y013073D03*
X003619Y016523D03*
D264*
X005149Y017413D03*
X005149Y017423D03*
X005729Y018013D03*
X005729Y018023D03*
X006649Y018343D03*
X006649Y018353D03*
X006689Y018313D03*
X006719Y018303D03*
X006279Y016833D03*
X008559Y016083D03*
X006639Y013703D03*
X006639Y013693D03*
X006639Y013683D03*
X005559Y013083D03*
X003669Y017983D03*
X003669Y017993D03*
X003669Y018003D03*
X003849Y018183D03*
D265*
X008084Y013093D03*
D266*
X002509Y013093D03*
X002509Y013103D03*
X003649Y016803D03*
D267*
X008099Y013113D03*
D268*
X008119Y013123D03*
D269*
X008139Y013133D03*
D270*
X008144Y013143D03*
D271*
X008169Y013153D03*
D272*
X008184Y013163D03*
D273*
X002544Y013163D03*
X004264Y017243D03*
X004274Y017253D03*
D274*
X004269Y017233D03*
X003669Y016863D03*
X003639Y016413D03*
X003639Y016403D03*
X002549Y013173D03*
D275*
X002574Y013183D03*
X003684Y016883D03*
D276*
X008224Y013203D03*
X008224Y013193D03*
D277*
X008239Y013213D03*
X008239Y013223D03*
D278*
X008249Y013233D03*
D279*
X005519Y013233D03*
X005099Y017353D03*
X004599Y018543D03*
X006879Y018203D03*
X006959Y018153D03*
X007529Y017793D03*
X007569Y017753D03*
D280*
X008284Y013253D03*
D281*
X008294Y013273D03*
X008294Y013283D03*
X008294Y013293D03*
X008304Y013303D03*
D282*
X005499Y013293D03*
X005499Y013283D03*
X005039Y017303D03*
X004409Y018433D03*
X004469Y018473D03*
X004519Y018493D03*
D283*
X008309Y013313D03*
D284*
X008314Y013323D03*
D285*
X008319Y013333D03*
D286*
X008329Y013353D03*
X008329Y013363D03*
X008329Y013373D03*
X008329Y013383D03*
X008339Y013393D03*
X008359Y013413D03*
D287*
X008909Y014733D03*
X008909Y014753D03*
X008909Y014763D03*
X008909Y014773D03*
X008899Y014833D03*
X008899Y014883D03*
X008899Y014893D03*
X008899Y014903D03*
X008899Y014923D03*
X008899Y014933D03*
X008899Y014943D03*
X008899Y014953D03*
X008899Y014963D03*
X008899Y014973D03*
X008899Y014983D03*
X008899Y014993D03*
X008899Y015003D03*
X008899Y015013D03*
X008899Y015053D03*
X008889Y015073D03*
X008889Y015083D03*
X008889Y015093D03*
X008889Y015113D03*
X008879Y015133D03*
X008879Y015143D03*
X008859Y015213D03*
X008829Y015283D03*
X008799Y015543D03*
X005469Y013353D03*
D288*
X005304Y013383D03*
X008554Y013583D03*
D289*
X005289Y013393D03*
D290*
X003719Y013403D03*
D291*
X003724Y013413D03*
X003724Y013423D03*
X003724Y013433D03*
D292*
X008374Y013423D03*
D293*
X008404Y013443D03*
D294*
X003719Y013443D03*
X003719Y013453D03*
X003719Y013463D03*
X003719Y013473D03*
X003719Y013483D03*
D295*
X008464Y013463D03*
D296*
X008479Y013473D03*
D297*
X008504Y013493D03*
X008504Y013503D03*
D298*
X003234Y013493D03*
D299*
X003214Y013503D03*
D300*
X003199Y013513D03*
X003819Y014033D03*
D301*
X003839Y014103D03*
X003969Y014503D03*
X003969Y014523D03*
X003959Y014573D03*
X003179Y013533D03*
X003179Y013523D03*
D302*
X003169Y013543D03*
X003849Y014133D03*
X003959Y014473D03*
X003959Y014483D03*
X003949Y014593D03*
X003949Y014613D03*
D303*
X003944Y014623D03*
X003944Y014433D03*
X003944Y014423D03*
X003854Y014143D03*
X003164Y013553D03*
D304*
X008539Y013563D03*
D305*
X003929Y014343D03*
X003929Y014353D03*
X003929Y014373D03*
X003909Y014303D03*
X003909Y014293D03*
X003899Y014283D03*
X003899Y014273D03*
X003709Y013963D03*
X003149Y013563D03*
D306*
X003129Y013573D03*
X003919Y014693D03*
D307*
X003924Y014703D03*
X003114Y013583D03*
D308*
X008559Y013593D03*
D309*
X003099Y013593D03*
D310*
X008564Y013603D03*
X008564Y013613D03*
X003864Y017303D03*
D311*
X003054Y013603D03*
D312*
X003044Y013613D03*
X003904Y014793D03*
D313*
X003899Y014803D03*
X003039Y013623D03*
D314*
X003024Y013633D03*
D315*
X002999Y013663D03*
X003889Y014863D03*
D316*
X003849Y017323D03*
X008599Y013693D03*
X008599Y013683D03*
X008589Y013673D03*
D317*
X003884Y014873D03*
X003884Y014883D03*
X002994Y013683D03*
X003004Y013673D03*
D318*
X001449Y013693D03*
X005319Y013943D03*
X005199Y017513D03*
X005589Y017913D03*
D319*
X003844Y017343D03*
X008614Y013713D03*
D320*
X008619Y013723D03*
X008619Y013733D03*
X003839Y017353D03*
D321*
X003834Y017383D03*
X008714Y014063D03*
X008714Y014053D03*
X008714Y014033D03*
X008704Y014023D03*
X008704Y014013D03*
X008704Y014003D03*
X008704Y013993D03*
X008684Y013933D03*
X008684Y013923D03*
X008644Y013813D03*
X008634Y013803D03*
X008634Y013783D03*
X008634Y013773D03*
D322*
X008639Y013793D03*
X008649Y013833D03*
X008659Y013843D03*
X008659Y013853D03*
X008659Y013863D03*
X008669Y013893D03*
X008679Y013903D03*
X008679Y013913D03*
X008709Y014043D03*
X008719Y014073D03*
X003839Y017393D03*
X003839Y017403D03*
D323*
X003254Y013833D03*
D324*
X003714Y013973D03*
X003934Y014653D03*
X003934Y014663D03*
X003934Y014673D03*
D325*
X003809Y013993D03*
X003789Y013983D03*
D326*
X003814Y014003D03*
X003814Y014013D03*
X003814Y014023D03*
D327*
X003824Y014043D03*
X003824Y014053D03*
X003824Y014063D03*
D328*
X003829Y014073D03*
X003829Y014083D03*
X003969Y014533D03*
X003969Y014543D03*
D329*
X003964Y014553D03*
X003964Y014563D03*
X003964Y014513D03*
X003834Y014093D03*
D330*
X008729Y014103D03*
X003839Y017423D03*
X003839Y017433D03*
X003839Y017443D03*
D331*
X003954Y014603D03*
X003954Y014583D03*
X003964Y014493D03*
X003844Y014123D03*
X003844Y014113D03*
D332*
X008734Y014123D03*
X008734Y014133D03*
X003844Y017463D03*
D333*
X003949Y014633D03*
X003949Y014463D03*
X003949Y014453D03*
X003949Y014443D03*
X003939Y014413D03*
X003939Y014403D03*
X003919Y014323D03*
X003859Y014193D03*
X003859Y014173D03*
X003859Y014163D03*
X003859Y014153D03*
D334*
X003864Y014183D03*
X003864Y014203D03*
X003864Y014213D03*
X003874Y014223D03*
X003884Y014233D03*
X003884Y014243D03*
X003884Y014253D03*
X003894Y014263D03*
X003914Y014313D03*
X003924Y014333D03*
X003924Y014363D03*
X003934Y014383D03*
X003934Y014393D03*
X003944Y014643D03*
D335*
X008764Y014243D03*
X008764Y014233D03*
X008764Y014223D03*
X003874Y017553D03*
X003874Y017563D03*
X003944Y017743D03*
X003944Y017763D03*
X003934Y017793D03*
D336*
X008809Y014323D03*
D337*
X008814Y014333D03*
X008814Y014343D03*
D338*
X003929Y014683D03*
D339*
X003919Y014713D03*
D340*
X003914Y014723D03*
D341*
X003914Y014733D03*
D342*
X003914Y014743D03*
D343*
X003909Y014753D03*
D344*
X003909Y014763D03*
D345*
X003909Y014773D03*
D346*
X003909Y014783D03*
D347*
X003864Y014993D03*
X003864Y015003D03*
X003864Y015013D03*
X003864Y015023D03*
X003864Y015033D03*
D348*
X003799Y015403D03*
D349*
X003609Y015773D03*
X003609Y015783D03*
D350*
X003724Y016303D03*
D351*
X003719Y016313D03*
D352*
X003699Y016323D03*
D353*
X003689Y016333D03*
D354*
X003674Y016353D03*
D355*
X003659Y016363D03*
X003739Y016923D03*
X003739Y016933D03*
X003749Y016943D03*
X003829Y016973D03*
X003859Y017003D03*
X003869Y017013D03*
X003889Y017033D03*
X003899Y017043D03*
X003979Y017133D03*
D356*
X003719Y016903D03*
X003659Y016383D03*
D357*
X003644Y016393D03*
X004254Y017223D03*
D358*
X003654Y016853D03*
X003654Y016843D03*
X003634Y016423D03*
D359*
X003614Y016533D03*
X003634Y016773D03*
D360*
X003639Y016723D03*
D361*
X003694Y016893D03*
X004254Y017213D03*
D362*
X004019Y017163D03*
X003999Y017153D03*
X003999Y017143D03*
X003939Y017093D03*
X003929Y017083D03*
D363*
X003899Y017613D03*
X003909Y017623D03*
X003909Y017633D03*
D364*
X009626Y017183D02*
X010546Y017183D01*
X010546Y018564D01*
X009626Y018564D01*
X010086Y017873D02*
X010546Y017873D01*
X011007Y017413D02*
X011237Y017183D01*
X011697Y017183D01*
X011928Y017413D01*
X011928Y018333D01*
X011697Y018564D01*
X011237Y018564D01*
X011007Y018333D01*
X012388Y018564D02*
X012388Y017183D01*
X013309Y018564D01*
X013309Y017183D01*
X013769Y017183D02*
X014690Y017183D01*
X014690Y018564D01*
X013769Y018564D01*
X014230Y017873D02*
X014690Y017873D01*
X015150Y017873D02*
X015150Y018333D01*
X015381Y018564D01*
X016071Y018564D01*
X016071Y017183D01*
X016532Y017183D02*
X017452Y017183D01*
X017452Y018564D01*
X016532Y018564D01*
X016992Y017873D02*
X017452Y017873D01*
X018373Y017873D02*
X018834Y017873D01*
X018834Y017183D02*
X018834Y018564D01*
X017913Y018564D01*
X019294Y018564D02*
X019294Y017183D01*
X020215Y018564D01*
X020215Y017183D01*
X020675Y017413D02*
X020905Y017183D01*
X021366Y017183D01*
X021596Y017413D01*
X021596Y018333D01*
X021366Y018564D01*
X020905Y018564D01*
X020675Y018333D01*
X020675Y017413D01*
X022056Y017413D02*
X022286Y017183D01*
X022747Y017183D01*
X022977Y017413D01*
X022977Y018333D01*
X022747Y018564D01*
X022286Y018564D01*
X022056Y018333D01*
X024819Y018333D02*
X025049Y018564D01*
X025509Y018564D01*
X025739Y018333D01*
X025739Y018103D01*
X025509Y017873D01*
X025049Y017873D01*
X024819Y017643D01*
X024819Y017413D01*
X025049Y017183D01*
X025509Y017183D01*
X025739Y017413D01*
X026200Y017183D02*
X026200Y018103D01*
X026660Y018564D01*
X027121Y018103D01*
X027121Y017183D01*
X027581Y017183D02*
X027581Y018564D01*
X028502Y018564D02*
X028502Y017183D01*
X028962Y017183D02*
X029653Y017873D01*
X029883Y017643D02*
X028962Y018564D01*
X029883Y018564D02*
X029883Y017183D01*
X030343Y017413D02*
X030343Y018564D01*
X031264Y018564D02*
X031264Y017413D01*
X031034Y017183D01*
X030574Y017183D01*
X030343Y017413D01*
X028502Y017873D02*
X027581Y017873D01*
X027121Y017873D02*
X026200Y017873D01*
X016071Y017643D02*
X015381Y017643D01*
X015150Y017873D01*
X015611Y017643D02*
X015150Y017183D01*
D365*
X024492Y015737D02*
X024492Y015430D01*
X025719Y014203D01*
X024492Y014203D01*
X026333Y014203D02*
X027561Y014203D01*
X026947Y014203D02*
X026947Y016044D01*
X027561Y015430D01*
X028175Y015737D02*
X029403Y014509D01*
X029096Y014203D01*
X028482Y014203D01*
X028175Y014509D01*
X028175Y015737D01*
X028482Y016044D01*
X029096Y016044D01*
X029403Y015737D01*
X029403Y014509D01*
X030016Y014203D02*
X031244Y014203D01*
X030016Y015430D01*
X030016Y015737D01*
X030323Y016044D01*
X030937Y016044D01*
X031244Y015737D01*
X025719Y015737D02*
X025413Y016044D01*
X024799Y016044D01*
X024492Y015737D01*
D366*
X020574Y009796D03*
D367*
X005706Y006592D02*
X005525Y006592D01*
X005403Y006470D01*
X005651Y006470D01*
X005525Y006596D01*
X005525Y006592D02*
X005344Y006592D01*
M02*
