G75*
G70*
%OFA0B0*%
%FSLAX24Y24*%
%IPPOS*%
%LPD*%
%AMOC8*
5,1,8,0,0,1.08239X$1,22.5*
%
%ADD10C,0.0000*%
%ADD11OC8,0.0740*%
%ADD12C,0.0570*%
%ADD13C,0.0860*%
%ADD14C,0.0740*%
%ADD15C,0.0750*%
%ADD16C,0.1050*%
%ADD17R,0.0315X0.0315*%
%ADD18C,0.0240*%
%ADD19C,0.0100*%
%ADD20C,0.0360*%
%ADD21C,0.0356*%
%ADD22C,0.0320*%
D10*
X001725Y000150D02*
X030859Y000150D01*
X029453Y000775D02*
X029455Y000802D01*
X029461Y000829D01*
X029470Y000855D01*
X029483Y000879D01*
X029499Y000902D01*
X029518Y000921D01*
X029540Y000938D01*
X029564Y000952D01*
X029589Y000962D01*
X029616Y000969D01*
X029643Y000972D01*
X029671Y000971D01*
X029698Y000966D01*
X029724Y000958D01*
X029748Y000946D01*
X029771Y000930D01*
X029792Y000912D01*
X029809Y000891D01*
X029824Y000867D01*
X029835Y000842D01*
X029843Y000816D01*
X029847Y000789D01*
X029847Y000761D01*
X029843Y000734D01*
X029835Y000708D01*
X029824Y000683D01*
X029809Y000659D01*
X029792Y000638D01*
X029771Y000620D01*
X029749Y000604D01*
X029724Y000592D01*
X029698Y000584D01*
X029671Y000579D01*
X029643Y000578D01*
X029616Y000581D01*
X029589Y000588D01*
X029564Y000598D01*
X029540Y000612D01*
X029518Y000629D01*
X029499Y000648D01*
X029483Y000671D01*
X029470Y000695D01*
X029461Y000721D01*
X029455Y000748D01*
X029453Y000775D01*
X030859Y000150D02*
X030936Y000152D01*
X031013Y000158D01*
X031090Y000167D01*
X031166Y000180D01*
X031242Y000197D01*
X031316Y000218D01*
X031390Y000242D01*
X031462Y000270D01*
X031532Y000301D01*
X031601Y000336D01*
X031669Y000374D01*
X031734Y000415D01*
X031797Y000460D01*
X031858Y000508D01*
X031917Y000558D01*
X031973Y000611D01*
X032026Y000667D01*
X032076Y000726D01*
X032124Y000787D01*
X032169Y000850D01*
X032210Y000915D01*
X032248Y000983D01*
X032283Y001052D01*
X032314Y001122D01*
X032342Y001194D01*
X032366Y001268D01*
X032387Y001342D01*
X032404Y001418D01*
X032417Y001494D01*
X032426Y001571D01*
X032432Y001648D01*
X032434Y001725D01*
X032433Y001725D02*
X032433Y018260D01*
X032434Y018260D02*
X032432Y018337D01*
X032426Y018414D01*
X032417Y018491D01*
X032404Y018567D01*
X032387Y018643D01*
X032366Y018717D01*
X032342Y018791D01*
X032314Y018863D01*
X032283Y018933D01*
X032248Y019002D01*
X032210Y019070D01*
X032169Y019135D01*
X032124Y019198D01*
X032076Y019259D01*
X032026Y019318D01*
X031973Y019374D01*
X031917Y019427D01*
X031858Y019477D01*
X031797Y019525D01*
X031734Y019570D01*
X031669Y019611D01*
X031601Y019649D01*
X031532Y019684D01*
X031462Y019715D01*
X031390Y019743D01*
X031316Y019767D01*
X031242Y019788D01*
X031166Y019805D01*
X031090Y019818D01*
X031013Y019827D01*
X030936Y019833D01*
X030859Y019835D01*
X001725Y019835D01*
X001648Y019833D01*
X001571Y019827D01*
X001494Y019818D01*
X001418Y019805D01*
X001342Y019788D01*
X001268Y019767D01*
X001194Y019743D01*
X001122Y019715D01*
X001052Y019684D01*
X000983Y019649D01*
X000915Y019611D01*
X000850Y019570D01*
X000787Y019525D01*
X000726Y019477D01*
X000667Y019427D01*
X000611Y019374D01*
X000558Y019318D01*
X000508Y019259D01*
X000460Y019198D01*
X000415Y019135D01*
X000374Y019070D01*
X000336Y019002D01*
X000301Y018933D01*
X000270Y018863D01*
X000242Y018791D01*
X000218Y018717D01*
X000197Y018643D01*
X000180Y018567D01*
X000167Y018491D01*
X000158Y018414D01*
X000152Y018337D01*
X000150Y018260D01*
X000150Y001725D01*
X000152Y001648D01*
X000158Y001571D01*
X000167Y001494D01*
X000180Y001418D01*
X000197Y001342D01*
X000218Y001268D01*
X000242Y001194D01*
X000270Y001122D01*
X000301Y001052D01*
X000336Y000983D01*
X000374Y000915D01*
X000415Y000850D01*
X000460Y000787D01*
X000508Y000726D01*
X000558Y000667D01*
X000611Y000611D01*
X000667Y000558D01*
X000726Y000508D01*
X000787Y000460D01*
X000850Y000415D01*
X000915Y000374D01*
X000983Y000336D01*
X001052Y000301D01*
X001122Y000270D01*
X001194Y000242D01*
X001268Y000218D01*
X001342Y000197D01*
X001418Y000180D01*
X001494Y000167D01*
X001571Y000158D01*
X001648Y000152D01*
X001725Y000150D01*
X012052Y014525D02*
X012054Y014544D01*
X012059Y014563D01*
X012069Y014579D01*
X012081Y014594D01*
X012096Y014606D01*
X012112Y014616D01*
X012131Y014621D01*
X012150Y014623D01*
X012169Y014621D01*
X012188Y014616D01*
X012204Y014606D01*
X012219Y014594D01*
X012231Y014579D01*
X012241Y014563D01*
X012246Y014544D01*
X012248Y014525D01*
X012246Y014506D01*
X012241Y014487D01*
X012231Y014471D01*
X012219Y014456D01*
X012204Y014444D01*
X012188Y014434D01*
X012169Y014429D01*
X012150Y014427D01*
X012131Y014429D01*
X012112Y014434D01*
X012096Y014444D01*
X012081Y014456D01*
X012069Y014471D01*
X012059Y014487D01*
X012054Y014506D01*
X012052Y014525D01*
X013032Y014525D02*
X013034Y014546D01*
X013040Y014566D01*
X013049Y014586D01*
X013061Y014603D01*
X013076Y014617D01*
X013094Y014629D01*
X013114Y014637D01*
X013134Y014642D01*
X013155Y014643D01*
X013176Y014640D01*
X013196Y014634D01*
X013215Y014623D01*
X013232Y014610D01*
X013245Y014594D01*
X013256Y014576D01*
X013264Y014556D01*
X013268Y014536D01*
X013268Y014514D01*
X013264Y014494D01*
X013256Y014474D01*
X013245Y014456D01*
X013232Y014440D01*
X013215Y014427D01*
X013196Y014416D01*
X013176Y014410D01*
X013155Y014407D01*
X013134Y014408D01*
X013114Y014413D01*
X013094Y014421D01*
X013076Y014433D01*
X013061Y014447D01*
X013049Y014464D01*
X013040Y014484D01*
X013034Y014504D01*
X013032Y014525D01*
X014012Y014525D02*
X014014Y014548D01*
X014020Y014571D01*
X014030Y014592D01*
X014043Y014612D01*
X014059Y014629D01*
X014078Y014643D01*
X014099Y014653D01*
X014121Y014660D01*
X014144Y014663D01*
X014168Y014662D01*
X014190Y014657D01*
X014212Y014648D01*
X014232Y014636D01*
X014250Y014620D01*
X014264Y014602D01*
X014276Y014582D01*
X014284Y014560D01*
X014288Y014537D01*
X014288Y014513D01*
X014284Y014490D01*
X014276Y014468D01*
X014264Y014448D01*
X014250Y014430D01*
X014232Y014414D01*
X014212Y014402D01*
X014190Y014393D01*
X014168Y014388D01*
X014144Y014387D01*
X014121Y014390D01*
X014099Y014397D01*
X014078Y014407D01*
X014059Y014421D01*
X014043Y014438D01*
X014030Y014458D01*
X014020Y014479D01*
X014014Y014502D01*
X014012Y014525D01*
X014993Y014525D02*
X014995Y014550D01*
X015001Y014574D01*
X015010Y014596D01*
X015023Y014617D01*
X015039Y014636D01*
X015058Y014652D01*
X015079Y014665D01*
X015101Y014674D01*
X015125Y014680D01*
X015150Y014682D01*
X015175Y014680D01*
X015199Y014674D01*
X015221Y014665D01*
X015242Y014652D01*
X015261Y014636D01*
X015277Y014617D01*
X015290Y014596D01*
X015299Y014574D01*
X015305Y014550D01*
X015307Y014525D01*
X015305Y014500D01*
X015299Y014476D01*
X015290Y014454D01*
X015277Y014433D01*
X015261Y014414D01*
X015242Y014398D01*
X015221Y014385D01*
X015199Y014376D01*
X015175Y014370D01*
X015150Y014368D01*
X015125Y014370D01*
X015101Y014376D01*
X015079Y014385D01*
X015058Y014398D01*
X015039Y014414D01*
X015023Y014433D01*
X015010Y014454D01*
X015001Y014476D01*
X014995Y014500D01*
X014993Y014525D01*
X015973Y014525D02*
X015975Y014551D01*
X015981Y014577D01*
X015991Y014602D01*
X016004Y014625D01*
X016020Y014645D01*
X016040Y014663D01*
X016062Y014678D01*
X016085Y014690D01*
X016111Y014698D01*
X016137Y014702D01*
X016163Y014702D01*
X016189Y014698D01*
X016215Y014690D01*
X016239Y014678D01*
X016260Y014663D01*
X016280Y014645D01*
X016296Y014625D01*
X016309Y014602D01*
X016319Y014577D01*
X016325Y014551D01*
X016327Y014525D01*
X016325Y014499D01*
X016319Y014473D01*
X016309Y014448D01*
X016296Y014425D01*
X016280Y014405D01*
X016260Y014387D01*
X016238Y014372D01*
X016215Y014360D01*
X016189Y014352D01*
X016163Y014348D01*
X016137Y014348D01*
X016111Y014352D01*
X016085Y014360D01*
X016061Y014372D01*
X016040Y014387D01*
X016020Y014405D01*
X016004Y014425D01*
X015991Y014448D01*
X015981Y014473D01*
X015975Y014499D01*
X015973Y014525D01*
X016953Y014525D02*
X016955Y014552D01*
X016961Y014579D01*
X016970Y014605D01*
X016983Y014629D01*
X016999Y014652D01*
X017018Y014671D01*
X017040Y014688D01*
X017064Y014702D01*
X017089Y014712D01*
X017116Y014719D01*
X017143Y014722D01*
X017171Y014721D01*
X017198Y014716D01*
X017224Y014708D01*
X017248Y014696D01*
X017271Y014680D01*
X017292Y014662D01*
X017309Y014641D01*
X017324Y014617D01*
X017335Y014592D01*
X017343Y014566D01*
X017347Y014539D01*
X017347Y014511D01*
X017343Y014484D01*
X017335Y014458D01*
X017324Y014433D01*
X017309Y014409D01*
X017292Y014388D01*
X017271Y014370D01*
X017249Y014354D01*
X017224Y014342D01*
X017198Y014334D01*
X017171Y014329D01*
X017143Y014328D01*
X017116Y014331D01*
X017089Y014338D01*
X017064Y014348D01*
X017040Y014362D01*
X017018Y014379D01*
X016999Y014398D01*
X016983Y014421D01*
X016970Y014445D01*
X016961Y014471D01*
X016955Y014498D01*
X016953Y014525D01*
X017933Y014525D02*
X017935Y014554D01*
X017941Y014582D01*
X017950Y014610D01*
X017963Y014636D01*
X017980Y014659D01*
X017999Y014681D01*
X018021Y014700D01*
X018046Y014715D01*
X018072Y014728D01*
X018100Y014736D01*
X018128Y014741D01*
X018157Y014742D01*
X018186Y014739D01*
X018214Y014732D01*
X018241Y014722D01*
X018267Y014708D01*
X018290Y014691D01*
X018311Y014671D01*
X018329Y014648D01*
X018344Y014623D01*
X018355Y014596D01*
X018363Y014568D01*
X018367Y014539D01*
X018367Y014511D01*
X018363Y014482D01*
X018355Y014454D01*
X018344Y014427D01*
X018329Y014402D01*
X018311Y014379D01*
X018290Y014359D01*
X018267Y014342D01*
X018241Y014328D01*
X018214Y014318D01*
X018186Y014311D01*
X018157Y014308D01*
X018128Y014309D01*
X018100Y014314D01*
X018072Y014322D01*
X018046Y014335D01*
X018021Y014350D01*
X017999Y014369D01*
X017980Y014391D01*
X017963Y014414D01*
X017950Y014440D01*
X017941Y014468D01*
X017935Y014496D01*
X017933Y014525D01*
X018914Y014525D02*
X018916Y014555D01*
X018922Y014585D01*
X018931Y014614D01*
X018944Y014641D01*
X018961Y014666D01*
X018980Y014689D01*
X019003Y014710D01*
X019028Y014727D01*
X019054Y014741D01*
X019083Y014751D01*
X019112Y014758D01*
X019142Y014761D01*
X019173Y014760D01*
X019203Y014755D01*
X019232Y014746D01*
X019259Y014734D01*
X019285Y014719D01*
X019309Y014700D01*
X019330Y014678D01*
X019348Y014654D01*
X019363Y014627D01*
X019374Y014599D01*
X019382Y014570D01*
X019386Y014540D01*
X019386Y014510D01*
X019382Y014480D01*
X019374Y014451D01*
X019363Y014423D01*
X019348Y014396D01*
X019330Y014372D01*
X019309Y014350D01*
X019285Y014331D01*
X019259Y014316D01*
X019232Y014304D01*
X019203Y014295D01*
X019173Y014290D01*
X019142Y014289D01*
X019112Y014292D01*
X019083Y014299D01*
X019054Y014309D01*
X019028Y014323D01*
X019003Y014340D01*
X018980Y014361D01*
X018961Y014384D01*
X018944Y014409D01*
X018931Y014436D01*
X018922Y014465D01*
X018916Y014495D01*
X018914Y014525D01*
X019894Y014525D02*
X019896Y014556D01*
X019902Y014587D01*
X019911Y014617D01*
X019924Y014646D01*
X019941Y014673D01*
X019961Y014697D01*
X019983Y014719D01*
X020009Y014738D01*
X020036Y014754D01*
X020065Y014766D01*
X020095Y014775D01*
X020126Y014780D01*
X020158Y014781D01*
X020189Y014778D01*
X020220Y014771D01*
X020250Y014761D01*
X020278Y014747D01*
X020304Y014729D01*
X020328Y014709D01*
X020349Y014685D01*
X020368Y014660D01*
X020383Y014632D01*
X020394Y014603D01*
X020402Y014572D01*
X020406Y014541D01*
X020406Y014509D01*
X020402Y014478D01*
X020394Y014447D01*
X020383Y014418D01*
X020368Y014390D01*
X020349Y014365D01*
X020328Y014341D01*
X020304Y014321D01*
X020278Y014303D01*
X020250Y014289D01*
X020220Y014279D01*
X020189Y014272D01*
X020158Y014269D01*
X020126Y014270D01*
X020095Y014275D01*
X020065Y014284D01*
X020036Y014296D01*
X020009Y014312D01*
X019983Y014331D01*
X019961Y014353D01*
X019941Y014377D01*
X019924Y014404D01*
X019911Y014433D01*
X019902Y014463D01*
X019896Y014494D01*
X019894Y014525D01*
X021374Y014525D02*
X021376Y014558D01*
X021382Y014590D01*
X021391Y014621D01*
X021404Y014651D01*
X021421Y014679D01*
X021441Y014705D01*
X021464Y014729D01*
X021489Y014749D01*
X021517Y014767D01*
X021546Y014781D01*
X021577Y014791D01*
X021609Y014798D01*
X021642Y014801D01*
X021675Y014800D01*
X021707Y014795D01*
X021738Y014786D01*
X021769Y014774D01*
X021797Y014758D01*
X021824Y014739D01*
X021848Y014717D01*
X021869Y014692D01*
X021888Y014665D01*
X021903Y014636D01*
X021914Y014606D01*
X021922Y014574D01*
X021926Y014541D01*
X021926Y014509D01*
X021922Y014476D01*
X021914Y014444D01*
X021903Y014414D01*
X021888Y014385D01*
X021869Y014358D01*
X021848Y014333D01*
X021824Y014311D01*
X021797Y014292D01*
X021769Y014276D01*
X021738Y014264D01*
X021707Y014255D01*
X021675Y014250D01*
X021642Y014249D01*
X021609Y014252D01*
X021577Y014259D01*
X021546Y014269D01*
X021517Y014283D01*
X021489Y014301D01*
X021464Y014321D01*
X021441Y014345D01*
X021421Y014371D01*
X021404Y014399D01*
X021391Y014429D01*
X021382Y014460D01*
X021376Y014492D01*
X021374Y014525D01*
X022855Y014525D02*
X022857Y014559D01*
X022863Y014593D01*
X022873Y014626D01*
X022886Y014657D01*
X022904Y014687D01*
X022924Y014715D01*
X022948Y014740D01*
X022974Y014762D01*
X023002Y014780D01*
X023033Y014796D01*
X023065Y014808D01*
X023099Y014816D01*
X023133Y014820D01*
X023167Y014820D01*
X023201Y014816D01*
X023235Y014808D01*
X023267Y014796D01*
X023297Y014780D01*
X023326Y014762D01*
X023352Y014740D01*
X023376Y014715D01*
X023396Y014687D01*
X023414Y014657D01*
X023427Y014626D01*
X023437Y014593D01*
X023443Y014559D01*
X023445Y014525D01*
X023443Y014491D01*
X023437Y014457D01*
X023427Y014424D01*
X023414Y014393D01*
X023396Y014363D01*
X023376Y014335D01*
X023352Y014310D01*
X023326Y014288D01*
X023298Y014270D01*
X023267Y014254D01*
X023235Y014242D01*
X023201Y014234D01*
X023167Y014230D01*
X023133Y014230D01*
X023099Y014234D01*
X023065Y014242D01*
X023033Y014254D01*
X023002Y014270D01*
X022974Y014288D01*
X022948Y014310D01*
X022924Y014335D01*
X022904Y014363D01*
X022886Y014393D01*
X022873Y014424D01*
X022863Y014457D01*
X022857Y014491D01*
X022855Y014525D01*
X029453Y002775D02*
X029455Y002802D01*
X029461Y002829D01*
X029470Y002855D01*
X029483Y002879D01*
X029499Y002902D01*
X029518Y002921D01*
X029540Y002938D01*
X029564Y002952D01*
X029589Y002962D01*
X029616Y002969D01*
X029643Y002972D01*
X029671Y002971D01*
X029698Y002966D01*
X029724Y002958D01*
X029748Y002946D01*
X029771Y002930D01*
X029792Y002912D01*
X029809Y002891D01*
X029824Y002867D01*
X029835Y002842D01*
X029843Y002816D01*
X029847Y002789D01*
X029847Y002761D01*
X029843Y002734D01*
X029835Y002708D01*
X029824Y002683D01*
X029809Y002659D01*
X029792Y002638D01*
X029771Y002620D01*
X029749Y002604D01*
X029724Y002592D01*
X029698Y002584D01*
X029671Y002579D01*
X029643Y002578D01*
X029616Y002581D01*
X029589Y002588D01*
X029564Y002598D01*
X029540Y002612D01*
X029518Y002629D01*
X029499Y002648D01*
X029483Y002671D01*
X029470Y002695D01*
X029461Y002721D01*
X029455Y002748D01*
X029453Y002775D01*
D11*
X019775Y004400D03*
X018775Y004400D03*
X017775Y004400D03*
X017775Y005400D03*
X018775Y005400D03*
X019775Y005400D03*
D12*
X028900Y002169D03*
X028900Y001381D03*
D13*
X013150Y005400D03*
X012150Y005400D03*
X011150Y005400D03*
X010150Y005400D03*
X004150Y005400D03*
X003150Y005400D03*
X002150Y005400D03*
D14*
X008900Y001275D03*
X009900Y001275D03*
X010900Y001275D03*
X011900Y001275D03*
X012900Y001275D03*
X013900Y001275D03*
X014900Y001275D03*
X015900Y001275D03*
X016900Y001275D03*
X017900Y001275D03*
X018900Y001275D03*
X019900Y001275D03*
X020900Y001275D03*
X021900Y001275D03*
X022900Y001275D03*
X012900Y003400D03*
X011900Y003400D03*
X010900Y003400D03*
D15*
X003150Y001900D03*
D16*
X002146Y000896D03*
X004154Y000896D03*
X004154Y002904D03*
X002146Y002904D03*
D17*
X005525Y006230D03*
X005525Y006820D03*
D18*
X004400Y005650D02*
X004150Y005400D01*
D19*
X000594Y000857D02*
X000857Y000594D01*
X001180Y000408D01*
X001539Y000312D01*
X001725Y000300D01*
X001829Y000300D01*
X001770Y000334D01*
X001700Y000388D01*
X001638Y000450D01*
X001584Y000520D01*
X001539Y000597D01*
X001506Y000679D01*
X001483Y000764D01*
X001472Y000846D01*
X002096Y000846D01*
X002096Y000946D01*
X001472Y000946D01*
X001483Y001028D01*
X001506Y001114D01*
X001539Y001195D01*
X001584Y001272D01*
X001638Y001342D01*
X001700Y001405D01*
X001770Y001459D01*
X001847Y001503D01*
X001929Y001537D01*
X002014Y001560D01*
X002096Y001570D01*
X002096Y000946D01*
X002196Y000946D01*
X002820Y000946D01*
X002810Y001028D01*
X002787Y001114D01*
X002753Y001195D01*
X002709Y001272D01*
X002655Y001342D01*
X002592Y001405D01*
X002522Y001459D01*
X002445Y001503D01*
X002364Y001537D01*
X002278Y001560D01*
X002196Y001570D01*
X002196Y000946D01*
X002196Y000846D01*
X002820Y000846D01*
X002810Y000764D01*
X002787Y000679D01*
X002753Y000597D01*
X002709Y000520D01*
X002655Y000450D01*
X002592Y000388D01*
X002522Y000334D01*
X002464Y000300D01*
X003836Y000300D01*
X003778Y000334D01*
X003708Y000388D01*
X003645Y000450D01*
X003591Y000520D01*
X003547Y000597D01*
X003513Y000679D01*
X003490Y000764D01*
X003480Y000846D01*
X004104Y000846D01*
X004104Y000946D01*
X003480Y000946D01*
X003490Y001028D01*
X003513Y001114D01*
X003547Y001195D01*
X003591Y001272D01*
X003645Y001342D01*
X003708Y001405D01*
X003778Y001459D01*
X003855Y001503D01*
X003936Y001537D01*
X004022Y001560D01*
X004104Y001570D01*
X004104Y000946D01*
X004204Y000946D01*
X004828Y000946D01*
X004817Y001028D01*
X004794Y001114D01*
X004761Y001195D01*
X004716Y001272D01*
X004662Y001342D01*
X004600Y001405D01*
X004530Y001459D01*
X004453Y001503D01*
X004371Y001537D01*
X004286Y001560D01*
X004204Y001570D01*
X004204Y000946D01*
X004204Y000846D01*
X004828Y000846D01*
X004817Y000764D01*
X004794Y000679D01*
X004761Y000597D01*
X004716Y000520D01*
X004662Y000450D01*
X004600Y000388D01*
X004530Y000334D01*
X004471Y000300D01*
X030859Y000300D01*
X031045Y000312D01*
X031404Y000408D01*
X031726Y000594D01*
X031989Y000857D01*
X032175Y001180D01*
X032175Y001180D01*
X032271Y001539D01*
X032283Y001725D01*
X032283Y018260D01*
X032271Y018446D01*
X032175Y018805D01*
X031989Y019128D01*
X031726Y019391D01*
X031404Y019577D01*
X031045Y019673D01*
X030859Y019685D01*
X001725Y019685D01*
X001539Y019673D01*
X001180Y019577D01*
X000857Y019391D01*
X000594Y019128D01*
X000408Y018805D01*
X000312Y018446D01*
X000300Y018260D01*
X000300Y001725D01*
X000312Y001539D01*
X000408Y001180D01*
X000594Y000857D01*
X000612Y000840D02*
X001473Y000840D01*
X001489Y000741D02*
X000711Y000741D01*
X000809Y000643D02*
X001521Y000643D01*
X001570Y000544D02*
X000945Y000544D01*
X001115Y000446D02*
X001642Y000446D01*
X001753Y000347D02*
X001409Y000347D01*
X002096Y000938D02*
X000548Y000938D01*
X000491Y001037D02*
X001485Y001037D01*
X001514Y001135D02*
X000434Y001135D01*
X000394Y001234D02*
X001561Y001234D01*
X001630Y001332D02*
X000368Y001332D01*
X000341Y001431D02*
X001734Y001431D01*
X001910Y001529D02*
X000315Y001529D01*
X000306Y001628D02*
X002738Y001628D01*
X002739Y001625D02*
X002875Y001489D01*
X003054Y001415D01*
X003246Y001415D01*
X003425Y001489D01*
X003561Y001625D01*
X003635Y001804D01*
X003635Y001996D01*
X003561Y002175D01*
X003425Y002311D01*
X003246Y002385D01*
X003054Y002385D01*
X002875Y002311D01*
X002739Y002175D01*
X002665Y001996D01*
X002665Y001804D01*
X002739Y001625D01*
X002697Y001726D02*
X000300Y001726D01*
X000300Y001825D02*
X002665Y001825D01*
X002665Y001923D02*
X000300Y001923D01*
X000300Y002022D02*
X002675Y002022D01*
X002716Y002120D02*
X000300Y002120D01*
X000300Y002219D02*
X002783Y002219D01*
X002889Y002317D02*
X002480Y002317D01*
X002445Y002297D02*
X002522Y002341D01*
X002592Y002395D01*
X002655Y002458D01*
X002709Y002528D01*
X002753Y002605D01*
X002787Y002686D01*
X002810Y002772D01*
X002820Y002854D01*
X002196Y002854D01*
X002196Y002230D01*
X002278Y002240D01*
X002364Y002263D01*
X002445Y002297D01*
X002612Y002416D02*
X003688Y002416D01*
X003708Y002395D02*
X003778Y002341D01*
X003855Y002297D01*
X003936Y002263D01*
X004022Y002240D01*
X004104Y002230D01*
X004104Y002854D01*
X004204Y002854D01*
X004204Y002954D01*
X004828Y002954D01*
X004817Y003036D01*
X004794Y003121D01*
X004761Y003203D01*
X004716Y003280D01*
X004662Y003350D01*
X004600Y003412D01*
X004530Y003466D01*
X004453Y003511D01*
X004371Y003544D01*
X004286Y003567D01*
X004204Y003578D01*
X004204Y002954D01*
X004104Y002954D01*
X004104Y003578D01*
X004022Y003567D01*
X003936Y003544D01*
X003855Y003511D01*
X003778Y003466D01*
X003708Y003412D01*
X003645Y003350D01*
X003591Y003280D01*
X003547Y003203D01*
X003513Y003121D01*
X003490Y003036D01*
X003480Y002954D01*
X004104Y002954D01*
X004104Y002854D01*
X003480Y002854D01*
X003490Y002772D01*
X003513Y002686D01*
X003547Y002605D01*
X003591Y002528D01*
X003645Y002458D01*
X003708Y002395D01*
X003820Y002317D02*
X003411Y002317D01*
X003517Y002219D02*
X008799Y002219D01*
X008781Y002237D02*
X008862Y002156D01*
X008968Y002112D01*
X009082Y002112D01*
X009188Y002156D01*
X009269Y002237D01*
X009313Y002343D01*
X009313Y002457D01*
X009269Y002563D01*
X009188Y002644D01*
X009082Y002688D01*
X008968Y002688D01*
X008862Y002644D01*
X008781Y002563D01*
X008779Y002560D01*
X008466Y002560D01*
X006087Y004940D01*
X005763Y005997D01*
X005792Y006027D01*
X005792Y006433D01*
X005728Y006497D01*
X005322Y006497D01*
X005258Y006433D01*
X005258Y006027D01*
X005322Y005962D01*
X005439Y005962D01*
X005785Y004831D01*
X005785Y004788D01*
X005804Y004770D01*
X005812Y004745D01*
X005849Y004725D01*
X008240Y002334D01*
X008334Y002240D01*
X008779Y002240D01*
X008781Y002237D01*
X008948Y002120D02*
X003584Y002120D01*
X003625Y002022D02*
X010265Y002022D01*
X010363Y002120D02*
X009102Y002120D01*
X009251Y002219D02*
X010462Y002219D01*
X010546Y002303D02*
X009997Y001754D01*
X009995Y001755D01*
X009805Y001755D01*
X009628Y001682D01*
X009493Y001547D01*
X009492Y001545D01*
X009308Y001545D01*
X009307Y001547D01*
X009172Y001682D01*
X008995Y001755D01*
X008805Y001755D01*
X008628Y001682D01*
X008493Y001547D01*
X008420Y001370D01*
X008420Y001180D01*
X008493Y001003D01*
X008628Y000868D01*
X008805Y000795D01*
X008995Y000795D01*
X009172Y000868D01*
X009307Y001003D01*
X009308Y001005D01*
X009492Y001005D01*
X009493Y001003D01*
X009628Y000868D01*
X009708Y000835D01*
X009747Y000796D01*
X009846Y000755D01*
X009954Y000755D01*
X010053Y000796D01*
X010092Y000835D01*
X010172Y000868D01*
X010307Y001003D01*
X010380Y001180D01*
X010380Y001370D01*
X010379Y001372D01*
X010391Y001384D01*
X010381Y001325D01*
X010850Y001325D01*
X010850Y001794D01*
X010791Y001784D01*
X010887Y001880D01*
X023954Y001880D01*
X024053Y001921D01*
X024129Y001997D01*
X025629Y003497D01*
X025670Y003596D01*
X025670Y005549D01*
X025688Y005593D01*
X025688Y005707D01*
X025644Y005813D01*
X025609Y005848D01*
X025753Y005848D01*
X027108Y004493D01*
X027202Y004399D01*
X027618Y004399D01*
X027807Y004588D01*
X027901Y004682D01*
X027901Y010075D01*
X027807Y010168D01*
X024051Y010168D01*
X024049Y010173D01*
X023968Y010254D01*
X023861Y010298D01*
X023746Y010298D01*
X023639Y010254D01*
X023558Y010173D01*
X023514Y010066D01*
X023514Y009951D01*
X023558Y009844D01*
X023639Y009762D01*
X023746Y009718D01*
X023861Y009718D01*
X023968Y009762D01*
X024049Y009844D01*
X024051Y009848D01*
X027581Y009848D01*
X027581Y005127D01*
X027563Y005144D01*
X027457Y005188D01*
X027360Y005188D01*
X024810Y008085D01*
X024810Y008091D01*
X024767Y008135D01*
X024726Y008180D01*
X024720Y008181D01*
X024716Y008185D01*
X024655Y008185D01*
X024594Y008189D01*
X024590Y008185D01*
X022021Y008185D01*
X022019Y008188D01*
X021938Y008269D01*
X021832Y008313D01*
X021718Y008313D01*
X021612Y008269D01*
X021560Y008217D01*
X021560Y009333D01*
X021612Y009281D01*
X021718Y009237D01*
X021832Y009237D01*
X021938Y009281D01*
X022019Y009362D01*
X022056Y009450D01*
X022176Y009490D01*
X022216Y009490D01*
X022236Y009510D01*
X022263Y009519D01*
X022281Y009555D01*
X022310Y009584D01*
X022310Y009612D01*
X022323Y009638D01*
X022310Y009676D01*
X022310Y011591D01*
X022216Y011685D01*
X021841Y012060D01*
X020459Y012060D01*
X020365Y011966D01*
X019959Y011560D01*
X018521Y011560D01*
X018519Y011563D01*
X018438Y011644D01*
X018332Y011688D01*
X018218Y011688D01*
X018112Y011644D01*
X018031Y011563D01*
X017987Y011457D01*
X017987Y011343D01*
X018031Y011237D01*
X018112Y011156D01*
X018218Y011112D01*
X018332Y011112D01*
X018438Y011156D01*
X018519Y011237D01*
X018521Y011240D01*
X020091Y011240D01*
X020591Y011740D01*
X021709Y011740D01*
X021798Y011650D01*
X021707Y011688D01*
X021593Y011688D01*
X021585Y011685D01*
X020584Y011685D01*
X020490Y011591D01*
X016660Y007762D01*
X016660Y007798D01*
X016616Y007905D01*
X016535Y007986D01*
X016428Y008031D01*
X016313Y008031D01*
X016206Y007986D01*
X016125Y007905D01*
X016123Y007901D01*
X015460Y007901D01*
X013131Y010230D01*
X013133Y010234D01*
X013133Y010349D01*
X013089Y010456D01*
X013007Y010538D01*
X012901Y010582D01*
X012785Y010582D01*
X012679Y010538D01*
X012597Y010456D01*
X012553Y010349D01*
X012553Y010294D01*
X006737Y010294D01*
X006727Y010298D01*
X006612Y010298D01*
X006505Y010254D01*
X006424Y010173D01*
X006380Y010066D01*
X006380Y009951D01*
X006424Y009844D01*
X006505Y009762D01*
X006612Y009718D01*
X006727Y009718D01*
X006834Y009762D01*
X006916Y009844D01*
X006960Y009951D01*
X006960Y009974D01*
X012192Y009974D01*
X012156Y009938D01*
X012112Y009832D01*
X012112Y009718D01*
X012156Y009612D01*
X012237Y009531D01*
X012343Y009487D01*
X012457Y009487D01*
X012461Y009488D01*
X013615Y008334D01*
X013615Y005688D01*
X013608Y005706D01*
X013456Y005858D01*
X013257Y005940D01*
X013043Y005940D01*
X012844Y005858D01*
X012692Y005706D01*
X012671Y005655D01*
X012646Y005704D01*
X012592Y005778D01*
X012528Y005842D01*
X012454Y005896D01*
X012373Y005938D01*
X012286Y005966D01*
X012196Y005980D01*
X012169Y005980D01*
X012169Y005419D01*
X012131Y005419D01*
X012131Y005980D01*
X012104Y005980D01*
X012014Y005966D01*
X011927Y005938D01*
X011846Y005896D01*
X011772Y005842D01*
X011708Y005778D01*
X011654Y005704D01*
X011629Y005655D01*
X011608Y005706D01*
X011456Y005858D01*
X011257Y005940D01*
X011043Y005940D01*
X010844Y005858D01*
X010692Y005706D01*
X010677Y005670D01*
X010623Y005670D01*
X010608Y005706D01*
X010456Y005858D01*
X010257Y005940D01*
X010043Y005940D01*
X009844Y005858D01*
X009692Y005706D01*
X009610Y005507D01*
X009610Y005293D01*
X009692Y005094D01*
X009844Y004942D01*
X010043Y004860D01*
X010257Y004860D01*
X010456Y004942D01*
X010608Y005094D01*
X010623Y005130D01*
X010677Y005130D01*
X010692Y005094D01*
X010844Y004942D01*
X010880Y004927D01*
X010880Y004262D01*
X010747Y004129D01*
X010671Y004053D01*
X010630Y003954D01*
X010630Y003808D01*
X010628Y003807D01*
X010493Y003672D01*
X010420Y003495D01*
X010420Y003305D01*
X010493Y003128D01*
X010628Y002993D01*
X010630Y002992D01*
X010630Y002382D01*
X010622Y002379D01*
X010546Y002303D01*
X010546Y002303D01*
X010560Y002317D02*
X009302Y002317D01*
X009313Y002416D02*
X010630Y002416D01*
X010630Y002514D02*
X009290Y002514D01*
X009220Y002613D02*
X010630Y002613D01*
X010630Y002711D02*
X008315Y002711D01*
X008217Y002810D02*
X010630Y002810D01*
X010630Y002908D02*
X008118Y002908D01*
X008020Y003007D02*
X010615Y003007D01*
X010516Y003105D02*
X007921Y003105D01*
X007823Y003204D02*
X010462Y003204D01*
X010421Y003302D02*
X007724Y003302D01*
X007626Y003401D02*
X010420Y003401D01*
X010421Y003499D02*
X007527Y003499D01*
X007429Y003598D02*
X010462Y003598D01*
X010517Y003696D02*
X007330Y003696D01*
X007232Y003795D02*
X010616Y003795D01*
X010630Y003893D02*
X007133Y003893D01*
X007035Y003992D02*
X010646Y003992D01*
X010708Y004090D02*
X006936Y004090D01*
X006838Y004189D02*
X010807Y004189D01*
X010880Y004287D02*
X006739Y004287D01*
X006641Y004386D02*
X010880Y004386D01*
X010880Y004484D02*
X006542Y004484D01*
X006444Y004583D02*
X010880Y004583D01*
X010880Y004681D02*
X006345Y004681D01*
X006247Y004780D02*
X010880Y004780D01*
X010880Y004878D02*
X010301Y004878D01*
X010490Y004977D02*
X010810Y004977D01*
X010711Y005075D02*
X010589Y005075D01*
X009999Y004878D02*
X006148Y004878D01*
X006075Y004977D02*
X009810Y004977D01*
X009711Y005075D02*
X006045Y005075D01*
X006015Y005174D02*
X009659Y005174D01*
X009619Y005272D02*
X005985Y005272D01*
X005955Y005371D02*
X009610Y005371D01*
X009610Y005469D02*
X005925Y005469D01*
X005895Y005568D02*
X009635Y005568D01*
X009676Y005666D02*
X005865Y005666D01*
X005835Y005765D02*
X009751Y005765D01*
X009857Y005863D02*
X005804Y005863D01*
X005774Y005962D02*
X012001Y005962D01*
X012131Y005962D02*
X012169Y005962D01*
X012169Y005863D02*
X012131Y005863D01*
X012131Y005765D02*
X012169Y005765D01*
X012169Y005666D02*
X012131Y005666D01*
X012131Y005568D02*
X012169Y005568D01*
X012169Y005469D02*
X012131Y005469D01*
X012131Y005381D02*
X012169Y005381D01*
X012169Y004820D01*
X012196Y004820D01*
X012286Y004834D01*
X012373Y004862D01*
X012454Y004904D01*
X012528Y004958D01*
X012592Y005022D01*
X012646Y005096D01*
X012671Y005145D01*
X012692Y005094D01*
X012844Y004942D01*
X013043Y004860D01*
X013257Y004860D01*
X013456Y004942D01*
X013608Y005094D01*
X013615Y005112D01*
X013615Y004716D01*
X013459Y004560D01*
X012084Y004560D01*
X011990Y004466D01*
X011740Y004216D01*
X011740Y003853D01*
X011628Y003807D01*
X011493Y003672D01*
X011420Y003495D01*
X011420Y003305D01*
X011493Y003128D01*
X011628Y002993D01*
X011805Y002920D01*
X011995Y002920D01*
X012172Y002993D01*
X012307Y003128D01*
X012380Y003305D01*
X012380Y003495D01*
X012307Y003672D01*
X012172Y003807D01*
X012060Y003853D01*
X012060Y004084D01*
X012216Y004240D01*
X013591Y004240D01*
X013841Y004490D01*
X013935Y004584D01*
X013935Y008466D01*
X012687Y009714D01*
X012688Y009718D01*
X012688Y009748D01*
X014762Y007674D01*
X014762Y005753D01*
X014855Y005659D01*
X015731Y005659D01*
X013585Y003560D01*
X013584Y003560D01*
X013537Y003514D01*
X013491Y003468D01*
X013491Y003467D01*
X013490Y003466D01*
X013490Y003401D01*
X013489Y003335D01*
X013490Y003335D01*
X013490Y003271D01*
X013487Y003269D01*
X013406Y003188D01*
X013362Y003082D01*
X013362Y002968D01*
X013406Y002862D01*
X013487Y002781D01*
X013593Y002737D01*
X013707Y002737D01*
X013813Y002781D01*
X013894Y002862D01*
X013938Y002968D01*
X013938Y003082D01*
X013894Y003188D01*
X013813Y003269D01*
X013810Y003271D01*
X013810Y003333D01*
X019337Y008739D01*
X019343Y008737D01*
X019457Y008737D01*
X019563Y008781D01*
X019644Y008862D01*
X019688Y008968D01*
X019688Y009082D01*
X019644Y009188D01*
X019614Y009218D01*
X019865Y009218D01*
X019865Y007091D01*
X019400Y006627D01*
X019438Y006718D01*
X019438Y006832D01*
X019394Y006938D01*
X019313Y007019D01*
X019299Y007025D01*
X019313Y007031D01*
X019394Y007112D01*
X019438Y007218D01*
X019438Y007332D01*
X019394Y007438D01*
X019313Y007519D01*
X019207Y007563D01*
X019093Y007563D01*
X018987Y007519D01*
X018906Y007438D01*
X018862Y007332D01*
X018862Y007310D01*
X018209Y007310D01*
X018115Y007216D01*
X015990Y005091D01*
X015990Y004646D01*
X015987Y004644D01*
X015906Y004563D01*
X015862Y004457D01*
X015862Y004343D01*
X015906Y004237D01*
X015987Y004156D01*
X016093Y004112D01*
X016207Y004112D01*
X016313Y004156D01*
X016394Y004237D01*
X016438Y004343D01*
X016438Y004457D01*
X016394Y004563D01*
X016313Y004644D01*
X016310Y004646D01*
X016310Y004959D01*
X018341Y006990D01*
X018874Y006990D01*
X018912Y006977D01*
X018938Y006990D01*
X018958Y006990D01*
X018906Y006938D01*
X018862Y006832D01*
X018862Y006810D01*
X018209Y006810D01*
X018115Y006716D01*
X016490Y005091D01*
X016490Y004271D01*
X016487Y004269D01*
X016406Y004188D01*
X016362Y004082D01*
X016362Y003968D01*
X016406Y003862D01*
X016487Y003781D01*
X016593Y003737D01*
X016707Y003737D01*
X016813Y003781D01*
X016894Y003862D01*
X016938Y003968D01*
X016938Y004082D01*
X016894Y004188D01*
X016813Y004269D01*
X016810Y004271D01*
X016810Y004959D01*
X017295Y005444D01*
X017295Y005201D01*
X017576Y004920D01*
X017974Y004920D01*
X018115Y005061D01*
X018115Y004795D01*
X017990Y004920D01*
X017825Y004920D01*
X017825Y004450D01*
X017725Y004450D01*
X017725Y004920D01*
X017560Y004920D01*
X017255Y004615D01*
X017255Y004450D01*
X017725Y004450D01*
X017725Y004350D01*
X017825Y004350D01*
X017825Y003880D01*
X017990Y003880D01*
X018115Y004005D01*
X018115Y003771D01*
X018112Y003769D01*
X018031Y003688D01*
X017987Y003582D01*
X017987Y003468D01*
X018031Y003362D01*
X018112Y003281D01*
X018218Y003237D01*
X018255Y003237D01*
X017659Y002641D01*
X011905Y002641D01*
X011905Y002664D01*
X011860Y002771D01*
X011779Y002853D01*
X011672Y002897D01*
X011557Y002897D01*
X011450Y002853D01*
X011369Y002771D01*
X011325Y002664D01*
X011325Y002549D01*
X011369Y002442D01*
X011391Y002420D01*
X011170Y002420D01*
X011170Y002992D01*
X011172Y002993D01*
X011307Y003128D01*
X011380Y003305D01*
X011380Y003495D01*
X011307Y003672D01*
X011180Y003798D01*
X011379Y003997D01*
X011420Y004096D01*
X011420Y004927D01*
X011456Y004942D01*
X011608Y005094D01*
X011629Y005145D01*
X011654Y005096D01*
X011708Y005022D01*
X011772Y004958D01*
X011846Y004904D01*
X011927Y004862D01*
X012014Y004834D01*
X012104Y004820D01*
X012131Y004820D01*
X012131Y005381D01*
X012131Y005371D02*
X012169Y005371D01*
X012169Y005272D02*
X012131Y005272D01*
X012131Y005174D02*
X012169Y005174D01*
X012169Y005075D02*
X012131Y005075D01*
X012131Y004977D02*
X012169Y004977D01*
X012169Y004878D02*
X012131Y004878D01*
X011897Y004878D02*
X011420Y004878D01*
X011420Y004780D02*
X013615Y004780D01*
X013615Y004878D02*
X013301Y004878D01*
X013490Y004977D02*
X013615Y004977D01*
X013615Y005075D02*
X013589Y005075D01*
X013935Y005075D02*
X015133Y005075D01*
X015033Y004977D02*
X013935Y004977D01*
X013935Y004878D02*
X014932Y004878D01*
X014831Y004780D02*
X013935Y004780D01*
X013935Y004681D02*
X014731Y004681D01*
X014630Y004583D02*
X013934Y004583D01*
X013835Y004484D02*
X014529Y004484D01*
X014429Y004386D02*
X013737Y004386D01*
X013638Y004287D02*
X014328Y004287D01*
X014227Y004189D02*
X012165Y004189D01*
X012066Y004090D02*
X014127Y004090D01*
X014026Y003992D02*
X012060Y003992D01*
X012060Y003893D02*
X012735Y003893D01*
X012700Y003882D02*
X012627Y003845D01*
X012561Y003797D01*
X012503Y003739D01*
X012455Y003673D01*
X012418Y003600D01*
X012393Y003522D01*
X012381Y003450D01*
X012850Y003450D01*
X012850Y003919D01*
X012778Y003907D01*
X012700Y003882D01*
X012850Y003893D02*
X012950Y003893D01*
X012950Y003919D02*
X012950Y003450D01*
X012850Y003450D01*
X012850Y003350D01*
X012381Y003350D01*
X012393Y003278D01*
X012418Y003200D01*
X012455Y003127D01*
X012503Y003061D01*
X012561Y003003D01*
X012627Y002955D01*
X012700Y002918D01*
X012778Y002893D01*
X012850Y002881D01*
X012850Y003350D01*
X012950Y003350D01*
X012950Y003450D01*
X013419Y003450D01*
X013407Y003522D01*
X013382Y003600D01*
X013345Y003673D01*
X013297Y003739D01*
X013239Y003797D01*
X013173Y003845D01*
X013100Y003882D01*
X013022Y003907D01*
X012950Y003919D01*
X013065Y003893D02*
X013925Y003893D01*
X013824Y003795D02*
X013241Y003795D01*
X013328Y003696D02*
X013724Y003696D01*
X013623Y003598D02*
X013383Y003598D01*
X013411Y003499D02*
X013522Y003499D01*
X013490Y003401D02*
X012950Y003401D01*
X012906Y003394D02*
X012900Y003400D01*
X012906Y003394D02*
X012906Y002670D01*
X016056Y002670D01*
X017756Y004370D01*
X017775Y004400D01*
X017725Y004386D02*
X016810Y004386D01*
X016810Y004484D02*
X017255Y004484D01*
X017255Y004583D02*
X016810Y004583D01*
X016810Y004681D02*
X017321Y004681D01*
X017419Y004780D02*
X016810Y004780D01*
X016810Y004878D02*
X017518Y004878D01*
X017520Y004977D02*
X016828Y004977D01*
X016926Y005075D02*
X017421Y005075D01*
X017323Y005174D02*
X017025Y005174D01*
X017123Y005272D02*
X017295Y005272D01*
X017295Y005371D02*
X017222Y005371D01*
X016966Y005568D02*
X016919Y005568D01*
X016868Y005469D02*
X016820Y005469D01*
X016769Y005371D02*
X016722Y005371D01*
X016671Y005272D02*
X016623Y005272D01*
X016572Y005174D02*
X016525Y005174D01*
X016490Y005075D02*
X016426Y005075D01*
X016490Y004977D02*
X016328Y004977D01*
X016310Y004878D02*
X016490Y004878D01*
X016490Y004780D02*
X016310Y004780D01*
X016310Y004681D02*
X016490Y004681D01*
X016490Y004583D02*
X016375Y004583D01*
X016427Y004484D02*
X016490Y004484D01*
X016490Y004386D02*
X016438Y004386D01*
X016415Y004287D02*
X016490Y004287D01*
X016406Y004189D02*
X016346Y004189D01*
X016365Y004090D02*
X014584Y004090D01*
X014483Y003992D02*
X016362Y003992D01*
X016393Y003893D02*
X014383Y003893D01*
X014282Y003795D02*
X016473Y003795D01*
X016650Y004025D02*
X016650Y005025D01*
X018275Y006650D01*
X019025Y006650D01*
X019150Y006775D01*
X019410Y006651D02*
X019425Y006651D01*
X019438Y006750D02*
X019523Y006750D01*
X019432Y006848D02*
X019622Y006848D01*
X019720Y006947D02*
X019386Y006947D01*
X019327Y007045D02*
X019819Y007045D01*
X019865Y007144D02*
X019407Y007144D01*
X019438Y007242D02*
X019865Y007242D01*
X019865Y007341D02*
X019435Y007341D01*
X019393Y007439D02*
X019865Y007439D01*
X019865Y007538D02*
X019269Y007538D01*
X019031Y007538D02*
X018108Y007538D01*
X018209Y007636D02*
X019865Y007636D01*
X019865Y007735D02*
X018310Y007735D01*
X018410Y007833D02*
X019865Y007833D01*
X019865Y007932D02*
X018511Y007932D01*
X018612Y008030D02*
X019865Y008030D01*
X019865Y008129D02*
X018712Y008129D01*
X018813Y008227D02*
X019865Y008227D01*
X019865Y008326D02*
X018914Y008326D01*
X019014Y008424D02*
X019865Y008424D01*
X019865Y008523D02*
X019115Y008523D01*
X019216Y008621D02*
X019865Y008621D01*
X019865Y008720D02*
X019317Y008720D01*
X019600Y008818D02*
X019865Y008818D01*
X019865Y008917D02*
X019667Y008917D01*
X019688Y009015D02*
X019865Y009015D01*
X019865Y009114D02*
X019675Y009114D01*
X019620Y009212D02*
X019865Y009212D01*
X020025Y009378D02*
X019268Y009378D01*
X015709Y005819D01*
X014922Y005819D01*
X014922Y007741D01*
X012528Y010134D01*
X006796Y010134D01*
X006670Y010008D01*
X006875Y009803D02*
X012112Y009803D01*
X012117Y009705D02*
X000300Y009705D01*
X000300Y009803D02*
X006465Y009803D01*
X006400Y009902D02*
X000300Y009902D01*
X000300Y010000D02*
X006380Y010000D01*
X006393Y010099D02*
X000300Y010099D01*
X000300Y010197D02*
X006448Y010197D01*
X006605Y010296D02*
X000300Y010296D01*
X000300Y010394D02*
X012571Y010394D01*
X012553Y010296D02*
X006734Y010296D01*
X006939Y009902D02*
X012141Y009902D01*
X012400Y009775D02*
X013775Y008400D01*
X013775Y004650D01*
X013525Y004400D01*
X012150Y004400D01*
X011900Y004150D01*
X011900Y003400D01*
X012380Y003401D02*
X012850Y003401D01*
X012850Y003499D02*
X012950Y003499D01*
X012950Y003598D02*
X012850Y003598D01*
X012850Y003696D02*
X012950Y003696D01*
X012950Y003795D02*
X012850Y003795D01*
X012559Y003795D02*
X012184Y003795D01*
X012283Y003696D02*
X012472Y003696D01*
X012417Y003598D02*
X012338Y003598D01*
X012379Y003499D02*
X012389Y003499D01*
X012379Y003302D02*
X012389Y003302D01*
X012417Y003204D02*
X012338Y003204D01*
X012284Y003105D02*
X012472Y003105D01*
X012558Y003007D02*
X012185Y003007D01*
X011822Y002810D02*
X013458Y002810D01*
X013387Y002908D02*
X013069Y002908D01*
X013100Y002918D02*
X013022Y002893D01*
X012950Y002881D01*
X012950Y003350D01*
X013419Y003350D01*
X013407Y003278D01*
X013382Y003200D01*
X013345Y003127D01*
X013297Y003061D01*
X013239Y003003D01*
X013173Y002955D01*
X013100Y002918D01*
X012950Y002908D02*
X012850Y002908D01*
X012850Y003007D02*
X012950Y003007D01*
X012950Y003105D02*
X012850Y003105D01*
X012850Y003204D02*
X012950Y003204D01*
X012950Y003302D02*
X012850Y003302D01*
X013242Y003007D02*
X013362Y003007D01*
X013371Y003105D02*
X013328Y003105D01*
X013383Y003204D02*
X013421Y003204D01*
X013411Y003302D02*
X013490Y003302D01*
X013650Y003400D02*
X013650Y003025D01*
X013913Y002908D02*
X017926Y002908D01*
X018024Y003007D02*
X013938Y003007D01*
X013929Y003105D02*
X018123Y003105D01*
X018221Y003204D02*
X013879Y003204D01*
X013810Y003302D02*
X018091Y003302D01*
X018015Y003401D02*
X013879Y003401D01*
X013980Y003499D02*
X017987Y003499D01*
X017993Y003598D02*
X014081Y003598D01*
X014181Y003696D02*
X018039Y003696D01*
X018115Y003795D02*
X016827Y003795D01*
X016907Y003893D02*
X017547Y003893D01*
X017560Y003880D02*
X017725Y003880D01*
X017725Y004350D01*
X017255Y004350D01*
X017255Y004185D01*
X017560Y003880D01*
X017448Y003992D02*
X016938Y003992D01*
X016935Y004090D02*
X017350Y004090D01*
X017255Y004189D02*
X016894Y004189D01*
X016810Y004287D02*
X017255Y004287D01*
X017725Y004287D02*
X017825Y004287D01*
X017825Y004189D02*
X017725Y004189D01*
X017725Y004090D02*
X017825Y004090D01*
X017825Y003992D02*
X017725Y003992D01*
X017725Y003893D02*
X017825Y003893D01*
X018003Y003893D02*
X018115Y003893D01*
X018102Y003992D02*
X018115Y003992D01*
X017825Y004484D02*
X017725Y004484D01*
X017725Y004583D02*
X017825Y004583D01*
X017825Y004681D02*
X017725Y004681D01*
X017725Y004780D02*
X017825Y004780D01*
X017825Y004878D02*
X017725Y004878D01*
X018032Y004878D02*
X018115Y004878D01*
X018115Y004977D02*
X018030Y004977D01*
X018775Y004400D02*
X018764Y004370D01*
X018764Y003520D01*
X017725Y002481D01*
X011741Y002481D01*
X011615Y002607D01*
X011885Y002711D02*
X017729Y002711D01*
X017827Y002810D02*
X013842Y002810D01*
X013650Y003400D02*
X019400Y009025D01*
X020025Y009378D02*
X020025Y010025D01*
X019900Y010150D01*
X020152Y010296D02*
X021240Y010296D01*
X021240Y010394D02*
X020063Y010394D01*
X019957Y010438D01*
X019843Y010438D01*
X019752Y010400D01*
X020716Y011365D01*
X021362Y011365D01*
X021362Y011343D01*
X021406Y011237D01*
X021487Y011156D01*
X021593Y011112D01*
X021707Y011112D01*
X021813Y011156D01*
X021894Y011237D01*
X021938Y011343D01*
X021938Y011457D01*
X021900Y011548D01*
X021990Y011459D01*
X021990Y009765D01*
X021954Y009753D01*
X021938Y009769D01*
X021832Y009813D01*
X021718Y009813D01*
X021612Y009769D01*
X021560Y009717D01*
X021560Y010709D01*
X021560Y010841D01*
X021437Y010964D01*
X021438Y010968D01*
X021438Y011082D01*
X021394Y011188D01*
X021313Y011269D01*
X021207Y011313D01*
X021093Y011313D01*
X020987Y011269D01*
X020906Y011188D01*
X020862Y011082D01*
X020862Y010968D01*
X020906Y010862D01*
X020987Y010781D01*
X021093Y010737D01*
X021207Y010737D01*
X021211Y010738D01*
X021240Y010709D01*
X021240Y009842D01*
X021188Y009894D01*
X021082Y009938D01*
X020968Y009938D01*
X020862Y009894D01*
X020781Y009813D01*
X020737Y009707D01*
X020737Y009593D01*
X020781Y009487D01*
X020862Y009406D01*
X020865Y009404D01*
X020865Y007716D01*
X020185Y007036D01*
X020185Y010085D01*
X020188Y010093D01*
X020188Y010207D01*
X020144Y010313D01*
X020063Y010394D01*
X019942Y010591D02*
X021240Y010591D01*
X021240Y010493D02*
X019844Y010493D01*
X020041Y010690D02*
X021240Y010690D01*
X021400Y010775D02*
X021150Y011025D01*
X021014Y011281D02*
X020632Y011281D01*
X020533Y011182D02*
X020903Y011182D01*
X020862Y011084D02*
X020435Y011084D01*
X020336Y010985D02*
X020862Y010985D01*
X020896Y010887D02*
X020238Y010887D01*
X020139Y010788D02*
X020980Y010788D01*
X021400Y010775D02*
X021400Y007650D01*
X019775Y006025D01*
X019775Y005400D01*
X020255Y005371D02*
X020490Y005371D01*
X020490Y005469D02*
X020255Y005469D01*
X020255Y005568D02*
X020490Y005568D01*
X020490Y005666D02*
X020188Y005666D01*
X020255Y005599D02*
X019974Y005880D01*
X019935Y005880D01*
X019935Y005959D01*
X021466Y007490D01*
X021487Y007511D01*
X021487Y007468D01*
X021531Y007362D01*
X021612Y007281D01*
X021718Y007237D01*
X021832Y007237D01*
X021836Y007238D01*
X021990Y007084D01*
X021990Y004021D01*
X021987Y004019D01*
X021906Y003938D01*
X021900Y003924D01*
X021894Y003938D01*
X021813Y004019D01*
X021798Y004026D01*
X021697Y006040D01*
X021769Y006112D01*
X021813Y006218D01*
X021813Y006332D01*
X021769Y006438D01*
X021688Y006519D01*
X021582Y006563D01*
X021468Y006563D01*
X021362Y006519D01*
X021281Y006438D01*
X021237Y006332D01*
X021237Y006301D01*
X021207Y006313D01*
X021093Y006313D01*
X020987Y006269D01*
X020906Y006188D01*
X020900Y006174D01*
X020894Y006188D01*
X020813Y006269D01*
X020707Y006313D01*
X020593Y006313D01*
X020487Y006269D01*
X020406Y006188D01*
X020362Y006082D01*
X020362Y005968D01*
X020406Y005862D01*
X020487Y005781D01*
X020490Y005779D01*
X020490Y004021D01*
X020487Y004019D01*
X020407Y003940D01*
X020396Y003968D01*
X020314Y004049D01*
X020208Y004094D01*
X020147Y004094D01*
X020255Y004201D01*
X020255Y004599D01*
X019974Y004880D01*
X019576Y004880D01*
X019295Y004599D01*
X019295Y004201D01*
X019576Y003920D01*
X019615Y003920D01*
X019615Y002420D01*
X017890Y002420D01*
X018830Y003360D01*
X018924Y003454D01*
X018924Y003920D01*
X018974Y003920D01*
X019255Y004201D01*
X019255Y004599D01*
X019228Y004626D01*
X019435Y004834D01*
X019435Y005061D01*
X019576Y004920D01*
X019974Y004920D01*
X020255Y005201D01*
X020255Y005599D01*
X020089Y005765D02*
X020490Y005765D01*
X020405Y005863D02*
X019991Y005863D01*
X019938Y005962D02*
X020364Y005962D01*
X020362Y006060D02*
X020036Y006060D01*
X020135Y006159D02*
X020393Y006159D01*
X020475Y006257D02*
X020233Y006257D01*
X020332Y006356D02*
X021247Y006356D01*
X021297Y006454D02*
X020430Y006454D01*
X020529Y006553D02*
X021442Y006553D01*
X021608Y006553D02*
X021990Y006553D01*
X021990Y006651D02*
X020627Y006651D01*
X020726Y006750D02*
X021990Y006750D01*
X021990Y006848D02*
X020824Y006848D01*
X020923Y006947D02*
X021990Y006947D01*
X021990Y007045D02*
X021021Y007045D01*
X021120Y007144D02*
X021930Y007144D01*
X022150Y007150D02*
X021775Y007525D01*
X022041Y007636D02*
X022722Y007636D01*
X022726Y007640D02*
X022644Y007558D01*
X022626Y007513D01*
X022573Y007460D01*
X022573Y003933D01*
X022438Y003798D01*
X022438Y003832D01*
X022394Y003938D01*
X022313Y004019D01*
X022310Y004021D01*
X022310Y007216D01*
X022062Y007464D01*
X022063Y007468D01*
X022063Y007582D01*
X022019Y007688D01*
X021938Y007769D01*
X021924Y007775D01*
X021938Y007781D01*
X022019Y007862D01*
X022021Y007865D01*
X024578Y007865D01*
X027120Y004976D01*
X027112Y004957D01*
X027112Y004942D01*
X025886Y006168D01*
X023429Y006168D01*
X023367Y006230D01*
X023369Y006234D01*
X023369Y006349D01*
X023325Y006456D01*
X023243Y006538D01*
X023137Y006582D01*
X023021Y006582D01*
X022915Y006538D01*
X022893Y006515D01*
X022893Y007104D01*
X022948Y007104D01*
X023054Y007148D01*
X023136Y007230D01*
X023180Y007336D01*
X023180Y007452D01*
X023136Y007558D01*
X023054Y007640D01*
X022948Y007684D01*
X022832Y007684D01*
X022726Y007640D01*
X022636Y007538D02*
X022063Y007538D01*
X022087Y007439D02*
X022573Y007439D01*
X022573Y007341D02*
X022186Y007341D01*
X022284Y007242D02*
X022573Y007242D01*
X022573Y007144D02*
X022310Y007144D01*
X022310Y007045D02*
X022573Y007045D01*
X022573Y006947D02*
X022310Y006947D01*
X022310Y006848D02*
X022573Y006848D01*
X022573Y006750D02*
X022310Y006750D01*
X022310Y006651D02*
X022573Y006651D01*
X022573Y006553D02*
X022310Y006553D01*
X022310Y006454D02*
X022573Y006454D01*
X022573Y006356D02*
X022310Y006356D01*
X022310Y006257D02*
X022573Y006257D01*
X022573Y006159D02*
X022310Y006159D01*
X022310Y006060D02*
X022573Y006060D01*
X022573Y005962D02*
X022310Y005962D01*
X022310Y005863D02*
X022573Y005863D01*
X022573Y005765D02*
X022310Y005765D01*
X022310Y005666D02*
X022573Y005666D01*
X022573Y005568D02*
X022310Y005568D01*
X022310Y005469D02*
X022573Y005469D01*
X022573Y005371D02*
X022310Y005371D01*
X022310Y005272D02*
X022573Y005272D01*
X022573Y005174D02*
X022310Y005174D01*
X022310Y005075D02*
X022573Y005075D01*
X022573Y004977D02*
X022310Y004977D01*
X022310Y004878D02*
X022573Y004878D01*
X022573Y004780D02*
X022310Y004780D01*
X022310Y004681D02*
X022573Y004681D01*
X022573Y004583D02*
X022310Y004583D01*
X022310Y004484D02*
X022573Y004484D01*
X022573Y004386D02*
X022310Y004386D01*
X022310Y004287D02*
X022573Y004287D01*
X022573Y004189D02*
X022310Y004189D01*
X022310Y004090D02*
X022573Y004090D01*
X022573Y003992D02*
X022341Y003992D01*
X022413Y003893D02*
X022533Y003893D01*
X022733Y003867D02*
X022733Y007394D01*
X022890Y007394D01*
X023145Y007538D02*
X024866Y007538D01*
X024779Y007636D02*
X023058Y007636D01*
X023180Y007439D02*
X024953Y007439D01*
X025039Y007341D02*
X023180Y007341D01*
X023141Y007242D02*
X025126Y007242D01*
X025213Y007144D02*
X023043Y007144D01*
X022893Y007045D02*
X025299Y007045D01*
X025386Y006947D02*
X022893Y006947D01*
X022893Y006848D02*
X025473Y006848D01*
X025559Y006750D02*
X022893Y006750D01*
X022893Y006651D02*
X025646Y006651D01*
X025733Y006553D02*
X023207Y006553D01*
X023326Y006454D02*
X025819Y006454D01*
X025906Y006356D02*
X023367Y006356D01*
X023369Y006257D02*
X025993Y006257D01*
X026079Y006159D02*
X025895Y006159D01*
X025994Y006060D02*
X026166Y006060D01*
X026092Y005962D02*
X026253Y005962D01*
X026191Y005863D02*
X026339Y005863D01*
X026289Y005765D02*
X026426Y005765D01*
X026388Y005666D02*
X026513Y005666D01*
X026486Y005568D02*
X026599Y005568D01*
X026585Y005469D02*
X026686Y005469D01*
X026683Y005371D02*
X026773Y005371D01*
X026782Y005272D02*
X026859Y005272D01*
X026880Y005174D02*
X026946Y005174D01*
X026979Y005075D02*
X027033Y005075D01*
X027077Y004977D02*
X027120Y004977D01*
X027400Y004900D02*
X024650Y008025D01*
X021775Y008025D01*
X021570Y008227D02*
X021560Y008227D01*
X021560Y008326D02*
X027581Y008326D01*
X027581Y008424D02*
X021560Y008424D01*
X021560Y008523D02*
X027581Y008523D01*
X027581Y008621D02*
X021560Y008621D01*
X021560Y008720D02*
X027581Y008720D01*
X027581Y008818D02*
X021560Y008818D01*
X021560Y008917D02*
X027581Y008917D01*
X027581Y009015D02*
X021560Y009015D01*
X021560Y009114D02*
X027581Y009114D01*
X027581Y009212D02*
X021560Y009212D01*
X021560Y009311D02*
X021582Y009311D01*
X021775Y009525D02*
X022150Y009650D01*
X022150Y011525D01*
X021775Y011900D01*
X020525Y011900D01*
X020025Y011400D01*
X018275Y011400D01*
X018013Y011281D02*
X000300Y011281D01*
X000300Y011379D02*
X017987Y011379D01*
X017995Y011478D02*
X000300Y011478D01*
X000300Y011576D02*
X018044Y011576D01*
X018185Y011675D02*
X000300Y011675D01*
X000300Y011773D02*
X020172Y011773D01*
X020270Y011872D02*
X000300Y011872D01*
X000300Y011970D02*
X020369Y011970D01*
X020526Y011675D02*
X020573Y011675D01*
X020475Y011576D02*
X020427Y011576D01*
X020376Y011478D02*
X020329Y011478D01*
X020278Y011379D02*
X020230Y011379D01*
X020179Y011281D02*
X020132Y011281D01*
X020081Y011182D02*
X018464Y011182D01*
X018086Y011182D02*
X000300Y011182D01*
X000300Y011084D02*
X019982Y011084D01*
X019884Y010985D02*
X000300Y010985D01*
X000300Y010887D02*
X019785Y010887D01*
X019687Y010788D02*
X000300Y010788D01*
X000300Y010690D02*
X019588Y010690D01*
X019490Y010591D02*
X000300Y010591D01*
X000300Y010493D02*
X012634Y010493D01*
X012843Y010292D02*
X015394Y007741D01*
X016370Y007741D01*
X016163Y007538D02*
X015082Y007538D01*
X015082Y007636D02*
X015272Y007636D01*
X015234Y007674D02*
X012905Y010004D01*
X012901Y010002D01*
X012887Y010002D01*
X014988Y007901D01*
X015082Y007807D01*
X015082Y006364D01*
X015112Y006394D01*
X015218Y006438D01*
X015332Y006438D01*
X015336Y006437D01*
X016349Y007451D01*
X016313Y007451D01*
X016206Y007495D01*
X016125Y007576D01*
X016123Y007581D01*
X015328Y007581D01*
X015234Y007674D01*
X015174Y007735D02*
X015082Y007735D01*
X015075Y007833D02*
X015055Y007833D01*
X014977Y007932D02*
X014957Y007932D01*
X014878Y008030D02*
X014858Y008030D01*
X014780Y008129D02*
X014760Y008129D01*
X014681Y008227D02*
X014661Y008227D01*
X014583Y008326D02*
X014563Y008326D01*
X014484Y008424D02*
X014464Y008424D01*
X014386Y008523D02*
X014366Y008523D01*
X014287Y008621D02*
X014267Y008621D01*
X014189Y008720D02*
X014169Y008720D01*
X014090Y008818D02*
X014070Y008818D01*
X013992Y008917D02*
X013972Y008917D01*
X013893Y009015D02*
X013873Y009015D01*
X013795Y009114D02*
X013775Y009114D01*
X013696Y009212D02*
X013676Y009212D01*
X013598Y009311D02*
X013578Y009311D01*
X013499Y009409D02*
X013479Y009409D01*
X013401Y009508D02*
X013381Y009508D01*
X013302Y009606D02*
X013282Y009606D01*
X013204Y009705D02*
X013184Y009705D01*
X013105Y009803D02*
X013085Y009803D01*
X013007Y009902D02*
X012987Y009902D01*
X012908Y010000D02*
X012888Y010000D01*
X013164Y010197D02*
X019096Y010197D01*
X019194Y010296D02*
X013133Y010296D01*
X013114Y010394D02*
X019293Y010394D01*
X019391Y010493D02*
X013052Y010493D01*
X013262Y010099D02*
X018997Y010099D01*
X018899Y010000D02*
X013361Y010000D01*
X013459Y009902D02*
X018800Y009902D01*
X018702Y009803D02*
X013558Y009803D01*
X013656Y009705D02*
X018603Y009705D01*
X018505Y009606D02*
X013755Y009606D01*
X013853Y009508D02*
X018406Y009508D01*
X018308Y009409D02*
X013952Y009409D01*
X014050Y009311D02*
X018209Y009311D01*
X018111Y009212D02*
X014149Y009212D01*
X014247Y009114D02*
X018012Y009114D01*
X017914Y009015D02*
X014346Y009015D01*
X014444Y008917D02*
X017815Y008917D01*
X017717Y008818D02*
X014543Y008818D01*
X014641Y008720D02*
X017618Y008720D01*
X017520Y008621D02*
X014740Y008621D01*
X014838Y008523D02*
X017421Y008523D01*
X017323Y008424D02*
X014937Y008424D01*
X015035Y008326D02*
X017224Y008326D01*
X017126Y008227D02*
X015134Y008227D01*
X015232Y008129D02*
X017027Y008129D01*
X016929Y008030D02*
X016429Y008030D01*
X016312Y008030D02*
X015331Y008030D01*
X015429Y007932D02*
X016151Y007932D01*
X016590Y007932D02*
X016830Y007932D01*
X016732Y007833D02*
X016646Y007833D01*
X016338Y007439D02*
X015082Y007439D01*
X015082Y007341D02*
X016239Y007341D01*
X016141Y007242D02*
X015082Y007242D01*
X015082Y007144D02*
X016042Y007144D01*
X015944Y007045D02*
X015082Y007045D01*
X015082Y006947D02*
X015845Y006947D01*
X015747Y006848D02*
X015082Y006848D01*
X015082Y006750D02*
X015648Y006750D01*
X015550Y006651D02*
X015082Y006651D01*
X015082Y006553D02*
X015451Y006553D01*
X015353Y006454D02*
X015082Y006454D01*
X014762Y006454D02*
X013935Y006454D01*
X013935Y006356D02*
X014762Y006356D01*
X014762Y006257D02*
X013935Y006257D01*
X013935Y006159D02*
X014762Y006159D01*
X014762Y006060D02*
X013935Y006060D01*
X013935Y005962D02*
X014762Y005962D01*
X014762Y005863D02*
X013935Y005863D01*
X013935Y005765D02*
X014762Y005765D01*
X014849Y005666D02*
X013935Y005666D01*
X013935Y005568D02*
X015637Y005568D01*
X015536Y005469D02*
X013935Y005469D01*
X013935Y005371D02*
X015436Y005371D01*
X015335Y005272D02*
X013935Y005272D01*
X013935Y005174D02*
X015234Y005174D01*
X015490Y004977D02*
X015990Y004977D01*
X015990Y005075D02*
X015591Y005075D01*
X015692Y005174D02*
X016072Y005174D01*
X016171Y005272D02*
X015792Y005272D01*
X015893Y005371D02*
X016269Y005371D01*
X016368Y005469D02*
X015994Y005469D01*
X016094Y005568D02*
X016466Y005568D01*
X016565Y005666D02*
X016195Y005666D01*
X016296Y005765D02*
X016663Y005765D01*
X016762Y005863D02*
X016397Y005863D01*
X016497Y005962D02*
X016860Y005962D01*
X016959Y006060D02*
X016598Y006060D01*
X016699Y006159D02*
X017057Y006159D01*
X017156Y006257D02*
X016799Y006257D01*
X016900Y006356D02*
X017254Y006356D01*
X017353Y006454D02*
X017001Y006454D01*
X017101Y006553D02*
X017451Y006553D01*
X017550Y006651D02*
X017202Y006651D01*
X017303Y006750D02*
X017648Y006750D01*
X017747Y006848D02*
X017403Y006848D01*
X017504Y006947D02*
X017845Y006947D01*
X017944Y007045D02*
X017605Y007045D01*
X017706Y007144D02*
X018042Y007144D01*
X018141Y007242D02*
X017806Y007242D01*
X017907Y007341D02*
X018865Y007341D01*
X018907Y007439D02*
X018008Y007439D01*
X018275Y007150D02*
X018900Y007150D01*
X019150Y007275D01*
X018914Y006947D02*
X018298Y006947D01*
X018199Y006848D02*
X018868Y006848D01*
X018275Y007150D02*
X016150Y005025D01*
X016150Y004400D01*
X015885Y004287D02*
X014786Y004287D01*
X014886Y004386D02*
X015862Y004386D01*
X015873Y004484D02*
X014987Y004484D01*
X015088Y004583D02*
X015925Y004583D01*
X015990Y004681D02*
X015188Y004681D01*
X015289Y004780D02*
X015990Y004780D01*
X015990Y004878D02*
X015390Y004878D01*
X015954Y004189D02*
X014685Y004189D01*
X013580Y004681D02*
X011420Y004681D01*
X011420Y004583D02*
X013481Y004583D01*
X012999Y004878D02*
X012403Y004878D01*
X012547Y004977D02*
X012810Y004977D01*
X012711Y005075D02*
X012631Y005075D01*
X012665Y005666D02*
X012676Y005666D01*
X012602Y005765D02*
X012751Y005765D01*
X012857Y005863D02*
X012499Y005863D01*
X012299Y005962D02*
X013615Y005962D01*
X013615Y006060D02*
X005792Y006060D01*
X005792Y006159D02*
X013615Y006159D01*
X013615Y006257D02*
X005792Y006257D01*
X005792Y006356D02*
X013615Y006356D01*
X013615Y006454D02*
X005771Y006454D01*
X005740Y006523D02*
X005775Y006543D01*
X005803Y006571D01*
X005822Y006605D01*
X005832Y006643D01*
X005832Y006792D01*
X005554Y006792D01*
X005554Y006849D01*
X005832Y006849D01*
X005832Y006998D01*
X005822Y007036D01*
X005803Y007070D01*
X005775Y007098D01*
X005740Y007118D01*
X005702Y007128D01*
X005554Y007128D01*
X005554Y006849D01*
X005496Y006849D01*
X005496Y006792D01*
X005218Y006792D01*
X005218Y006643D01*
X005228Y006605D01*
X005247Y006571D01*
X005275Y006543D01*
X005310Y006523D01*
X005348Y006513D01*
X005496Y006513D01*
X005496Y006792D01*
X005554Y006792D01*
X005554Y006513D01*
X005702Y006513D01*
X005740Y006523D01*
X005784Y006553D02*
X013615Y006553D01*
X013615Y006651D02*
X005832Y006651D01*
X005832Y006750D02*
X013615Y006750D01*
X013615Y006848D02*
X005554Y006848D01*
X005496Y006848D02*
X000300Y006848D01*
X000300Y006750D02*
X005218Y006750D01*
X005218Y006651D02*
X000300Y006651D01*
X000300Y006553D02*
X005266Y006553D01*
X005279Y006454D02*
X000300Y006454D01*
X000300Y006356D02*
X005258Y006356D01*
X005258Y006257D02*
X000300Y006257D01*
X000300Y006159D02*
X005258Y006159D01*
X005258Y006060D02*
X000300Y006060D01*
X000300Y005962D02*
X002001Y005962D01*
X002014Y005966D02*
X001927Y005938D01*
X001846Y005896D01*
X001772Y005842D01*
X001708Y005778D01*
X001654Y005704D01*
X001612Y005623D01*
X001584Y005536D01*
X001570Y005446D01*
X001570Y005419D01*
X002131Y005419D01*
X002131Y005980D01*
X002104Y005980D01*
X002014Y005966D01*
X002131Y005962D02*
X002169Y005962D01*
X002169Y005980D02*
X002169Y005419D01*
X002131Y005419D01*
X002131Y005381D01*
X002169Y005381D01*
X002169Y004820D01*
X002196Y004820D01*
X002286Y004834D01*
X002373Y004862D01*
X002454Y004904D01*
X002528Y004958D01*
X002592Y005022D01*
X002646Y005096D01*
X002671Y005145D01*
X002692Y005094D01*
X002844Y004942D01*
X003043Y004860D01*
X003257Y004860D01*
X003456Y004942D01*
X003608Y005094D01*
X003629Y005145D01*
X003654Y005096D01*
X003708Y005022D01*
X003772Y004958D01*
X003846Y004904D01*
X003927Y004862D01*
X004014Y004834D01*
X004104Y004820D01*
X004131Y004820D01*
X004131Y005381D01*
X004169Y005381D01*
X004169Y005419D01*
X004131Y005419D01*
X004131Y005980D01*
X004104Y005980D01*
X004014Y005966D01*
X003927Y005938D01*
X003846Y005896D01*
X003772Y005842D01*
X003708Y005778D01*
X003654Y005704D01*
X003629Y005655D01*
X003608Y005706D01*
X003456Y005858D01*
X003257Y005940D01*
X003043Y005940D01*
X002844Y005858D01*
X002692Y005706D01*
X002671Y005655D01*
X002646Y005704D01*
X002592Y005778D01*
X002528Y005842D01*
X002454Y005896D01*
X002373Y005938D01*
X002286Y005966D01*
X002196Y005980D01*
X002169Y005980D01*
X002169Y005863D02*
X002131Y005863D01*
X002131Y005765D02*
X002169Y005765D01*
X002169Y005666D02*
X002131Y005666D01*
X002131Y005568D02*
X002169Y005568D01*
X002169Y005469D02*
X002131Y005469D01*
X002131Y005381D02*
X001570Y005381D01*
X001570Y005354D01*
X001584Y005264D01*
X001612Y005177D01*
X001654Y005096D01*
X001708Y005022D01*
X001772Y004958D01*
X001846Y004904D01*
X001927Y004862D01*
X002014Y004834D01*
X002104Y004820D01*
X002131Y004820D01*
X002131Y005381D01*
X002131Y005371D02*
X002169Y005371D01*
X002169Y005272D02*
X002131Y005272D01*
X002131Y005174D02*
X002169Y005174D01*
X002169Y005075D02*
X002131Y005075D01*
X002131Y004977D02*
X002169Y004977D01*
X002169Y004878D02*
X002131Y004878D01*
X001897Y004878D02*
X000300Y004878D01*
X000300Y004780D02*
X005794Y004780D01*
X005771Y004878D02*
X004403Y004878D01*
X004373Y004862D02*
X004454Y004904D01*
X004528Y004958D01*
X004592Y005022D01*
X004646Y005096D01*
X004688Y005177D01*
X004716Y005264D01*
X004730Y005354D01*
X004730Y005381D01*
X004169Y005381D01*
X004169Y004820D01*
X004196Y004820D01*
X004286Y004834D01*
X004373Y004862D01*
X004169Y004878D02*
X004131Y004878D01*
X004131Y004977D02*
X004169Y004977D01*
X004169Y005075D02*
X004131Y005075D01*
X004131Y005174D02*
X004169Y005174D01*
X004169Y005272D02*
X004131Y005272D01*
X004131Y005371D02*
X004169Y005371D01*
X004169Y005419D02*
X004730Y005419D01*
X004730Y005446D01*
X004716Y005536D01*
X004688Y005623D01*
X004646Y005704D01*
X004592Y005778D01*
X004528Y005842D01*
X004454Y005896D01*
X004373Y005938D01*
X004286Y005966D01*
X004196Y005980D01*
X004169Y005980D01*
X004169Y005419D01*
X004169Y005469D02*
X004131Y005469D01*
X004131Y005568D02*
X004169Y005568D01*
X004169Y005666D02*
X004131Y005666D01*
X004131Y005765D02*
X004169Y005765D01*
X004169Y005863D02*
X004131Y005863D01*
X004131Y005962D02*
X004169Y005962D01*
X004299Y005962D02*
X005440Y005962D01*
X005470Y005863D02*
X004499Y005863D01*
X004602Y005765D02*
X005500Y005765D01*
X005530Y005666D02*
X004665Y005666D01*
X004705Y005568D02*
X005560Y005568D01*
X005590Y005469D02*
X004726Y005469D01*
X004730Y005371D02*
X005620Y005371D01*
X005650Y005272D02*
X004717Y005272D01*
X004686Y005174D02*
X005681Y005174D01*
X005711Y005075D02*
X004631Y005075D01*
X004547Y004977D02*
X005741Y004977D01*
X005945Y004855D02*
X008400Y002400D01*
X009025Y002400D01*
X008830Y002613D02*
X008414Y002613D01*
X008158Y002416D02*
X007198Y002416D01*
X007188Y002406D02*
X007269Y002487D01*
X007313Y002593D01*
X007313Y002707D01*
X007269Y002813D01*
X007188Y002894D01*
X007082Y002938D01*
X006971Y002938D01*
X007019Y002987D01*
X007063Y003093D01*
X007063Y003207D01*
X007019Y003313D01*
X006938Y003394D01*
X006832Y003438D01*
X006718Y003438D01*
X006612Y003394D01*
X006531Y003313D01*
X006529Y003310D01*
X006021Y003310D01*
X006019Y003313D01*
X005938Y003394D01*
X005832Y003438D01*
X005718Y003438D01*
X005612Y003394D01*
X005531Y003313D01*
X005487Y003207D01*
X005487Y003093D01*
X005531Y002987D01*
X005612Y002906D01*
X005626Y002900D01*
X005612Y002894D01*
X005531Y002813D01*
X005487Y002707D01*
X005487Y002593D01*
X005531Y002487D01*
X005612Y002406D01*
X005718Y002362D01*
X005832Y002362D01*
X005938Y002406D01*
X006019Y002487D01*
X006021Y002490D01*
X006779Y002490D01*
X006781Y002487D01*
X006862Y002406D01*
X006968Y002362D01*
X007082Y002362D01*
X007188Y002406D01*
X007281Y002514D02*
X008060Y002514D01*
X007961Y002613D02*
X007313Y002613D01*
X007312Y002711D02*
X007863Y002711D01*
X007764Y002810D02*
X007271Y002810D01*
X007155Y002908D02*
X007666Y002908D01*
X007567Y003007D02*
X007027Y003007D01*
X007063Y003105D02*
X007469Y003105D01*
X007370Y003204D02*
X007063Y003204D01*
X007024Y003302D02*
X007272Y003302D01*
X007173Y003401D02*
X006923Y003401D01*
X007075Y003499D02*
X004473Y003499D01*
X004612Y003401D02*
X005627Y003401D01*
X005526Y003302D02*
X004699Y003302D01*
X004760Y003204D02*
X005487Y003204D01*
X005487Y003105D02*
X004799Y003105D01*
X004821Y003007D02*
X005523Y003007D01*
X005610Y002908D02*
X004204Y002908D01*
X004204Y002854D02*
X004828Y002854D01*
X004817Y002772D01*
X004794Y002686D01*
X004761Y002605D01*
X004716Y002528D01*
X004662Y002458D01*
X004600Y002395D01*
X004530Y002341D01*
X004453Y002297D01*
X004371Y002263D01*
X004286Y002240D01*
X004204Y002230D01*
X004204Y002854D01*
X004204Y002810D02*
X004104Y002810D01*
X004104Y002908D02*
X002196Y002908D01*
X002196Y002954D02*
X002820Y002954D01*
X002810Y003036D01*
X002787Y003121D01*
X002753Y003203D01*
X002709Y003280D01*
X002655Y003350D01*
X002592Y003412D01*
X002522Y003466D01*
X002445Y003511D01*
X002364Y003544D01*
X002278Y003567D01*
X002196Y003578D01*
X002196Y002954D01*
X002096Y002954D01*
X002096Y003578D01*
X002014Y003567D01*
X001929Y003544D01*
X001847Y003511D01*
X001770Y003466D01*
X001700Y003412D01*
X001638Y003350D01*
X001584Y003280D01*
X001539Y003203D01*
X001506Y003121D01*
X001483Y003036D01*
X001472Y002954D01*
X002096Y002954D01*
X002096Y002854D01*
X001472Y002854D01*
X001483Y002772D01*
X001506Y002686D01*
X001539Y002605D01*
X001584Y002528D01*
X001638Y002458D01*
X001700Y002395D01*
X001770Y002341D01*
X001847Y002297D01*
X001929Y002263D01*
X002014Y002240D01*
X002096Y002230D01*
X002096Y002854D01*
X002196Y002854D01*
X002196Y002954D01*
X002196Y003007D02*
X002096Y003007D01*
X002096Y003105D02*
X002196Y003105D01*
X002196Y003204D02*
X002096Y003204D01*
X002096Y003302D02*
X002196Y003302D01*
X002196Y003401D02*
X002096Y003401D01*
X002096Y003499D02*
X002196Y003499D01*
X002465Y003499D02*
X003835Y003499D01*
X003696Y003401D02*
X002604Y003401D01*
X002691Y003302D02*
X003609Y003302D01*
X003547Y003204D02*
X002753Y003204D01*
X002791Y003105D02*
X003509Y003105D01*
X003487Y003007D02*
X002813Y003007D01*
X002814Y002810D02*
X003485Y002810D01*
X003507Y002711D02*
X002793Y002711D01*
X002756Y002613D02*
X003544Y002613D01*
X003602Y002514D02*
X002698Y002514D01*
X002196Y002514D02*
X002096Y002514D01*
X002096Y002416D02*
X002196Y002416D01*
X002196Y002317D02*
X002096Y002317D01*
X001813Y002317D02*
X000300Y002317D01*
X000300Y002416D02*
X001680Y002416D01*
X001594Y002514D02*
X000300Y002514D01*
X000300Y002613D02*
X001536Y002613D01*
X001499Y002711D02*
X000300Y002711D01*
X000300Y002810D02*
X001478Y002810D01*
X001479Y003007D02*
X000300Y003007D01*
X000300Y003105D02*
X001501Y003105D01*
X001540Y003204D02*
X000300Y003204D01*
X000300Y003302D02*
X001601Y003302D01*
X001688Y003401D02*
X000300Y003401D01*
X000300Y003499D02*
X001827Y003499D01*
X002096Y002908D02*
X000300Y002908D01*
X000300Y003598D02*
X006976Y003598D01*
X006878Y003696D02*
X000300Y003696D01*
X000300Y003795D02*
X006779Y003795D01*
X006681Y003893D02*
X000300Y003893D01*
X000300Y003992D02*
X006582Y003992D01*
X006484Y004090D02*
X000300Y004090D01*
X000300Y004189D02*
X006385Y004189D01*
X006287Y004287D02*
X000300Y004287D01*
X000300Y004386D02*
X006188Y004386D01*
X006090Y004484D02*
X000300Y004484D01*
X000300Y004583D02*
X005991Y004583D01*
X005893Y004681D02*
X000300Y004681D01*
X000300Y004977D02*
X001753Y004977D01*
X001669Y005075D02*
X000300Y005075D01*
X000300Y005174D02*
X001614Y005174D01*
X001583Y005272D02*
X000300Y005272D01*
X000300Y005371D02*
X001570Y005371D01*
X001574Y005469D02*
X000300Y005469D01*
X000300Y005568D02*
X001595Y005568D01*
X001635Y005666D02*
X000300Y005666D01*
X000300Y005765D02*
X001698Y005765D01*
X001801Y005863D02*
X000300Y005863D01*
X000300Y006947D02*
X005218Y006947D01*
X005218Y006998D02*
X005218Y006849D01*
X005496Y006849D01*
X005496Y007128D01*
X005348Y007128D01*
X005310Y007118D01*
X005275Y007098D01*
X005247Y007070D01*
X005228Y007036D01*
X005218Y006998D01*
X005233Y007045D02*
X000300Y007045D01*
X000300Y007144D02*
X013615Y007144D01*
X013615Y007242D02*
X000300Y007242D01*
X000300Y007341D02*
X013615Y007341D01*
X013615Y007439D02*
X000300Y007439D01*
X000300Y007538D02*
X013615Y007538D01*
X013615Y007636D02*
X000300Y007636D01*
X000300Y007735D02*
X013615Y007735D01*
X013615Y007833D02*
X000300Y007833D01*
X000300Y007932D02*
X013615Y007932D01*
X013615Y008030D02*
X000300Y008030D01*
X000300Y008129D02*
X013615Y008129D01*
X013615Y008227D02*
X000300Y008227D01*
X000300Y008326D02*
X013615Y008326D01*
X013525Y008424D02*
X000300Y008424D01*
X000300Y008523D02*
X013426Y008523D01*
X013328Y008621D02*
X000300Y008621D01*
X000300Y008720D02*
X013229Y008720D01*
X013131Y008818D02*
X000300Y008818D01*
X000300Y008917D02*
X013032Y008917D01*
X012934Y009015D02*
X000300Y009015D01*
X000300Y009114D02*
X012835Y009114D01*
X012737Y009212D02*
X000300Y009212D01*
X000300Y009311D02*
X012638Y009311D01*
X012540Y009409D02*
X000300Y009409D01*
X000300Y009508D02*
X012293Y009508D01*
X012162Y009606D02*
X000300Y009606D01*
X000300Y012069D02*
X032283Y012069D01*
X032283Y012167D02*
X000300Y012167D01*
X000300Y012266D02*
X032283Y012266D01*
X032283Y012364D02*
X000300Y012364D01*
X000300Y012463D02*
X032283Y012463D01*
X032283Y012561D02*
X000300Y012561D01*
X000300Y012660D02*
X032283Y012660D01*
X032283Y012758D02*
X000300Y012758D01*
X000300Y012857D02*
X032283Y012857D01*
X032283Y012955D02*
X000300Y012955D01*
X000300Y013054D02*
X032283Y013054D01*
X032283Y013152D02*
X000300Y013152D01*
X000300Y013251D02*
X032283Y013251D01*
X032283Y013349D02*
X000300Y013349D01*
X000300Y013448D02*
X032283Y013448D01*
X032283Y013546D02*
X000300Y013546D01*
X000300Y013645D02*
X032283Y013645D01*
X032283Y013743D02*
X000300Y013743D01*
X000300Y013842D02*
X032283Y013842D01*
X032283Y013940D02*
X000300Y013940D01*
X000300Y014039D02*
X032283Y014039D01*
X032283Y014137D02*
X023377Y014137D01*
X023402Y014148D02*
X023527Y014273D01*
X023595Y014436D01*
X023595Y014614D01*
X023527Y014777D01*
X023402Y014902D01*
X023239Y014970D01*
X023061Y014970D01*
X022898Y014902D01*
X022773Y014777D01*
X022705Y014614D01*
X022705Y014436D01*
X022773Y014273D01*
X022898Y014148D01*
X023061Y014080D01*
X023239Y014080D01*
X023402Y014148D01*
X023490Y014236D02*
X032283Y014236D01*
X032283Y014334D02*
X023553Y014334D01*
X023594Y014433D02*
X032283Y014433D01*
X032283Y014531D02*
X023595Y014531D01*
X023589Y014630D02*
X032283Y014630D01*
X032283Y014728D02*
X023548Y014728D01*
X023478Y014827D02*
X032283Y014827D01*
X032283Y014925D02*
X023348Y014925D01*
X022952Y014925D02*
X021796Y014925D01*
X021735Y014951D02*
X021565Y014951D01*
X021409Y014886D01*
X021289Y014766D01*
X021224Y014610D01*
X021224Y014440D01*
X021289Y014284D01*
X021409Y014164D01*
X021565Y014099D01*
X021735Y014099D01*
X021891Y014164D01*
X022011Y014284D01*
X022076Y014440D01*
X022076Y014610D01*
X022011Y014766D01*
X021891Y014886D01*
X021735Y014951D01*
X021504Y014925D02*
X020245Y014925D01*
X020231Y014931D02*
X020069Y014931D01*
X019920Y014869D01*
X019806Y014755D01*
X019744Y014606D01*
X019744Y014444D01*
X019806Y014295D01*
X019920Y014181D01*
X020069Y014119D01*
X020231Y014119D01*
X020380Y014181D01*
X020494Y014295D01*
X020556Y014444D01*
X020556Y014606D01*
X020494Y014755D01*
X020380Y014869D01*
X020231Y014931D01*
X020055Y014925D02*
X000300Y014925D01*
X000300Y014827D02*
X015074Y014827D01*
X015089Y014832D02*
X014976Y014786D01*
X014889Y014699D01*
X014843Y014586D01*
X014843Y014464D01*
X014889Y014351D01*
X014976Y014264D01*
X015089Y014218D01*
X015211Y014218D01*
X015324Y014264D01*
X015411Y014351D01*
X015457Y014464D01*
X015457Y014586D01*
X015411Y014699D01*
X015324Y014786D01*
X015211Y014832D01*
X015089Y014832D01*
X015226Y014827D02*
X016023Y014827D01*
X015965Y014802D02*
X016085Y014852D01*
X016215Y014852D01*
X016335Y014802D01*
X016427Y014710D01*
X016477Y014590D01*
X016477Y014460D01*
X016427Y014340D01*
X016335Y014248D01*
X016215Y014198D01*
X016085Y014198D01*
X015965Y014248D01*
X015873Y014340D01*
X015823Y014460D01*
X015823Y014590D01*
X015873Y014710D01*
X015965Y014802D01*
X015890Y014728D02*
X015382Y014728D01*
X015440Y014630D02*
X015839Y014630D01*
X015823Y014531D02*
X015457Y014531D01*
X015445Y014433D02*
X015834Y014433D01*
X015878Y014334D02*
X015394Y014334D01*
X015255Y014236D02*
X015994Y014236D01*
X016306Y014236D02*
X016949Y014236D01*
X016954Y014231D02*
X017081Y014178D01*
X017219Y014178D01*
X017346Y014231D01*
X017444Y014329D01*
X017497Y014456D01*
X017497Y014594D01*
X017444Y014721D01*
X017346Y014819D01*
X017219Y014872D01*
X017081Y014872D01*
X016954Y014819D01*
X016856Y014721D01*
X016803Y014594D01*
X016803Y014456D01*
X016856Y014329D01*
X016954Y014231D01*
X016854Y014334D02*
X016422Y014334D01*
X016466Y014433D02*
X016813Y014433D01*
X016803Y014531D02*
X016477Y014531D01*
X016461Y014630D02*
X016818Y014630D01*
X016863Y014728D02*
X016410Y014728D01*
X016277Y014827D02*
X016972Y014827D01*
X017328Y014827D02*
X017933Y014827D01*
X017942Y014836D02*
X017839Y014733D01*
X017783Y014598D01*
X017783Y014452D01*
X017839Y014317D01*
X017942Y014214D01*
X018077Y014158D01*
X018223Y014158D01*
X018358Y014214D01*
X018461Y014317D01*
X018517Y014452D01*
X018517Y014598D01*
X018461Y014733D01*
X018358Y014836D01*
X018223Y014892D01*
X018077Y014892D01*
X017942Y014836D01*
X017837Y014728D02*
X017437Y014728D01*
X017482Y014630D02*
X017797Y014630D01*
X017783Y014531D02*
X017497Y014531D01*
X017487Y014433D02*
X017792Y014433D01*
X017832Y014334D02*
X017446Y014334D01*
X017351Y014236D02*
X017921Y014236D01*
X018379Y014236D02*
X018893Y014236D01*
X018931Y014198D02*
X019073Y014139D01*
X019227Y014139D01*
X019369Y014198D01*
X019477Y014306D01*
X019536Y014448D01*
X019536Y014602D01*
X019477Y014744D01*
X019369Y014852D01*
X019227Y014911D01*
X019073Y014911D01*
X018931Y014852D01*
X018823Y014744D01*
X018764Y014602D01*
X018764Y014448D01*
X018823Y014306D01*
X018931Y014198D01*
X018811Y014334D02*
X018468Y014334D01*
X018508Y014433D02*
X018770Y014433D01*
X018764Y014531D02*
X018517Y014531D01*
X018503Y014630D02*
X018775Y014630D01*
X018816Y014728D02*
X018463Y014728D01*
X018367Y014827D02*
X018905Y014827D01*
X019395Y014827D02*
X019878Y014827D01*
X019795Y014728D02*
X019484Y014728D01*
X019525Y014630D02*
X019754Y014630D01*
X019744Y014531D02*
X019536Y014531D01*
X019530Y014433D02*
X019749Y014433D01*
X019790Y014334D02*
X019489Y014334D01*
X019407Y014236D02*
X019865Y014236D01*
X020026Y014137D02*
X000300Y014137D01*
X000300Y014236D02*
X015045Y014236D01*
X014906Y014334D02*
X014366Y014334D01*
X014394Y014362D02*
X014313Y014281D01*
X014207Y014237D01*
X014093Y014237D01*
X013987Y014281D01*
X013906Y014362D01*
X013862Y014468D01*
X013862Y014582D01*
X013906Y014688D01*
X013987Y014769D01*
X014093Y014813D01*
X014207Y014813D01*
X014313Y014769D01*
X014394Y014688D01*
X014438Y014582D01*
X014438Y014468D01*
X014394Y014362D01*
X014423Y014433D02*
X014855Y014433D01*
X014843Y014531D02*
X014438Y014531D01*
X014418Y014630D02*
X014860Y014630D01*
X014918Y014728D02*
X014354Y014728D01*
X013946Y014728D02*
X013326Y014728D01*
X013302Y014752D02*
X013377Y014677D01*
X013418Y014578D01*
X013418Y014472D01*
X013377Y014373D01*
X013302Y014298D01*
X013203Y014257D01*
X013097Y014257D01*
X012998Y014298D01*
X012923Y014373D01*
X012882Y014472D01*
X012882Y014578D01*
X012923Y014677D01*
X012998Y014752D01*
X013097Y014793D01*
X013203Y014793D01*
X013302Y014752D01*
X013397Y014630D02*
X013882Y014630D01*
X013862Y014531D02*
X013418Y014531D01*
X013402Y014433D02*
X013877Y014433D01*
X013934Y014334D02*
X013338Y014334D01*
X012962Y014334D02*
X012310Y014334D01*
X012291Y014314D02*
X012361Y014384D01*
X012398Y014476D01*
X012398Y014574D01*
X012361Y014666D01*
X012291Y014736D01*
X012199Y014773D01*
X012101Y014773D01*
X012009Y014736D01*
X011939Y014666D01*
X011902Y014574D01*
X011902Y014476D01*
X011939Y014384D01*
X012009Y014314D01*
X012101Y014277D01*
X012199Y014277D01*
X012291Y014314D01*
X012381Y014433D02*
X012898Y014433D01*
X012882Y014531D02*
X012398Y014531D01*
X012376Y014630D02*
X012903Y014630D01*
X012974Y014728D02*
X012298Y014728D01*
X012002Y014728D02*
X000300Y014728D01*
X000300Y014630D02*
X011924Y014630D01*
X011902Y014531D02*
X000300Y014531D01*
X000300Y014433D02*
X011919Y014433D01*
X011990Y014334D02*
X000300Y014334D01*
X000300Y015024D02*
X032283Y015024D01*
X032283Y015122D02*
X000300Y015122D01*
X000300Y015221D02*
X032283Y015221D01*
X032283Y015319D02*
X000300Y015319D01*
X000300Y015418D02*
X032283Y015418D01*
X032283Y015516D02*
X000300Y015516D01*
X000300Y015615D02*
X032283Y015615D01*
X032283Y015713D02*
X000300Y015713D01*
X000300Y015812D02*
X032283Y015812D01*
X032283Y015910D02*
X000300Y015910D01*
X000300Y016009D02*
X032283Y016009D01*
X032283Y016107D02*
X000300Y016107D01*
X000300Y016206D02*
X032283Y016206D01*
X032283Y016304D02*
X000300Y016304D01*
X000300Y016403D02*
X032283Y016403D01*
X032283Y016501D02*
X000300Y016501D01*
X000300Y016600D02*
X032283Y016600D01*
X032283Y016698D02*
X000300Y016698D01*
X000300Y016797D02*
X032283Y016797D01*
X032283Y016895D02*
X000300Y016895D01*
X000300Y016994D02*
X032283Y016994D01*
X032283Y017092D02*
X000300Y017092D01*
X000300Y017191D02*
X032283Y017191D01*
X032283Y017289D02*
X000300Y017289D01*
X000300Y017388D02*
X032283Y017388D01*
X032283Y017486D02*
X000300Y017486D01*
X000300Y017585D02*
X032283Y017585D01*
X032283Y017683D02*
X000300Y017683D01*
X000300Y017782D02*
X032283Y017782D01*
X032283Y017880D02*
X000300Y017880D01*
X000300Y017979D02*
X032283Y017979D01*
X032283Y018077D02*
X000300Y018077D01*
X000300Y018176D02*
X032283Y018176D01*
X032283Y018274D02*
X000301Y018274D01*
X000307Y018373D02*
X032276Y018373D01*
X032265Y018471D02*
X000319Y018471D01*
X000345Y018570D02*
X032238Y018570D01*
X032212Y018668D02*
X000372Y018668D01*
X000398Y018767D02*
X032185Y018767D01*
X032141Y018865D02*
X000443Y018865D01*
X000500Y018964D02*
X032084Y018964D01*
X032027Y019062D02*
X000557Y019062D01*
X000627Y019161D02*
X031956Y019161D01*
X031858Y019259D02*
X000726Y019259D01*
X000824Y019358D02*
X031759Y019358D01*
X031613Y019456D02*
X000971Y019456D01*
X001141Y019555D02*
X031442Y019555D01*
X031119Y019653D02*
X001465Y019653D01*
X012697Y009705D02*
X012731Y009705D01*
X012795Y009606D02*
X012830Y009606D01*
X012894Y009508D02*
X012928Y009508D01*
X012992Y009409D02*
X013027Y009409D01*
X013091Y009311D02*
X013125Y009311D01*
X013189Y009212D02*
X013224Y009212D01*
X013288Y009114D02*
X013322Y009114D01*
X013386Y009015D02*
X013421Y009015D01*
X013485Y008917D02*
X013519Y008917D01*
X013583Y008818D02*
X013618Y008818D01*
X013682Y008720D02*
X013716Y008720D01*
X013780Y008621D02*
X013815Y008621D01*
X013879Y008523D02*
X013913Y008523D01*
X013935Y008424D02*
X014012Y008424D01*
X013935Y008326D02*
X014110Y008326D01*
X014209Y008227D02*
X013935Y008227D01*
X013935Y008129D02*
X014307Y008129D01*
X014406Y008030D02*
X013935Y008030D01*
X013935Y007932D02*
X014504Y007932D01*
X014603Y007833D02*
X013935Y007833D01*
X013935Y007735D02*
X014701Y007735D01*
X014762Y007636D02*
X013935Y007636D01*
X013935Y007538D02*
X014762Y007538D01*
X014762Y007439D02*
X013935Y007439D01*
X013935Y007341D02*
X014762Y007341D01*
X014762Y007242D02*
X013935Y007242D01*
X013935Y007144D02*
X014762Y007144D01*
X014762Y007045D02*
X013935Y007045D01*
X013935Y006947D02*
X014762Y006947D01*
X014762Y006848D02*
X013935Y006848D01*
X013935Y006750D02*
X014762Y006750D01*
X014762Y006651D02*
X013935Y006651D01*
X013935Y006553D02*
X014762Y006553D01*
X015275Y006150D02*
X020650Y011525D01*
X021525Y011525D01*
X021650Y011400D01*
X021912Y011281D02*
X021990Y011281D01*
X021990Y011379D02*
X021938Y011379D01*
X021930Y011478D02*
X021971Y011478D01*
X021774Y011675D02*
X021740Y011675D01*
X022030Y011872D02*
X032283Y011872D01*
X032283Y011970D02*
X021931Y011970D01*
X022128Y011773D02*
X032283Y011773D01*
X032283Y011675D02*
X022227Y011675D01*
X022310Y011576D02*
X032283Y011576D01*
X032283Y011478D02*
X022310Y011478D01*
X022310Y011379D02*
X032283Y011379D01*
X032283Y011281D02*
X022310Y011281D01*
X022310Y011182D02*
X032283Y011182D01*
X032283Y011084D02*
X022310Y011084D01*
X022310Y010985D02*
X032283Y010985D01*
X032283Y010887D02*
X022310Y010887D01*
X022310Y010788D02*
X032283Y010788D01*
X032283Y010690D02*
X022310Y010690D01*
X022310Y010591D02*
X032283Y010591D01*
X032283Y010493D02*
X022310Y010493D01*
X022310Y010394D02*
X032283Y010394D01*
X032283Y010296D02*
X023868Y010296D01*
X023739Y010296D02*
X022310Y010296D01*
X022310Y010197D02*
X023582Y010197D01*
X023527Y010099D02*
X022310Y010099D01*
X022310Y010000D02*
X023514Y010000D01*
X023534Y009902D02*
X022310Y009902D01*
X022310Y009803D02*
X023599Y009803D01*
X023804Y010008D02*
X027741Y010008D01*
X027741Y004748D01*
X027552Y004559D01*
X027268Y004559D01*
X025819Y006008D01*
X023363Y006008D01*
X023079Y006292D01*
X022951Y006553D02*
X022893Y006553D01*
X022893Y006068D02*
X022915Y006046D01*
X023021Y006002D01*
X023137Y006002D01*
X023141Y006004D01*
X023203Y005942D01*
X023296Y005848D01*
X025191Y005848D01*
X025156Y005813D01*
X025112Y005707D01*
X025112Y005593D01*
X025130Y005549D01*
X025130Y003762D01*
X023788Y002420D01*
X019935Y002420D01*
X019935Y003608D01*
X019986Y003558D01*
X020092Y003514D01*
X020208Y003514D01*
X020212Y003515D01*
X020368Y003359D01*
X020462Y003266D01*
X022358Y003266D01*
X022799Y003707D01*
X022893Y003800D01*
X022893Y006068D01*
X022893Y006060D02*
X022901Y006060D01*
X022893Y005962D02*
X023183Y005962D01*
X023282Y005863D02*
X022893Y005863D01*
X022893Y005765D02*
X025136Y005765D01*
X025112Y005666D02*
X022893Y005666D01*
X022893Y005568D02*
X025122Y005568D01*
X025130Y005469D02*
X022893Y005469D01*
X022893Y005371D02*
X025130Y005371D01*
X025130Y005272D02*
X022893Y005272D01*
X022893Y005174D02*
X025130Y005174D01*
X025130Y005075D02*
X022893Y005075D01*
X022893Y004977D02*
X025130Y004977D01*
X025130Y004878D02*
X022893Y004878D01*
X022893Y004780D02*
X025130Y004780D01*
X025130Y004681D02*
X022893Y004681D01*
X022893Y004583D02*
X025130Y004583D01*
X025130Y004484D02*
X022893Y004484D01*
X022893Y004386D02*
X025130Y004386D01*
X025130Y004287D02*
X022893Y004287D01*
X022893Y004189D02*
X025130Y004189D01*
X025130Y004090D02*
X022893Y004090D01*
X022893Y003992D02*
X025130Y003992D01*
X025130Y003893D02*
X022893Y003893D01*
X022887Y003795D02*
X025130Y003795D01*
X025064Y003696D02*
X022788Y003696D01*
X022690Y003598D02*
X024966Y003598D01*
X024867Y003499D02*
X022591Y003499D01*
X022493Y003401D02*
X024769Y003401D01*
X024670Y003302D02*
X022394Y003302D01*
X022292Y003426D02*
X022733Y003867D01*
X022150Y003775D02*
X022150Y007150D01*
X021705Y007242D02*
X021218Y007242D01*
X021317Y007341D02*
X021552Y007341D01*
X021499Y007439D02*
X021415Y007439D01*
X021025Y007650D02*
X019275Y005900D01*
X019275Y004900D01*
X018775Y004400D01*
X019255Y004386D02*
X019295Y004386D01*
X019295Y004484D02*
X019255Y004484D01*
X019255Y004583D02*
X019295Y004583D01*
X019282Y004681D02*
X019377Y004681D01*
X019381Y004780D02*
X019476Y004780D01*
X019435Y004878D02*
X019574Y004878D01*
X019520Y004977D02*
X019435Y004977D01*
X019976Y004878D02*
X020490Y004878D01*
X020490Y004780D02*
X020074Y004780D01*
X020173Y004681D02*
X020490Y004681D01*
X020490Y004583D02*
X020255Y004583D01*
X020255Y004484D02*
X020490Y004484D01*
X020490Y004386D02*
X020255Y004386D01*
X020255Y004287D02*
X020490Y004287D01*
X020490Y004189D02*
X020242Y004189D01*
X020216Y004090D02*
X020490Y004090D01*
X020459Y003992D02*
X020372Y003992D01*
X020150Y003804D02*
X020528Y003426D01*
X022292Y003426D01*
X021650Y003775D02*
X021525Y006275D01*
X021789Y006159D02*
X021990Y006159D01*
X021990Y006257D02*
X021813Y006257D01*
X021803Y006356D02*
X021990Y006356D01*
X021990Y006454D02*
X021753Y006454D01*
X021717Y006060D02*
X021990Y006060D01*
X021990Y005962D02*
X021701Y005962D01*
X021706Y005863D02*
X021990Y005863D01*
X021990Y005765D02*
X021711Y005765D01*
X021716Y005666D02*
X021990Y005666D01*
X021990Y005568D02*
X021721Y005568D01*
X021725Y005469D02*
X021990Y005469D01*
X021990Y005371D02*
X021730Y005371D01*
X021735Y005272D02*
X021990Y005272D01*
X021990Y005174D02*
X021740Y005174D01*
X021745Y005075D02*
X021990Y005075D01*
X021990Y004977D02*
X021750Y004977D01*
X021755Y004878D02*
X021990Y004878D01*
X021990Y004780D02*
X021760Y004780D01*
X021765Y004681D02*
X021990Y004681D01*
X021990Y004583D02*
X021770Y004583D01*
X021775Y004484D02*
X021990Y004484D01*
X021990Y004386D02*
X021780Y004386D01*
X021785Y004287D02*
X021990Y004287D01*
X021990Y004189D02*
X021790Y004189D01*
X021794Y004090D02*
X021990Y004090D01*
X021959Y003992D02*
X021841Y003992D01*
X021150Y003775D02*
X021150Y006025D01*
X020975Y006257D02*
X020825Y006257D01*
X020650Y006025D02*
X020650Y003775D01*
X020327Y003401D02*
X019935Y003401D01*
X019935Y003499D02*
X020228Y003499D01*
X020425Y003302D02*
X019935Y003302D01*
X019935Y003204D02*
X024572Y003204D01*
X024473Y003105D02*
X019935Y003105D01*
X019935Y003007D02*
X024375Y003007D01*
X024276Y002908D02*
X019935Y002908D01*
X019935Y002810D02*
X024178Y002810D01*
X024079Y002711D02*
X019935Y002711D01*
X019935Y002613D02*
X023981Y002613D01*
X023882Y002514D02*
X019935Y002514D01*
X019615Y002514D02*
X017984Y002514D01*
X018083Y002613D02*
X019615Y002613D01*
X019615Y002711D02*
X018181Y002711D01*
X018280Y002810D02*
X019615Y002810D01*
X019615Y002908D02*
X018378Y002908D01*
X018477Y003007D02*
X019615Y003007D01*
X019615Y003105D02*
X018575Y003105D01*
X018674Y003204D02*
X019615Y003204D01*
X019615Y003302D02*
X018772Y003302D01*
X018871Y003401D02*
X019615Y003401D01*
X019615Y003499D02*
X018924Y003499D01*
X018924Y003598D02*
X019615Y003598D01*
X019615Y003696D02*
X018924Y003696D01*
X018924Y003795D02*
X019615Y003795D01*
X019615Y003893D02*
X018924Y003893D01*
X019045Y003992D02*
X019505Y003992D01*
X019406Y004090D02*
X019144Y004090D01*
X019242Y004189D02*
X019308Y004189D01*
X019295Y004287D02*
X019255Y004287D01*
X019775Y004400D02*
X019775Y002150D01*
X019805Y001755D02*
X019628Y001682D01*
X019493Y001547D01*
X019420Y001370D01*
X019420Y001180D01*
X019493Y001003D01*
X019628Y000868D01*
X019805Y000795D01*
X019995Y000795D01*
X020172Y000868D01*
X020307Y001003D01*
X020380Y001180D01*
X020380Y001370D01*
X020307Y001547D01*
X020172Y001682D01*
X019995Y001755D01*
X019805Y001755D01*
X019735Y001726D02*
X019065Y001726D01*
X018995Y001755D02*
X018805Y001755D01*
X018628Y001682D01*
X018493Y001547D01*
X018420Y001370D01*
X018420Y001180D01*
X018493Y001003D01*
X018628Y000868D01*
X018805Y000795D01*
X018995Y000795D01*
X019172Y000868D01*
X019307Y001003D01*
X019380Y001180D01*
X019380Y001370D01*
X019307Y001547D01*
X019172Y001682D01*
X018995Y001755D01*
X018735Y001726D02*
X018065Y001726D01*
X017995Y001755D02*
X017805Y001755D01*
X017628Y001682D01*
X017493Y001547D01*
X017420Y001370D01*
X017420Y001180D01*
X017493Y001003D01*
X017628Y000868D01*
X017805Y000795D01*
X017995Y000795D01*
X018172Y000868D01*
X018307Y001003D01*
X018380Y001180D01*
X018380Y001370D01*
X018307Y001547D01*
X018172Y001682D01*
X017995Y001755D01*
X017735Y001726D02*
X017065Y001726D01*
X016995Y001755D02*
X016805Y001755D01*
X016628Y001682D01*
X016493Y001547D01*
X016420Y001370D01*
X016420Y001180D01*
X016493Y001003D01*
X016628Y000868D01*
X016805Y000795D01*
X016995Y000795D01*
X017172Y000868D01*
X017307Y001003D01*
X017380Y001180D01*
X017380Y001370D01*
X017307Y001547D01*
X017172Y001682D01*
X016995Y001755D01*
X016735Y001726D02*
X016065Y001726D01*
X015995Y001755D02*
X016172Y001682D01*
X016307Y001547D01*
X016380Y001370D01*
X016380Y001180D01*
X016307Y001003D01*
X016172Y000868D01*
X015995Y000795D01*
X015805Y000795D01*
X015628Y000868D01*
X015493Y001003D01*
X015420Y001180D01*
X015420Y001370D01*
X015493Y001547D01*
X015628Y001682D01*
X015805Y001755D01*
X015995Y001755D01*
X015735Y001726D02*
X015065Y001726D01*
X014995Y001755D02*
X015172Y001682D01*
X015307Y001547D01*
X015380Y001370D01*
X015380Y001180D01*
X015307Y001003D01*
X015172Y000868D01*
X014995Y000795D01*
X014805Y000795D01*
X014628Y000868D01*
X014493Y001003D01*
X014420Y001180D01*
X014420Y001370D01*
X014493Y001547D01*
X014628Y001682D01*
X014805Y001755D01*
X014995Y001755D01*
X014735Y001726D02*
X014065Y001726D01*
X013995Y001755D02*
X014172Y001682D01*
X014307Y001547D01*
X014380Y001370D01*
X014380Y001180D01*
X014307Y001003D01*
X014172Y000868D01*
X013995Y000795D01*
X013805Y000795D01*
X013628Y000868D01*
X013493Y001003D01*
X013420Y001180D01*
X013420Y001370D01*
X013493Y001547D01*
X013628Y001682D01*
X013805Y001755D01*
X013995Y001755D01*
X013735Y001726D02*
X013065Y001726D01*
X012995Y001755D02*
X012805Y001755D01*
X012628Y001682D01*
X012493Y001547D01*
X012420Y001370D01*
X012420Y001180D01*
X012493Y001003D01*
X012628Y000868D01*
X012805Y000795D01*
X012995Y000795D01*
X013172Y000868D01*
X013307Y001003D01*
X013380Y001180D01*
X013380Y001370D01*
X013307Y001547D01*
X013172Y001682D01*
X012995Y001755D01*
X012735Y001726D02*
X012160Y001726D01*
X012173Y001720D02*
X012100Y001757D01*
X012022Y001782D01*
X011950Y001794D01*
X011950Y001325D01*
X011850Y001325D01*
X011850Y001794D01*
X011778Y001782D01*
X011700Y001757D01*
X011627Y001720D01*
X011561Y001672D01*
X011503Y001614D01*
X011455Y001548D01*
X011418Y001475D01*
X011400Y001419D01*
X011382Y001475D01*
X011345Y001548D01*
X011297Y001614D01*
X011239Y001672D01*
X011173Y001720D01*
X011100Y001757D01*
X011022Y001782D01*
X010950Y001794D01*
X010950Y001325D01*
X010850Y001325D01*
X010850Y001225D01*
X010950Y001225D01*
X010950Y001325D01*
X011850Y001325D01*
X011850Y001225D01*
X011950Y001225D01*
X011950Y001325D01*
X012419Y001325D01*
X012407Y001397D01*
X012382Y001475D01*
X012345Y001548D01*
X012297Y001614D01*
X012239Y001672D01*
X012173Y001720D01*
X012283Y001628D02*
X012574Y001628D01*
X012486Y001529D02*
X012354Y001529D01*
X012396Y001431D02*
X012445Y001431D01*
X012417Y001332D02*
X012420Y001332D01*
X012420Y001234D02*
X011950Y001234D01*
X011950Y001225D02*
X012419Y001225D01*
X012407Y001153D01*
X012382Y001075D01*
X012345Y001002D01*
X012297Y000936D01*
X012239Y000878D01*
X012173Y000830D01*
X012100Y000793D01*
X012022Y000768D01*
X011950Y000756D01*
X011950Y001225D01*
X011950Y001135D02*
X011850Y001135D01*
X011850Y001225D02*
X011850Y000756D01*
X011778Y000768D01*
X011700Y000793D01*
X011627Y000830D01*
X011561Y000878D01*
X011503Y000936D01*
X011455Y001002D01*
X011418Y001075D01*
X011400Y001131D01*
X011382Y001075D01*
X011345Y001002D01*
X011297Y000936D01*
X011239Y000878D01*
X011173Y000830D01*
X011100Y000793D01*
X011022Y000768D01*
X010950Y000756D01*
X010950Y001225D01*
X011381Y001225D01*
X011850Y001225D01*
X011850Y001234D02*
X010950Y001234D01*
X010890Y001252D02*
X010900Y001275D01*
X010890Y001252D02*
X010355Y000717D01*
X004339Y000717D01*
X004181Y000874D01*
X004154Y000896D01*
X004204Y000938D02*
X008558Y000938D01*
X008479Y001037D02*
X004815Y001037D01*
X004786Y001135D02*
X008438Y001135D01*
X008420Y001234D02*
X004739Y001234D01*
X004670Y001332D02*
X008420Y001332D01*
X008445Y001431D02*
X004566Y001431D01*
X004390Y001529D02*
X008486Y001529D01*
X008574Y001628D02*
X003562Y001628D01*
X003603Y001726D02*
X008735Y001726D01*
X009065Y001726D02*
X009735Y001726D01*
X009574Y001628D02*
X009226Y001628D01*
X009777Y001148D02*
X009882Y001252D01*
X009900Y001275D01*
X010380Y001234D02*
X010850Y001234D01*
X010850Y001225D02*
X010381Y001225D01*
X010393Y001153D01*
X010418Y001075D01*
X010455Y001002D01*
X010503Y000936D01*
X010561Y000878D01*
X010627Y000830D01*
X010700Y000793D01*
X010778Y000768D01*
X010850Y000756D01*
X010850Y001225D01*
X010850Y001135D02*
X010950Y001135D01*
X010950Y001037D02*
X010850Y001037D01*
X010850Y000938D02*
X010950Y000938D01*
X010950Y000840D02*
X010850Y000840D01*
X010615Y000840D02*
X010103Y000840D01*
X010242Y000938D02*
X010502Y000938D01*
X010438Y001037D02*
X010321Y001037D01*
X010362Y001135D02*
X010399Y001135D01*
X010380Y001332D02*
X010383Y001332D01*
X010850Y001332D02*
X010950Y001332D01*
X010950Y001431D02*
X010850Y001431D01*
X010850Y001529D02*
X010950Y001529D01*
X010950Y001628D02*
X010850Y001628D01*
X010850Y001726D02*
X010950Y001726D01*
X010831Y001825D02*
X028634Y001825D01*
X028617Y001837D02*
X028672Y001797D01*
X028733Y001766D01*
X028768Y001754D01*
X028676Y001716D01*
X028565Y001605D01*
X028505Y001460D01*
X028505Y001303D01*
X028565Y001158D01*
X028676Y001046D01*
X028821Y000986D01*
X028979Y000986D01*
X029124Y001046D01*
X029235Y001158D01*
X029295Y001303D01*
X029295Y001460D01*
X029235Y001605D01*
X029124Y001716D01*
X029032Y001754D01*
X029067Y001766D01*
X029128Y001797D01*
X029183Y001837D01*
X029232Y001885D01*
X029272Y001941D01*
X029303Y002002D01*
X029324Y002067D01*
X029335Y002134D01*
X029335Y002150D01*
X028919Y002150D01*
X028919Y002188D01*
X028881Y002188D01*
X028881Y002604D01*
X028866Y002604D01*
X028798Y002593D01*
X028733Y002572D01*
X028672Y002541D01*
X028617Y002500D01*
X028568Y002452D01*
X028528Y002397D01*
X028497Y002336D01*
X028476Y002271D01*
X028465Y002203D01*
X028465Y002188D01*
X028881Y002188D01*
X028881Y002150D01*
X028465Y002150D01*
X028465Y002134D01*
X028476Y002067D01*
X028497Y002002D01*
X028528Y001941D01*
X028568Y001885D01*
X028617Y001837D01*
X028541Y001923D02*
X024055Y001923D01*
X024153Y002022D02*
X028490Y002022D01*
X028467Y002120D02*
X024252Y002120D01*
X024350Y002219D02*
X028467Y002219D01*
X028491Y002317D02*
X024449Y002317D01*
X024547Y002416D02*
X028542Y002416D01*
X028635Y002514D02*
X024646Y002514D01*
X024744Y002613D02*
X029342Y002613D01*
X029356Y002579D02*
X029303Y002706D01*
X029303Y002844D01*
X029356Y002971D01*
X029454Y003069D01*
X029581Y003122D01*
X029719Y003122D01*
X029846Y003069D01*
X029944Y002971D01*
X029997Y002844D01*
X029997Y002706D01*
X029944Y002579D01*
X029846Y002481D01*
X029719Y002428D01*
X029581Y002428D01*
X029454Y002481D01*
X029356Y002579D01*
X029420Y002514D02*
X029165Y002514D01*
X029183Y002500D02*
X029128Y002541D01*
X029067Y002572D01*
X029002Y002593D01*
X028934Y002604D01*
X028919Y002604D01*
X028919Y002188D01*
X029335Y002188D01*
X029335Y002203D01*
X029324Y002271D01*
X029303Y002336D01*
X029272Y002397D01*
X029232Y002452D01*
X029183Y002500D01*
X029258Y002416D02*
X032283Y002416D01*
X032283Y002514D02*
X029880Y002514D01*
X029958Y002613D02*
X032283Y002613D01*
X032283Y002711D02*
X029997Y002711D01*
X029997Y002810D02*
X032283Y002810D01*
X032283Y002908D02*
X029970Y002908D01*
X029909Y003007D02*
X032283Y003007D01*
X032283Y003105D02*
X029760Y003105D01*
X029540Y003105D02*
X025237Y003105D01*
X025335Y003204D02*
X032283Y003204D01*
X032283Y003302D02*
X025434Y003302D01*
X025532Y003401D02*
X032283Y003401D01*
X032283Y003499D02*
X025630Y003499D01*
X025670Y003598D02*
X032283Y003598D01*
X032283Y003696D02*
X025670Y003696D01*
X025670Y003795D02*
X032283Y003795D01*
X032283Y003893D02*
X025670Y003893D01*
X025670Y003992D02*
X032283Y003992D01*
X032283Y004090D02*
X025670Y004090D01*
X025670Y004189D02*
X032283Y004189D01*
X032283Y004287D02*
X025670Y004287D01*
X025670Y004386D02*
X032283Y004386D01*
X032283Y004484D02*
X027702Y004484D01*
X027801Y004583D02*
X032283Y004583D01*
X032283Y004681D02*
X027899Y004681D01*
X027901Y004780D02*
X032283Y004780D01*
X032283Y004878D02*
X027901Y004878D01*
X027901Y004977D02*
X032283Y004977D01*
X032283Y005075D02*
X027901Y005075D01*
X027901Y005174D02*
X032283Y005174D01*
X032283Y005272D02*
X027901Y005272D01*
X027901Y005371D02*
X032283Y005371D01*
X032283Y005469D02*
X027901Y005469D01*
X027901Y005568D02*
X032283Y005568D01*
X032283Y005666D02*
X027901Y005666D01*
X027901Y005765D02*
X032283Y005765D01*
X032283Y005863D02*
X027901Y005863D01*
X027901Y005962D02*
X032283Y005962D01*
X032283Y006060D02*
X027901Y006060D01*
X027901Y006159D02*
X032283Y006159D01*
X032283Y006257D02*
X027901Y006257D01*
X027901Y006356D02*
X032283Y006356D01*
X032283Y006454D02*
X027901Y006454D01*
X027901Y006553D02*
X032283Y006553D01*
X032283Y006651D02*
X027901Y006651D01*
X027901Y006750D02*
X032283Y006750D01*
X032283Y006848D02*
X027901Y006848D01*
X027901Y006947D02*
X032283Y006947D01*
X032283Y007045D02*
X027901Y007045D01*
X027901Y007144D02*
X032283Y007144D01*
X032283Y007242D02*
X027901Y007242D01*
X027901Y007341D02*
X032283Y007341D01*
X032283Y007439D02*
X027901Y007439D01*
X027901Y007538D02*
X032283Y007538D01*
X032283Y007636D02*
X027901Y007636D01*
X027901Y007735D02*
X032283Y007735D01*
X032283Y007833D02*
X027901Y007833D01*
X027901Y007932D02*
X032283Y007932D01*
X032283Y008030D02*
X027901Y008030D01*
X027901Y008129D02*
X032283Y008129D01*
X032283Y008227D02*
X027901Y008227D01*
X027901Y008326D02*
X032283Y008326D01*
X032283Y008424D02*
X027901Y008424D01*
X027901Y008523D02*
X032283Y008523D01*
X032283Y008621D02*
X027901Y008621D01*
X027901Y008720D02*
X032283Y008720D01*
X032283Y008818D02*
X027901Y008818D01*
X027901Y008917D02*
X032283Y008917D01*
X032283Y009015D02*
X027901Y009015D01*
X027901Y009114D02*
X032283Y009114D01*
X032283Y009212D02*
X027901Y009212D01*
X027901Y009311D02*
X032283Y009311D01*
X032283Y009409D02*
X027901Y009409D01*
X027901Y009508D02*
X032283Y009508D01*
X032283Y009606D02*
X027901Y009606D01*
X027901Y009705D02*
X032283Y009705D01*
X032283Y009803D02*
X027901Y009803D01*
X027901Y009902D02*
X032283Y009902D01*
X032283Y010000D02*
X027901Y010000D01*
X027877Y010099D02*
X032283Y010099D01*
X032283Y010197D02*
X024025Y010197D01*
X024008Y009803D02*
X027581Y009803D01*
X027581Y009705D02*
X022310Y009705D01*
X022310Y009606D02*
X027581Y009606D01*
X027581Y009508D02*
X022234Y009508D01*
X022039Y009409D02*
X027581Y009409D01*
X027581Y009311D02*
X021968Y009311D01*
X021990Y009803D02*
X021857Y009803D01*
X021693Y009803D02*
X021560Y009803D01*
X021560Y009902D02*
X021990Y009902D01*
X021990Y010000D02*
X021560Y010000D01*
X021560Y010099D02*
X021990Y010099D01*
X021990Y010197D02*
X021560Y010197D01*
X021560Y010296D02*
X021990Y010296D01*
X021990Y010394D02*
X021560Y010394D01*
X021560Y010493D02*
X021990Y010493D01*
X021990Y010591D02*
X021560Y010591D01*
X021560Y010690D02*
X021990Y010690D01*
X021990Y010788D02*
X021560Y010788D01*
X021515Y010887D02*
X021990Y010887D01*
X021990Y010985D02*
X021438Y010985D01*
X021438Y011084D02*
X021990Y011084D01*
X021990Y011182D02*
X021839Y011182D01*
X021461Y011182D02*
X021397Y011182D01*
X021388Y011281D02*
X021286Y011281D01*
X020073Y011675D02*
X018365Y011675D01*
X018506Y011576D02*
X019975Y011576D01*
X020188Y010197D02*
X021240Y010197D01*
X021240Y010099D02*
X020188Y010099D01*
X020185Y010000D02*
X021240Y010000D01*
X021240Y009902D02*
X021171Y009902D01*
X021025Y009650D02*
X021025Y007650D01*
X020865Y007735D02*
X020185Y007735D01*
X020185Y007833D02*
X020865Y007833D01*
X020865Y007932D02*
X020185Y007932D01*
X020185Y008030D02*
X020865Y008030D01*
X020865Y008129D02*
X020185Y008129D01*
X020185Y008227D02*
X020865Y008227D01*
X020865Y008326D02*
X020185Y008326D01*
X020185Y008424D02*
X020865Y008424D01*
X020865Y008523D02*
X020185Y008523D01*
X020185Y008621D02*
X020865Y008621D01*
X020865Y008720D02*
X020185Y008720D01*
X020185Y008818D02*
X020865Y008818D01*
X020865Y008917D02*
X020185Y008917D01*
X020185Y009015D02*
X020865Y009015D01*
X020865Y009114D02*
X020185Y009114D01*
X020185Y009212D02*
X020865Y009212D01*
X020865Y009311D02*
X020185Y009311D01*
X020185Y009409D02*
X020859Y009409D01*
X020772Y009508D02*
X020185Y009508D01*
X020185Y009606D02*
X020737Y009606D01*
X020737Y009705D02*
X020185Y009705D01*
X020185Y009803D02*
X020777Y009803D01*
X020879Y009902D02*
X020185Y009902D01*
X020025Y009378D02*
X020025Y007025D01*
X018775Y005775D01*
X018775Y005400D01*
X018275Y006025D02*
X018525Y006275D01*
X018275Y006025D02*
X018275Y003525D01*
X019935Y003598D02*
X019946Y003598D01*
X020030Y004977D02*
X020490Y004977D01*
X020490Y005075D02*
X020129Y005075D01*
X020227Y005174D02*
X020490Y005174D01*
X020490Y005272D02*
X020255Y005272D01*
X018148Y006750D02*
X018101Y006750D01*
X018050Y006651D02*
X018002Y006651D01*
X017951Y006553D02*
X017904Y006553D01*
X017853Y006454D02*
X017805Y006454D01*
X017754Y006356D02*
X017707Y006356D01*
X017656Y006257D02*
X017608Y006257D01*
X017557Y006159D02*
X017510Y006159D01*
X017459Y006060D02*
X017411Y006060D01*
X017360Y005962D02*
X017313Y005962D01*
X017262Y005863D02*
X017214Y005863D01*
X017163Y005765D02*
X017116Y005765D01*
X017065Y005666D02*
X017017Y005666D01*
X020185Y007045D02*
X020194Y007045D01*
X020185Y007144D02*
X020292Y007144D01*
X020391Y007242D02*
X020185Y007242D01*
X020185Y007341D02*
X020489Y007341D01*
X020588Y007439D02*
X020185Y007439D01*
X020185Y007538D02*
X020686Y007538D01*
X020785Y007636D02*
X020185Y007636D01*
X021973Y007735D02*
X024692Y007735D01*
X024606Y007833D02*
X021990Y007833D01*
X021980Y008227D02*
X027581Y008227D01*
X027581Y008129D02*
X024773Y008129D01*
X024859Y008030D02*
X027581Y008030D01*
X027581Y007932D02*
X024945Y007932D01*
X025032Y007833D02*
X027581Y007833D01*
X027581Y007735D02*
X025119Y007735D01*
X025205Y007636D02*
X027581Y007636D01*
X027581Y007538D02*
X025292Y007538D01*
X025379Y007439D02*
X027581Y007439D01*
X027581Y007341D02*
X025465Y007341D01*
X025552Y007242D02*
X027581Y007242D01*
X027581Y007144D02*
X025639Y007144D01*
X025726Y007045D02*
X027581Y007045D01*
X027581Y006947D02*
X025812Y006947D01*
X025899Y006848D02*
X027581Y006848D01*
X027581Y006750D02*
X025986Y006750D01*
X026072Y006651D02*
X027581Y006651D01*
X027581Y006553D02*
X026159Y006553D01*
X026246Y006454D02*
X027581Y006454D01*
X027581Y006356D02*
X026332Y006356D01*
X026419Y006257D02*
X027581Y006257D01*
X027581Y006159D02*
X026506Y006159D01*
X026592Y006060D02*
X027581Y006060D01*
X027581Y005962D02*
X026679Y005962D01*
X026766Y005863D02*
X027581Y005863D01*
X027581Y005765D02*
X026852Y005765D01*
X026939Y005666D02*
X027581Y005666D01*
X027581Y005568D02*
X027026Y005568D01*
X027112Y005469D02*
X027581Y005469D01*
X027581Y005371D02*
X027199Y005371D01*
X027286Y005272D02*
X027581Y005272D01*
X027581Y005174D02*
X027493Y005174D01*
X026920Y004681D02*
X025670Y004681D01*
X025670Y004583D02*
X027019Y004583D01*
X027117Y004484D02*
X025670Y004484D01*
X025670Y004780D02*
X026822Y004780D01*
X026723Y004878D02*
X025670Y004878D01*
X025670Y004977D02*
X026625Y004977D01*
X026526Y005075D02*
X025670Y005075D01*
X025670Y005174D02*
X026428Y005174D01*
X026329Y005272D02*
X025670Y005272D01*
X025670Y005371D02*
X026231Y005371D01*
X026132Y005469D02*
X025670Y005469D01*
X025678Y005568D02*
X026034Y005568D01*
X025935Y005666D02*
X025688Y005666D01*
X025664Y005765D02*
X025837Y005765D01*
X025138Y003007D02*
X029391Y003007D01*
X029330Y002908D02*
X025040Y002908D01*
X024941Y002810D02*
X029303Y002810D01*
X029303Y002711D02*
X024843Y002711D01*
X025378Y002197D02*
X028874Y002197D01*
X028900Y002169D01*
X028881Y002219D02*
X028919Y002219D01*
X028919Y002317D02*
X028881Y002317D01*
X028881Y002416D02*
X028919Y002416D01*
X028919Y002514D02*
X028881Y002514D01*
X029309Y002317D02*
X032283Y002317D01*
X032283Y002219D02*
X029333Y002219D01*
X029333Y002120D02*
X032283Y002120D01*
X032283Y002022D02*
X029310Y002022D01*
X029259Y001923D02*
X032283Y001923D01*
X032283Y001825D02*
X029166Y001825D01*
X029100Y001726D02*
X032283Y001726D01*
X032277Y001628D02*
X029212Y001628D01*
X029266Y001529D02*
X032269Y001529D01*
X032242Y001431D02*
X029295Y001431D01*
X029295Y001332D02*
X032216Y001332D01*
X032189Y001234D02*
X029266Y001234D01*
X029212Y001135D02*
X032149Y001135D01*
X032092Y001037D02*
X029879Y001037D01*
X029846Y001069D02*
X029719Y001122D01*
X029581Y001122D01*
X029454Y001069D01*
X029356Y000971D01*
X029303Y000844D01*
X029303Y000706D01*
X029356Y000579D01*
X029454Y000481D01*
X029581Y000428D01*
X029719Y000428D01*
X029846Y000481D01*
X029944Y000579D01*
X029997Y000706D01*
X029997Y000844D01*
X029944Y000971D01*
X029846Y001069D01*
X029958Y000938D02*
X032036Y000938D01*
X031971Y000840D02*
X029997Y000840D01*
X029997Y000741D02*
X031873Y000741D01*
X031774Y000643D02*
X029971Y000643D01*
X029910Y000544D02*
X031639Y000544D01*
X031468Y000446D02*
X029761Y000446D01*
X029539Y000446D02*
X004658Y000446D01*
X004730Y000544D02*
X029390Y000544D01*
X029329Y000643D02*
X004779Y000643D01*
X004811Y000741D02*
X029303Y000741D01*
X029303Y000840D02*
X023103Y000840D01*
X023172Y000868D02*
X023307Y001003D01*
X023380Y001180D01*
X023380Y001370D01*
X023307Y001547D01*
X023172Y001682D01*
X022995Y001755D01*
X022805Y001755D01*
X022628Y001682D01*
X022493Y001547D01*
X022420Y001370D01*
X022420Y001180D01*
X022493Y001003D01*
X022628Y000868D01*
X022805Y000795D01*
X022995Y000795D01*
X023172Y000868D01*
X023242Y000938D02*
X029342Y000938D01*
X029421Y001037D02*
X029100Y001037D01*
X028700Y001037D02*
X023321Y001037D01*
X023362Y001135D02*
X028588Y001135D01*
X028534Y001234D02*
X023380Y001234D01*
X023380Y001332D02*
X028505Y001332D01*
X028505Y001431D02*
X023355Y001431D01*
X023314Y001529D02*
X028534Y001529D01*
X028588Y001628D02*
X023226Y001628D01*
X023065Y001726D02*
X028700Y001726D01*
X031175Y000347D02*
X004547Y000347D01*
X003761Y000347D02*
X002539Y000347D01*
X002650Y000446D02*
X003650Y000446D01*
X003578Y000544D02*
X002722Y000544D01*
X002772Y000643D02*
X003528Y000643D01*
X003497Y000741D02*
X002803Y000741D01*
X002819Y000840D02*
X003481Y000840D01*
X003493Y001037D02*
X002807Y001037D01*
X002778Y001135D02*
X003522Y001135D01*
X003569Y001234D02*
X002731Y001234D01*
X002662Y001332D02*
X003638Y001332D01*
X003742Y001431D02*
X003284Y001431D01*
X003465Y001529D02*
X003918Y001529D01*
X004104Y001529D02*
X004204Y001529D01*
X004204Y001431D02*
X004104Y001431D01*
X004104Y001332D02*
X004204Y001332D01*
X004204Y001234D02*
X004104Y001234D01*
X004104Y001135D02*
X004204Y001135D01*
X004204Y001037D02*
X004104Y001037D01*
X004104Y000938D02*
X002196Y000938D01*
X002196Y001037D02*
X002096Y001037D01*
X002096Y001135D02*
X002196Y001135D01*
X002196Y001234D02*
X002096Y001234D01*
X002096Y001332D02*
X002196Y001332D01*
X002196Y001431D02*
X002096Y001431D01*
X002096Y001529D02*
X002196Y001529D01*
X002382Y001529D02*
X002835Y001529D01*
X003016Y001431D02*
X002558Y001431D01*
X003635Y001825D02*
X010068Y001825D01*
X010166Y001923D02*
X003635Y001923D01*
X004104Y002317D02*
X004204Y002317D01*
X004204Y002416D02*
X004104Y002416D01*
X004104Y002514D02*
X004204Y002514D01*
X004204Y002613D02*
X004104Y002613D01*
X004104Y002711D02*
X004204Y002711D01*
X004204Y003007D02*
X004104Y003007D01*
X004104Y003105D02*
X004204Y003105D01*
X004204Y003204D02*
X004104Y003204D01*
X004104Y003302D02*
X004204Y003302D01*
X004204Y003401D02*
X004104Y003401D01*
X004104Y003499D02*
X004204Y003499D01*
X004822Y002810D02*
X005529Y002810D01*
X005488Y002711D02*
X004801Y002711D01*
X004764Y002613D02*
X005487Y002613D01*
X005519Y002514D02*
X004706Y002514D01*
X004620Y002416D02*
X005602Y002416D01*
X005775Y002650D02*
X007025Y002650D01*
X006852Y002416D02*
X005948Y002416D01*
X005775Y003150D02*
X006775Y003150D01*
X006627Y003401D02*
X005923Y003401D01*
X004487Y002317D02*
X008257Y002317D01*
X008697Y000840D02*
X004827Y000840D01*
X002196Y002613D02*
X002096Y002613D01*
X002096Y002711D02*
X002196Y002711D01*
X002196Y002810D02*
X002096Y002810D01*
X002403Y004878D02*
X002999Y004878D01*
X002810Y004977D02*
X002547Y004977D01*
X002631Y005075D02*
X002711Y005075D01*
X003301Y004878D02*
X003897Y004878D01*
X003753Y004977D02*
X003490Y004977D01*
X003589Y005075D02*
X003669Y005075D01*
X003635Y005666D02*
X003624Y005666D01*
X003698Y005765D02*
X003549Y005765D01*
X003443Y005863D02*
X003801Y005863D01*
X004001Y005962D02*
X002299Y005962D01*
X002499Y005863D02*
X002857Y005863D01*
X002751Y005765D02*
X002602Y005765D01*
X002665Y005666D02*
X002676Y005666D01*
X005525Y006230D02*
X005945Y004855D01*
X005554Y006553D02*
X005496Y006553D01*
X005496Y006651D02*
X005554Y006651D01*
X005554Y006750D02*
X005496Y006750D01*
X005496Y006947D02*
X005554Y006947D01*
X005554Y007045D02*
X005496Y007045D01*
X005817Y007045D02*
X013615Y007045D01*
X013615Y006947D02*
X005832Y006947D01*
X010443Y005863D02*
X010857Y005863D01*
X010751Y005765D02*
X010549Y005765D01*
X011443Y005863D02*
X011801Y005863D01*
X011698Y005765D02*
X011549Y005765D01*
X011624Y005666D02*
X011635Y005666D01*
X011669Y005075D02*
X011589Y005075D01*
X011490Y004977D02*
X011753Y004977D01*
X012008Y004484D02*
X011420Y004484D01*
X011420Y004386D02*
X011909Y004386D01*
X011811Y004287D02*
X011420Y004287D01*
X011420Y004189D02*
X011740Y004189D01*
X011740Y004090D02*
X011417Y004090D01*
X011373Y003992D02*
X011740Y003992D01*
X011740Y003893D02*
X011275Y003893D01*
X011184Y003795D02*
X011616Y003795D01*
X011517Y003696D02*
X011283Y003696D01*
X011338Y003598D02*
X011462Y003598D01*
X011421Y003499D02*
X011379Y003499D01*
X011380Y003401D02*
X011420Y003401D01*
X011421Y003302D02*
X011379Y003302D01*
X011338Y003204D02*
X011462Y003204D01*
X011516Y003105D02*
X011284Y003105D01*
X011185Y003007D02*
X011615Y003007D01*
X011407Y002810D02*
X011170Y002810D01*
X011170Y002908D02*
X012731Y002908D01*
X011344Y002711D02*
X011170Y002711D01*
X011170Y002613D02*
X011325Y002613D01*
X011339Y002514D02*
X011170Y002514D01*
X011160Y001726D02*
X011640Y001726D01*
X011517Y001628D02*
X011283Y001628D01*
X011354Y001529D02*
X011446Y001529D01*
X011404Y001431D02*
X011396Y001431D01*
X011362Y001037D02*
X011438Y001037D01*
X011502Y000938D02*
X011298Y000938D01*
X011185Y000840D02*
X011615Y000840D01*
X011850Y000840D02*
X011950Y000840D01*
X011950Y000938D02*
X011850Y000938D01*
X011850Y001037D02*
X011950Y001037D01*
X011950Y001332D02*
X011850Y001332D01*
X011850Y001431D02*
X011950Y001431D01*
X011950Y001529D02*
X011850Y001529D01*
X011850Y001628D02*
X011950Y001628D01*
X011950Y001726D02*
X011850Y001726D01*
X012401Y001135D02*
X012438Y001135D01*
X012479Y001037D02*
X012362Y001037D01*
X012298Y000938D02*
X012558Y000938D01*
X012697Y000840D02*
X012185Y000840D01*
X013103Y000840D02*
X013697Y000840D01*
X013558Y000938D02*
X013242Y000938D01*
X013321Y001037D02*
X013479Y001037D01*
X013438Y001135D02*
X013362Y001135D01*
X013380Y001234D02*
X013420Y001234D01*
X013420Y001332D02*
X013380Y001332D01*
X013355Y001431D02*
X013445Y001431D01*
X013486Y001529D02*
X013314Y001529D01*
X013226Y001628D02*
X013574Y001628D01*
X014226Y001628D02*
X014574Y001628D01*
X014486Y001529D02*
X014314Y001529D01*
X014355Y001431D02*
X014445Y001431D01*
X014420Y001332D02*
X014380Y001332D01*
X014380Y001234D02*
X014420Y001234D01*
X014438Y001135D02*
X014362Y001135D01*
X014321Y001037D02*
X014479Y001037D01*
X014558Y000938D02*
X014242Y000938D01*
X014103Y000840D02*
X014697Y000840D01*
X015103Y000840D02*
X015697Y000840D01*
X015558Y000938D02*
X015242Y000938D01*
X015321Y001037D02*
X015479Y001037D01*
X015438Y001135D02*
X015362Y001135D01*
X015380Y001234D02*
X015420Y001234D01*
X015420Y001332D02*
X015380Y001332D01*
X015355Y001431D02*
X015445Y001431D01*
X015486Y001529D02*
X015314Y001529D01*
X015226Y001628D02*
X015574Y001628D01*
X016226Y001628D02*
X016574Y001628D01*
X016486Y001529D02*
X016314Y001529D01*
X016355Y001431D02*
X016445Y001431D01*
X016420Y001332D02*
X016380Y001332D01*
X016380Y001234D02*
X016420Y001234D01*
X016438Y001135D02*
X016362Y001135D01*
X016321Y001037D02*
X016479Y001037D01*
X016558Y000938D02*
X016242Y000938D01*
X016103Y000840D02*
X016697Y000840D01*
X017103Y000840D02*
X017697Y000840D01*
X017558Y000938D02*
X017242Y000938D01*
X017321Y001037D02*
X017479Y001037D01*
X017438Y001135D02*
X017362Y001135D01*
X017380Y001234D02*
X017420Y001234D01*
X017420Y001332D02*
X017380Y001332D01*
X017355Y001431D02*
X017445Y001431D01*
X017486Y001529D02*
X017314Y001529D01*
X017226Y001628D02*
X017574Y001628D01*
X018226Y001628D02*
X018574Y001628D01*
X018486Y001529D02*
X018314Y001529D01*
X018355Y001431D02*
X018445Y001431D01*
X018420Y001332D02*
X018380Y001332D01*
X018380Y001234D02*
X018420Y001234D01*
X018438Y001135D02*
X018362Y001135D01*
X018321Y001037D02*
X018479Y001037D01*
X018558Y000938D02*
X018242Y000938D01*
X018103Y000840D02*
X018697Y000840D01*
X019103Y000840D02*
X019697Y000840D01*
X019558Y000938D02*
X019242Y000938D01*
X019321Y001037D02*
X019479Y001037D01*
X019438Y001135D02*
X019362Y001135D01*
X019380Y001234D02*
X019420Y001234D01*
X019420Y001332D02*
X019380Y001332D01*
X019355Y001431D02*
X019445Y001431D01*
X019486Y001529D02*
X019314Y001529D01*
X019226Y001628D02*
X019574Y001628D01*
X020065Y001726D02*
X020735Y001726D01*
X020805Y001755D02*
X020628Y001682D01*
X020493Y001547D01*
X020420Y001370D01*
X020420Y001180D01*
X020493Y001003D01*
X020628Y000868D01*
X020805Y000795D01*
X020995Y000795D01*
X021172Y000868D01*
X021307Y001003D01*
X021380Y001180D01*
X021380Y001370D01*
X021307Y001547D01*
X021172Y001682D01*
X020995Y001755D01*
X020805Y001755D01*
X021065Y001726D02*
X021735Y001726D01*
X021805Y001755D02*
X021628Y001682D01*
X021493Y001547D01*
X021420Y001370D01*
X021420Y001180D01*
X021493Y001003D01*
X021628Y000868D01*
X021805Y000795D01*
X021995Y000795D01*
X022172Y000868D01*
X022307Y001003D01*
X022380Y001180D01*
X022380Y001370D01*
X022307Y001547D01*
X022172Y001682D01*
X021995Y001755D01*
X021805Y001755D01*
X022065Y001726D02*
X022735Y001726D01*
X022574Y001628D02*
X022226Y001628D01*
X022314Y001529D02*
X022486Y001529D01*
X022445Y001431D02*
X022355Y001431D01*
X022380Y001332D02*
X022420Y001332D01*
X022420Y001234D02*
X022380Y001234D01*
X022362Y001135D02*
X022438Y001135D01*
X022479Y001037D02*
X022321Y001037D01*
X022242Y000938D02*
X022558Y000938D01*
X022697Y000840D02*
X022103Y000840D01*
X021697Y000840D02*
X021103Y000840D01*
X021242Y000938D02*
X021558Y000938D01*
X021479Y001037D02*
X021321Y001037D01*
X021362Y001135D02*
X021438Y001135D01*
X021420Y001234D02*
X021380Y001234D01*
X021380Y001332D02*
X021420Y001332D01*
X021445Y001431D02*
X021355Y001431D01*
X021314Y001529D02*
X021486Y001529D01*
X021574Y001628D02*
X021226Y001628D01*
X020574Y001628D02*
X020226Y001628D01*
X020314Y001529D02*
X020486Y001529D01*
X020445Y001431D02*
X020355Y001431D01*
X020380Y001332D02*
X020420Y001332D01*
X020420Y001234D02*
X020380Y001234D01*
X020362Y001135D02*
X020438Y001135D01*
X020479Y001037D02*
X020321Y001037D01*
X020242Y000938D02*
X020558Y000938D01*
X020697Y000840D02*
X020103Y000840D01*
X013615Y005765D02*
X013549Y005765D01*
X013615Y005863D02*
X013443Y005863D01*
X009697Y000840D02*
X009103Y000840D01*
X009242Y000938D02*
X009558Y000938D01*
X020274Y014137D02*
X021475Y014137D01*
X021338Y014236D02*
X020435Y014236D01*
X020510Y014334D02*
X021268Y014334D01*
X021228Y014433D02*
X020551Y014433D01*
X020556Y014531D02*
X021224Y014531D01*
X021233Y014630D02*
X020546Y014630D01*
X020505Y014728D02*
X021273Y014728D01*
X021350Y014827D02*
X020422Y014827D01*
X021825Y014137D02*
X022923Y014137D01*
X022810Y014236D02*
X021962Y014236D01*
X022032Y014334D02*
X022747Y014334D01*
X022706Y014433D02*
X022072Y014433D01*
X022076Y014531D02*
X022705Y014531D01*
X022711Y014630D02*
X022067Y014630D01*
X022027Y014728D02*
X022752Y014728D01*
X022822Y014827D02*
X021950Y014827D01*
D20*
X023804Y010008D03*
X022890Y007394D03*
X023079Y006292D03*
X020150Y003804D03*
X025378Y002197D03*
X016370Y007741D03*
X012843Y010292D03*
X006670Y010008D03*
X011615Y002607D03*
D21*
X013650Y003025D03*
X016150Y004400D03*
X016650Y004025D03*
X018275Y003525D03*
X019373Y002568D03*
X020650Y003775D03*
X021150Y003775D03*
X021650Y003775D03*
X022150Y003775D03*
X022900Y002900D03*
X024025Y005525D03*
X025400Y005650D03*
X027400Y004900D03*
X022400Y007650D03*
X021775Y007525D03*
X021775Y008025D03*
X020650Y008400D03*
X019400Y009025D03*
X019900Y010150D03*
X021025Y009650D03*
X021775Y009525D03*
X022650Y009400D03*
X022525Y010775D03*
X021650Y011400D03*
X021150Y011025D03*
X018275Y011400D03*
X012400Y009775D03*
X015525Y007150D03*
X015275Y006150D03*
X018525Y006275D03*
X019150Y006775D03*
X019150Y007275D03*
X020650Y006025D03*
X021150Y006025D03*
X021525Y006275D03*
X025400Y009525D03*
X009025Y002400D03*
X007025Y002650D03*
X006775Y003150D03*
X005775Y003150D03*
X005775Y002650D03*
X004150Y001900D03*
X003150Y000900D03*
X002150Y001900D03*
X002150Y003900D03*
X002150Y004525D03*
X003900Y004525D03*
X003900Y003900D03*
X004025Y006275D03*
X003400Y006275D03*
X002775Y006275D03*
X002150Y006275D03*
D22*
X010150Y005400D02*
X011150Y005400D01*
X011150Y004150D01*
X010900Y003900D01*
X010900Y003400D01*
X010900Y002150D01*
X010775Y002150D01*
X009900Y001275D01*
X009777Y001148D02*
X009900Y001025D01*
X009777Y001148D02*
X009650Y001275D01*
X008900Y001275D01*
X010900Y002150D02*
X019775Y002150D01*
X023900Y002150D01*
X025400Y003650D01*
X025400Y005650D01*
M02*
