%
M48
M72
T01C0.0197
T02C0.0236
T03C0.0240
T04C0.0276
T05C0.0315
T06C0.0354
T07C0.0394
T08C0.0400
T09C0.0433
T10C0.0472
T11C0.0500
T12C0.0512
T13C0.0551
T14C0.0591
T15C0.0700
%
T01
X12150Y14525
T02
X13150Y14525
X18275Y11400
X19900Y10150
X21025Y9650
X21775Y9525
X22650Y9400
X20650Y8400
X21775Y8025
X22400Y7650
X21775Y7525
X21525Y6275
X21150Y6025
X20650Y6025
X19150Y6775
X18525Y6275
X19150Y7275
X19400Y9025
X22525Y10775
X21650Y11400
X21150Y11025
X25400Y9525
X25400Y5650
X24025Y5525
X22150Y3775
X21650Y3775
X21150Y3775
X20650Y3775
X19373Y2568
X18275Y3525
X16650Y4025
X16150Y4400
X15275Y6150
X15525Y7150
X12400Y9775
X4025Y6275
X3400Y6275
X2775Y6275
X2150Y6275
X2150Y4525
X2150Y3900
X3900Y3900
X3900Y4525
X5775Y3150
X5775Y2650
X6775Y3150
X7025Y2650
X9025Y2400
X13650Y3025
X22900Y2900
X27400Y4900
X4150Y1900
X3150Y900
X2150Y1900
T03
X11615Y2607
X16370Y7741
X12843Y10292
X6670Y10008
X20150Y3804
X23079Y6292
X22890Y7394
X23804Y10008
X25378Y2197
T04
X28900Y2169
X28900Y1381
X13150Y5400
X12150Y5400
X11150Y5400
X10150Y5400
X4150Y5400
X3150Y5400
X2150Y5400
X14150Y14525
T05
X15150Y14525
T06
X16150Y14525
T07
X17150Y14525
X29650Y2775
X29650Y775
T08
X22900Y1275
X21900Y1275
X20900Y1275
X19900Y1275
X18900Y1275
X17900Y1275
X16900Y1275
X15900Y1275
X14900Y1275
X13900Y1275
X12900Y1275
X11900Y1275
X10900Y1275
X9900Y1275
X8900Y1275
X10900Y3400
X11900Y3400
X12900Y3400
X17775Y4400
X18775Y4400
X19775Y4400
X19775Y5400
X18775Y5400
X17775Y5400
T09
X18150Y14525
T10
X19150Y14525
T11
X3150Y1900
T12
X20150Y14525
T13
X21650Y14525
T14
X23150Y14525
T15
X2146Y896
X4154Y896
X4154Y2904
X2146Y2904
M30
